<svg width="443" height="343" viewBox="0 0 443 343" fill="none" xmlns="http://www.w3.org/2000/svg">
<g id="body" filter="url(#filter0_d)">
<g id="dog">
<path id="Vector" d="M435 91.1655C434.519 125.013 406.018 151.779 372.235 151.779H367.533C363.38 151.764 359.385 153.379 356.406 156.279C354.142 158.4 352.567 161.154 351.885 164.183C351.565 165.406 351.407 166.665 351.413 167.929V227.679C351.441 239.165 348.17 250.416 341.99 260.09C333.138 273.93 327.955 289.769 327.955 306.2C327.953 310.027 327.191 313.815 325.711 317.343C324.232 320.871 322.067 324.069 319.341 326.749C316.615 329.43 313.383 331.54 309.835 332.955C306.286 334.371 302.492 335.065 298.673 334.995C282.874 334.704 270.483 321.095 270.483 305.256V290.311L262.654 291.235V306.2C262.651 310.027 261.887 313.816 260.406 317.344C258.926 320.872 256.76 324.07 254.033 326.75C251.306 329.43 248.074 331.54 244.525 332.956C240.976 334.371 237.181 335.065 233.362 334.995C217.563 334.704 205.182 321.095 205.182 305.256V297.693C197.343 300.967 152.933 300.967 140.602 297.804L137.254 297.542V306.2C137.252 310.027 136.489 313.815 135.01 317.343C133.531 320.871 131.365 324.069 128.639 326.749C125.914 329.43 122.682 331.54 119.134 332.955C115.585 334.371 111.791 335.065 107.972 334.995C92.1625 334.704 79.7819 321.095 79.7819 305.256V292.832L77.1655 292.591V306.2C77.165 308.611 76.8687 311.013 76.2833 313.351C74.6664 319.632 70.9845 325.184 65.8318 329.111C60.6791 333.037 54.3561 335.111 47.8831 334.995C33.4374 334.734 21.8688 323.345 19.9541 309.294C19.7915 307.96 19.7045 306.619 19.6934 305.276V242.734C19.6611 221.251 26.839 200.38 40.0738 183.477C42.3679 180.486 43.6522 176.842 43.7406 173.072C43.8289 169.301 42.7166 165.6 40.565 162.506C25.9389 141.042 4.30536 104.825 5.01712 79.1432C5.19757 71.7109 7.23262 65.1926 11.8641 60.1406C12.1448 59.8293 12.4355 59.5179 12.7262 59.2267C33.7782 37.1306 70.8699 54.5162 67.6319 84.8782C66.5488 95.0506 67.3026 105.335 69.8574 115.24C71.3065 120.838 73.2732 126.289 75.7319 131.521C78.1882 136.773 82.2338 141.117 87.2941 143.935C92.3545 146.753 98.1724 147.902 103.922 147.219C107.83 146.746 111.764 146.511 115.701 146.516H236.469C243.554 146.503 250.457 144.268 256.21 140.125C261.963 135.982 266.278 130.139 268.549 123.416C269.772 119.89 270.389 116.181 270.373 112.448V18.3289C270.372 15.8733 270.863 13.4425 271.818 11.1811C272.773 8.91959 274.173 6.87355 275.933 5.16458C277.693 3.4556 279.778 2.11858 282.064 1.23295C284.35 0.347328 286.79 -0.0688189 289.24 0.00926454C291.634 0.0804597 293.988 0.635887 296.162 1.64214C298.336 2.64839 300.285 4.0847 301.891 5.86472C305.158 9.48202 306.972 14.1835 306.984 19.0621C306.984 20.337 307.234 21.5995 307.722 22.7773C308.209 23.955 308.923 25.025 309.823 25.9261C310.724 26.8272 311.792 27.5416 312.969 28.0286C314.145 28.5156 315.405 28.7656 316.677 28.7643H373.598C381.736 28.7607 389.794 30.379 397.301 33.5249C404.809 36.6709 411.617 41.2816 417.33 47.0888C423.042 52.896 427.544 59.7836 430.575 67.3506C433.605 74.9177 435.102 83.0131 434.98 91.1655H435Z" fill="#F3AD55"/>
</g>
<g id="leg one">
<path id="Vector_2" d="M75.39 311.989C73.7771 318.243 70.1043 323.77 64.9644 327.68C59.8244 331.59 53.517 333.654 47.06 333.539C32.65 333.279 21.11 321.939 19.2 307.949C36.56 303.249 60.61 300.029 75.39 311.989Z" fill="#FBDCA3"/>
</g>
<g id="leg two">
<path id="Vector_3" d="M135.32 311.989C133.711 318.243 130.04 323.771 124.902 327.681C119.763 331.592 113.456 333.655 107 333.539C92.59 333.279 81 321.939 79.14 307.949C96.5 303.249 120.55 300.029 135.32 311.989Z" fill="#FBDCA3"/>
</g>
<g id="leg three">
<path id="Vector_4" d="M260.41 311.989C258.799 318.243 255.126 323.772 249.986 327.682C244.846 331.592 238.537 333.656 232.08 333.539C217.67 333.279 206.08 321.939 204.23 307.949C221.58 303.249 245.63 300.029 260.41 311.989Z" fill="#FBDCA3"/>
</g>
<g id="leg four">
<path id="Vector_5" d="M325.56 311.989C323.947 318.243 320.274 323.77 315.134 327.68C309.994 331.59 303.687 333.654 297.23 333.539C282.82 333.279 271.23 321.939 269.37 307.949C286.73 303.249 310.78 300.029 325.56 311.989Z" fill="#FBDCA3"/>
</g>
<g id="tail">
<path id="Vector_6" d="M68.98 114.769C48.73 106.639 23.98 91.7692 4.29999 78.8292C4.47999 71.4292 6.51 64.9392 11.13 59.9092C11.41 59.5992 11.7 59.2892 11.99 58.9992C32.99 36.9992 69.99 54.3092 66.76 84.5392C65.6796 94.6675 66.4315 104.907 68.98 114.769V114.769Z" fill="#FBDCA3"/>
</g>
<g id="back">
<path id="Vector_7" d="M97 147.18C97 147.18 152.75 217.36 244 147Z" fill="#FBDCA3"/>
</g>
<g id="ear">
<path id="Vector_8" d="M269.11 15.6093C269.11 15.6093 302.99 59.9092 269.11 114.609Z" fill="#FBDCA3"/>
</g>
<g id="neck">
<path id="Vector_9" d="M349.9 166.759C349.9 166.759 320.06 203.829 349.5 233.249Z" fill="#FBDCA3"/>
</g>
<g id="belt">
<path id="Vector_10" d="M270.84 125.559C270.84 125.559 300.39 147.779 349.9 154.659Z" fill="#F3AD55"/>
</g>
<g id="mouth">
<g id="Group 1">
<path id="Vector_11" d="M344.69 125.059C344.69 125.059 394.2 140.699 407.23 91.1892L344.69 125.059Z" fill="#FBDCA3"/>
</g>
</g>
<g id="nose">
<path id="Vector_12" d="M433.29 93.7893C436.167 93.7893 438.5 89.7061 438.5 84.6693C438.5 79.6324 436.167 75.5493 433.29 75.5493C430.413 75.5493 428.08 79.6324 428.08 84.6693C428.08 89.7061 430.413 93.7893 433.29 93.7893Z" fill="#383F4D"/>
</g>
</g>
<defs>
<filter id="filter0_d" x="0.299988" y="0" width="442.2" height="343" filterUnits="userSpaceOnUse" color-interpolation-filters="sRGB">
<feFlood flood-opacity="0" result="BackgroundImageFix"/>
<feColorMatrix in="SourceAlpha" type="matrix" values="0 0 0 0 0 0 0 0 0 0 0 0 0 0 0 0 0 0 127 0"/>
<feOffset dy="4"/>
<feGaussianBlur stdDeviation="2"/>
<feColorMatrix type="matrix" values="0 0 0 0 0 0 0 0 0 0 0 0 0 0 0 0 0 0 0.25 0"/>
<feBlend mode="normal" in2="BackgroundImageFix" result="effect1_dropShadow"/>
<feBlend mode="normal" in="SourceGraphic" in2="effect1_dropShadow" result="shape"/>
</filter>
</defs>
</svg>
