<svg width="1248" height="1602" viewBox="0 0 1248 1602" fill="none" xmlns="http://www.w3.org/2000/svg">
<g id="bulldog">
<g id="spot thirty four">
<path id="Vector" d="M600.399 0.868011H635.791C676.608 2.16801 717.383 5.53501 757.833 11.16C808.933 18.435 859.708 29.568 908.091 47.785C931.783 56.718 954.841 67.427 976.666 80.285C971.358 84.752 966.383 89.618 961.833 94.86C957.958 94.218 954.341 96.035 950.758 97.168C942.775 99.668 935.133 103.31 928.216 108.001C923.791 111.626 919.099 115.476 916.858 120.893C915.958 122.885 915.133 124.91 914.466 126.985C903.483 122.585 892.666 117.777 881.599 113.602C801.449 82.852 715.824 67.944 630.232 64.502C609.957 63.602 589.665 63.91 569.382 63.96C493.674 65.585 418.207 75.177 344.299 91.527C341.349 92.11 338.432 92.852 335.574 93.794C328.582 88.302 320.966 83.711 313.224 79.377C366.091 47.902 424.574 26.327 484.757 13.885C522.799 5.97701 561.583 1.97701 600.399 0.868011Z" fill="#F2DBAA" stroke="#F2DBAA" stroke-width="0.4167"/>
</g>
<g id="ear six">
<path id="Vector_2" d="M207.658 13.202C214.3 12.819 220.991 12.485 227.625 13.077C231.133 14.335 233.892 17.052 237.017 19.035C259.259 34.843 280.275 52.443 299.117 72.202C310.142 84.135 320.525 96.86 328.2 111.244C333.092 120.569 337.033 130.677 337.717 141.269C336.775 144.027 336.767 146.919 337.717 149.669C337.334 157.336 334.384 164.602 330.667 171.227C326.2 179.227 320.084 186.235 313.142 192.194C296.8 206.086 276.759 214.319 258.175 224.636C244.767 232.028 231.683 240.644 221.75 252.469C213.5 262.127 207.733 273.786 204.567 286.069C201.875 296.044 201.292 306.394 199.742 316.569C196.15 341.169 191.35 365.694 183.417 389.286C179.217 401.328 174.317 413.394 166.4 423.519C161.883 428.961 154.958 433.936 147.517 431.769C148.817 431.602 150.125 431.419 151.434 431.236C157.826 416.936 161.667 401.644 164.792 386.344C172.867 343.111 173.4 298.927 172.792 255.094C172.45 240.986 172.459 226.877 171.55 212.794C170.842 181.044 168.775 149.336 169.017 117.577C169.267 100.919 168.1 83.852 172.892 67.677C177.267 52.002 186.042 37.86 196.834 25.794C200.601 21.319 205.109 17.552 209.001 13.202H207.658V13.202Z" fill="#231F20" stroke="#231F20" stroke-width="0.4167"/>
</g>
<g id="ear five">
<path id="Vector_3" d="M131.349 37.81C154.232 23.51 180.666 14.693 207.657 13.202H208.999C205.107 17.552 200.599 21.319 196.832 25.794C186.04 37.861 177.265 52.002 172.89 67.677C168.098 83.852 169.265 100.919 169.015 117.577C168.773 149.335 170.84 181.044 171.548 212.794C172.456 226.877 172.448 240.986 172.79 255.094C173.398 298.927 172.865 343.111 164.79 386.344C161.665 401.644 157.823 416.936 151.432 431.236C150.124 431.419 148.815 431.603 147.515 431.769C143.865 430.794 140.915 428.269 138.182 425.794C133.082 420.011 129.357 413.086 123.515 407.944C114.598 399.161 104.132 392.202 93.798 385.244C75.056 372.927 55.74 361.286 38.781 346.519C24.381 334.011 11.714 318.719 5.50597 300.444C3.08897 293.519 1.73897 286.252 1.04797 278.961V264.661C2.93097 248.078 7.54797 231.978 12.181 215.994C25.506 172.177 44.714 129.686 72.398 93.002C88.741 71.468 108.299 52.093 131.349 37.81Z" fill="#414042" stroke="#414042" stroke-width="0.4167"/>
</g>
<g id="ear four">
<path id="Vector_4" d="M1095.31 35.443C1113.61 33.36 1132.66 33.81 1150.12 40.218C1163.22 44.901 1174.9 53.218 1184.05 63.651C1193.89 74.718 1201.15 87.801 1207.29 101.209C1220.22 129.917 1228.61 160.392 1240.96 189.334C1250.2 211.109 1248.38 235.809 1242.68 258.259C1238.26 275.376 1231.52 291.826 1223.52 307.567C1211.07 331.567 1196.13 354.425 1178.17 374.667C1178.22 375.117 1178.31 376 1178.36 376.45C1178.12 376.292 1177.63 375.992 1177.38 375.833C1173.13 380.508 1168.81 385.116 1164.23 389.466C1158.79 394.533 1153.12 399.449 1146.63 403.133C1141.87 405.908 1136.34 406.775 1131.08 408.1C1122.48 409.983 1113.62 411.35 1104.8 410.608C1104.08 409.216 1104.04 407.683 1104.78 406.291C1111.77 389.891 1114.25 371.924 1114.26 354.199C1114.45 332.957 1111.77 311.841 1108.8 290.849C1104.67 262.466 1099.65 234.224 1094.95 205.932C1093.24 196.082 1092.02 186.09 1088.76 176.59C1081.44 153.865 1067.18 134.023 1050.7 117.032C1032.88 98.732 1012.16 83.599 990.776 69.782C1021.86 49.393 1058.72 39.693 1095.31 35.443Z" fill="#414042" stroke="#414042" stroke-width="0.4167"/>
</g>
<g id="mouth five">
<path id="Vector_5" d="M344.299 91.527C418.207 75.177 493.674 65.585 569.382 63.96C589.665 63.91 609.957 63.602 630.232 64.502C715.824 67.944 801.449 82.852 881.599 113.602C892.666 117.777 903.482 122.585 914.466 126.985C913.474 134.952 915.499 143.018 919.249 150.043C933.791 177.393 954.391 200.793 974.416 224.193C989.266 241.851 1004.34 260.193 1012.06 282.268C1020.82 308.535 1031.63 334.101 1043.93 358.901C1051.06 372.984 1058.72 386.876 1068.18 399.551C1073.12 405.934 1078.52 412.518 1086.04 415.918C1091.26 418.385 1098.42 415.685 1099.97 409.926C1101.56 410.176 1103.17 410.393 1104.8 410.609C1113.62 411.351 1122.47 409.984 1131.07 408.101C1136.34 406.776 1141.87 405.909 1146.63 403.134C1153.11 399.451 1158.79 394.534 1164.23 389.467C1152.88 461.775 1141.76 534.517 1119.76 604.525C1111.81 631.267 1098.96 656.8 1080.6 677.925C1064.22 697.042 1043.56 712.283 1020.96 723.275C1007.07 729.925 992.524 735.175 977.615 739.017C973.415 740.084 969.032 740.667 965.182 742.792C929.507 732.85 893.257 724.992 857.832 714.125C843.165 709.267 827.932 704.475 815.649 694.75C816.324 673.083 815.182 651.25 810.957 629.958C805.882 604.308 795.174 579.075 776.59 560.266C758.148 541.258 733.107 529.966 707.507 524.416C694.007 521.508 680.249 519.724 666.449 519.274C655.641 518.691 644.807 518.741 633.999 519.266C601.291 520.483 568.291 525.799 538.024 538.699C512.974 549.324 490.257 566.007 473.941 587.924C459.558 607.007 450.133 629.474 444.674 652.649C442.691 660.524 441.932 668.724 438.991 676.349C434.116 689.807 424.791 701.224 413.899 710.316C396.657 724.608 376.216 734.266 355.824 743.141C326.699 755.583 296.766 766.133 268.074 779.608C248.466 788.85 229.249 799.316 212.274 812.916C191.441 829.466 174.732 851.241 164.291 875.724C155.474 896.407 151.799 919.091 152.674 941.516C152.799 946.374 153.341 951.208 153.841 956.041C130.808 917.466 119.874 873.149 112.649 829.199C103.149 769.391 100.257 708.782 98.099 648.341C96.891 605.516 95.232 562.574 88.682 520.174C86.099 503.866 83.89 487.399 84.574 470.841C85.632 442.133 89.866 413.666 93.799 385.241C104.132 392.199 114.599 399.158 123.516 407.941C124.316 413.041 127.508 417.316 130.816 421.108C132.749 423.366 135.291 425.033 138.183 425.791C140.916 428.266 143.866 430.791 147.516 431.766C154.958 433.933 161.883 428.958 166.399 423.516C168.916 423.024 171.391 422.241 173.582 420.899C187.165 413.249 197.849 401.224 205.69 387.891C215.582 372.474 222.14 355.241 228.257 338.066C235.099 319.024 240.374 299.399 248.465 280.816C251.032 275.108 253.932 269.399 258.29 264.816C261.34 261.508 265.607 259.858 269.423 257.641C292.523 244.633 314.798 229.708 333.79 211.099C346.307 198.666 357.407 184.257 363.348 167.482C367.723 154.615 369.065 140.007 363.765 127.207C358.115 113.465 347.29 102.565 335.573 93.79C338.433 92.852 341.349 92.11 344.299 91.527ZM340.233 255.01C317.65 260.635 295.641 268.385 274.066 277.077C270.108 278.944 265.774 280.11 262.116 282.544C262.033 282.969 261.883 283.819 261.799 284.244C264.966 283.336 268.032 282.144 271.116 280.977C290.749 273.544 310.808 267.227 331.116 261.91C351.491 256.86 372.408 252.46 393.524 253.71C401.757 254.343 410.532 256.102 416.891 261.735C427.049 271.902 436.358 282.877 445.508 293.935C454.7 304.993 463.6 316.343 473.866 326.435C477.908 330.227 482.049 334.093 487.116 336.477C490.316 338.035 494.108 338.41 496.883 340.802C501.333 344.544 504.516 349.519 507.483 354.46C513.8 365.493 518.275 377.527 521.391 389.835C525.933 408.927 527.399 429.16 522.708 448.377C521.9 452.01 520.258 455.419 519.558 459.085C519.933 459.143 520.683 459.268 521.058 459.327C523.15 455.985 524.166 452.102 525.4 448.394C530.992 428.886 530.183 408.036 525.825 388.369C522.5 373.969 517.55 359.769 509.625 347.211C506.692 342.778 503.483 338.369 499.158 335.194C495.916 332.752 491.641 332.494 488.241 330.344C481.149 325.986 475.524 319.719 469.991 313.594C455.283 296.886 441.724 279.169 426.266 263.127C423.274 259.994 420.358 256.685 416.591 254.469C409.199 249.952 400.424 248.486 391.899 248.119C374.433 247.552 357.141 250.952 340.233 255.01ZM937.916 272.077C935.049 274.427 933.233 277.769 930.641 280.394C920.999 291.494 907.616 299.019 893.308 302.186C871.591 307.294 849.241 308.686 827.15 311.269C813.692 313.019 799.833 313.111 786.9 317.652C767.292 324.235 751.85 339.56 741.325 356.977C728.042 379.244 720.908 404.61 716.625 430.027C714.642 443.769 712.742 457.627 712.942 471.535C713.317 471.618 714.067 471.785 714.442 471.86C715.175 468.785 714.984 465.602 715.275 462.477C716.475 446.994 718.85 431.602 722.292 416.46C725.95 400.827 730.792 385.393 737.9 370.96C743.392 359.618 750.35 348.885 759.208 339.877C767.858 331.177 778.425 324.177 790.241 320.66C799.641 317.652 809.574 317.218 819.299 315.993C841.566 313.343 863.991 311.626 886.024 307.276C897.707 304.801 909.499 301.284 919.257 294.159C926.89 288.542 933.49 281.492 938.757 273.642C939.549 273.11 938.691 271.085 937.916 272.077ZM308.549 318.452C275.124 324.752 244.082 342.602 221.641 368.135C201.641 390.735 188.424 419.277 184.349 449.193C179.749 481.56 185.691 515.351 201.232 544.135C199.724 572.56 212.107 601.377 234.024 619.593C254.207 636.685 280.207 645.16 306.007 649.068C325.215 651.743 344.932 653.41 364.124 649.643C381.149 646.485 397.382 639.535 411.674 629.801C434.641 614.118 452.241 591.426 463.966 566.368C465.391 563.035 467.349 559.801 467.608 556.101C480.783 535.793 489.416 512.493 492.033 488.393C495.55 457.618 489.716 425.801 475.175 398.435C460.5 370.527 437.1 347.318 409.067 332.893C378.441 316.935 342.416 311.952 308.549 318.452ZM608.824 335.46C598.241 335.877 587.599 336.56 577.224 338.802C573.916 339.677 570.441 340.385 567.541 342.285C566.358 343.11 564.691 344.593 565.808 346.127C567.758 348.744 571.175 349.502 574.125 350.427C587.808 353.944 602.033 354.444 616.083 354.752C630.3 354.302 644.733 353.96 658.508 350.044C661.175 349.177 664.233 348.219 665.783 345.694C666.175 343.244 663.45 341.994 661.641 341.127C653.674 337.96 645.041 337.21 636.599 336.252C627.358 335.61 618.091 335.06 608.824 335.46ZM913.491 337.385C873.516 343.602 836.583 366.477 812.891 399.227C797.233 420.66 787.216 446.202 784.258 472.594C781.516 495.969 784.266 519.902 791.9 542.144C792.017 546.902 793.683 551.411 795.075 555.911C802.592 579.628 813.567 602.486 829.1 622.028C844.542 641.503 865.542 657.053 889.65 663.795C907.933 669.037 927.375 669.445 946.083 666.445C977.266 661.995 1007.73 649.72 1031.76 629.103C1054.7 609.695 1071.5 583.586 1081.43 555.345C1082.4 552.095 1084.03 548.853 1083.55 545.37C1086.6 537.153 1088.89 528.662 1090.58 520.062C1091.43 514.72 1092.74 509.337 1092.57 503.912C1093.69 495.004 1093.67 485.904 1092.57 476.987C1091.98 463.595 1088.59 450.354 1084.19 437.72C1069.81 397.487 1037.95 363.962 998.524 347.52C982.841 341.028 966.041 336.628 949.057 335.995C942.099 335.278 935.024 335.245 928.065 335.978C923.183 335.685 918.324 336.793 913.491 337.385ZM110.474 489.935C107.049 493.835 106.774 499.26 106.049 504.16C104.741 516.077 104.874 528.16 106.374 540.052C106.932 543.51 107.524 547.102 109.266 550.202C109.899 551.102 110.708 551.277 111.699 550.719C113.007 549.286 113.491 547.344 113.982 545.519C115.974 536.619 116.249 527.452 116.207 518.361C116.074 510.536 115.565 502.636 113.682 495.019C113.283 492.96 112.008 491.293 110.474 489.935ZM123.716 580.993C120.458 590.901 119.941 601.418 118.616 611.693C116.308 634.71 113.916 657.751 113.308 680.893C112.6 698.951 113.225 717.043 114.491 735.068C117.216 768.568 123.199 802.026 135.008 833.593C139.116 844.035 143.391 854.551 149.741 863.868C151.108 865.643 152.616 868.201 155.241 867.818C160.274 867.493 162.558 861.918 162.891 857.551C163.758 846.434 158.816 835.968 153.758 826.401C147 814.509 144.766 800.818 142.083 787.593C138.925 769.876 136.825 751.985 134.958 734.085C130.925 691.735 128.4 649.235 127.466 606.702C126.924 598.385 126.966 589.944 125.024 581.802C124.699 581.602 124.041 581.193 123.716 580.993Z" fill="#FFF4D2" stroke="#FFF4D2" stroke-width="0.4167"/>
</g>
<g id="ear three">
<path id="Vector_6" d="M976.666 80.285C981.158 76.51 985.916 73.068 990.774 69.785C1012.16 83.602 1032.88 98.735 1050.7 117.035C1067.18 134.027 1081.44 153.868 1088.76 176.593C1092.01 186.093 1093.24 196.085 1094.95 205.935C1099.65 234.227 1104.67 262.468 1108.8 290.852C1111.77 311.844 1114.45 332.96 1114.26 354.202C1114.25 371.927 1111.76 389.894 1104.78 406.294C1104.04 407.686 1104.07 409.219 1104.8 410.611C1103.17 410.394 1101.56 410.178 1099.97 409.928C1087.71 408.02 1076.73 400.478 1070.02 390.12C1061.33 377.012 1057.62 361.353 1055.42 345.978C1053.4 328.528 1047.38 311.836 1040.21 295.911C1027.88 268.936 1011.97 243.769 994.991 219.519C977.341 194.561 958.408 170.502 938.224 147.544C940.074 127.977 949.116 109.644 961.832 94.861C966.383 89.618 971.358 84.752 976.666 80.285Z" fill="#231F20" stroke="#231F20" stroke-width="0.4167"/>
</g>
<g id="ear two">
<path id="Vector_7" d="M299.116 72.202C303.891 74.452 308.608 76.819 313.224 79.377C320.966 83.71 328.582 88.302 335.574 93.794C347.291 102.569 358.116 113.469 363.766 127.211C369.066 140.011 367.724 154.619 363.349 167.486C357.407 184.261 346.307 198.669 333.791 211.103C314.799 229.711 292.524 244.636 269.424 257.645C265.607 259.862 261.341 261.512 258.291 264.82C253.933 269.403 251.033 275.112 248.466 280.82C240.374 299.403 235.099 319.028 228.258 338.07C222.141 355.245 215.583 372.478 205.691 387.895C197.849 401.228 187.166 413.253 173.583 420.903C171.391 422.245 168.916 423.028 166.4 423.52C174.317 413.395 179.217 401.328 183.417 389.287C191.35 365.695 196.15 341.17 199.742 316.57C201.292 306.395 201.875 296.045 204.567 286.07C207.734 273.787 213.5 262.128 221.75 252.47C231.683 240.645 244.767 232.028 258.175 224.637C276.758 214.32 296.8 206.087 313.142 192.195C320.084 186.237 326.2 179.228 330.667 171.228C334.384 164.603 337.334 157.336 337.717 149.67C337.934 146.878 337.925 144.07 337.717 141.27C337.034 130.678 333.092 120.57 328.2 111.245C320.524 96.86 310.141 84.135 299.116 72.202Z" fill="#F4DC9F" stroke="#F4DC9F" stroke-width="0.4167"/>
</g>
<g id="ear ">
<path id="Vector_8" d="M950.758 97.168C954.341 96.035 957.958 94.218 961.833 94.86C949.116 109.643 940.075 127.977 938.225 147.543C958.408 170.501 977.342 194.56 994.992 219.518C1011.97 243.768 1027.88 268.935 1040.21 295.91C1047.38 311.835 1053.4 328.527 1055.42 345.977C1057.62 361.352 1061.33 377.01 1070.03 390.119C1076.73 400.477 1087.71 408.019 1099.97 409.927C1098.42 415.685 1091.26 418.385 1086.04 415.919C1078.52 412.519 1073.12 405.936 1068.18 399.552C1058.72 386.877 1051.06 372.985 1043.93 358.902C1031.63 334.102 1020.82 308.535 1012.06 282.269C1004.34 260.194 989.267 241.852 974.417 224.194C954.392 200.794 933.792 177.394 919.25 150.044C915.5 143.019 913.475 134.952 914.467 126.986C915.134 124.911 915.959 122.886 916.859 120.894C919.101 115.477 923.792 111.627 928.217 108.002C935.133 103.31 942.774 99.668 950.758 97.168Z" fill="#F4DC9F" stroke="#F4DC9F" stroke-width="0.4167"/>
</g>
<g id="spot thirty three">
<path id="Vector_9" d="M337.716 149.668C336.766 146.918 336.774 144.026 337.716 141.268C337.924 144.068 337.933 146.877 337.716 149.668Z" fill="#07060E" stroke="#07060E" stroke-width="0.4167"/>
</g>
<g id="spot thirty two">
<path id="Vector_10" d="M340.233 255.01C357.141 250.952 374.433 247.552 391.9 248.118C400.425 248.485 409.2 249.951 416.592 254.468C420.359 256.685 423.275 259.993 426.267 263.126C441.725 279.168 455.284 296.884 469.992 313.593C475.525 319.718 481.15 325.985 488.242 330.343C491.642 332.493 495.917 332.751 499.159 335.193C503.484 338.368 506.692 342.776 509.626 347.21C517.551 359.768 522.501 373.968 525.826 388.368C530.184 408.035 530.993 428.885 525.401 448.393C524.168 452.101 523.151 455.985 521.059 459.326C520.684 459.268 519.934 459.143 519.559 459.084C520.259 455.417 521.901 452.009 522.709 448.376C527.401 429.159 525.934 408.926 521.392 389.834C518.275 377.526 513.8 365.492 507.484 354.459C504.517 349.517 501.334 344.542 496.884 340.801C494.109 338.409 490.317 338.034 487.117 336.476C482.05 334.093 477.909 330.226 473.867 326.434C463.6 316.342 454.7 304.992 445.509 293.934C436.359 282.876 427.051 271.901 416.892 261.734C410.534 256.101 401.759 254.342 393.525 253.709C372.408 252.459 351.492 256.859 331.117 261.909C310.809 267.226 290.75 273.542 271.117 280.976C268.034 282.143 264.967 283.334 261.8 284.243C261.883 283.818 262.033 282.968 262.117 282.543C265.775 280.11 270.109 278.943 274.067 277.076C295.641 268.385 317.649 260.635 340.233 255.01Z" fill="#F4DC9F" stroke="#F4DC9F" stroke-width="0.4167"/>
</g>
<g id="spot thirty one">
<path id="Vector_11" d="M937.916 272.077C938.691 271.085 939.549 273.11 938.758 273.644C933.491 281.494 926.891 288.544 919.258 294.161C909.5 301.286 897.708 304.803 886.025 307.278C863.992 311.628 841.567 313.345 819.3 315.995C809.575 317.22 799.642 317.653 790.242 320.662C778.425 324.179 767.859 331.179 759.209 339.879C750.351 348.887 743.392 359.621 737.901 370.962C730.793 385.395 725.951 400.829 722.293 416.462C718.851 431.604 716.476 446.995 715.276 462.479C714.984 465.604 715.176 468.787 714.443 471.862C714.068 471.787 713.318 471.62 712.943 471.537C712.743 457.629 714.643 443.77 716.626 430.029C720.909 404.612 728.043 379.246 741.326 356.979C751.851 339.562 767.293 324.237 786.901 317.654C799.834 313.112 813.693 313.021 827.151 311.271C849.243 308.688 871.593 307.296 893.309 302.188C907.617 299.021 921.001 291.496 930.642 280.396C933.233 277.768 935.049 274.427 937.916 272.077Z" fill="#F4DC9F" stroke="#F4DC9F" stroke-width="0.4167"/>
</g>
<g id="eye ten">
<path id="Vector_12" d="M308.549 318.452C342.416 311.952 378.441 316.935 409.066 332.894C437.099 347.319 460.499 370.527 475.174 398.436C489.716 425.803 495.549 457.619 492.032 488.394C489.415 512.494 480.782 535.794 467.607 556.102C453.065 577.852 433.215 596.085 409.99 608.202C380.907 623.577 346.832 629.16 314.34 624.119C287.198 620.044 261.265 608.461 240.015 591.102C224.173 578.194 210.898 562.144 201.232 544.135C185.69 515.352 179.749 481.56 184.349 449.193C188.424 419.276 201.641 390.735 221.641 368.135C244.083 342.602 275.124 324.752 308.549 318.452ZM306.941 370.91C300.949 373.035 294.724 374.893 289.391 378.443C277.883 384.268 267.649 392.61 259.149 402.31C239.691 424.435 230.482 455.085 234.449 484.285C237.991 513.227 254.532 540.177 278.549 556.66C303.124 573.927 335.366 579.485 364.366 571.802C391.649 564.827 415.616 546.135 429.208 521.477C443.858 495.452 446.325 463.027 436.016 435.019C426.558 408.827 406.108 386.727 380.583 375.536L380.441 375.253C374.166 372.536 367.683 370.295 361.074 368.545C343.316 363.935 324.241 364.877 306.941 370.91Z" fill="#6D6E71" stroke="#6D6E71" stroke-width="0.4167"/>
</g>
<g id="spot thirty">
<path id="Vector_13" d="M608.824 335.46C618.091 335.06 627.357 335.61 636.599 336.252C645.041 337.21 653.674 337.96 661.641 341.127C663.449 341.994 666.174 343.244 665.783 345.694C664.233 348.219 661.175 349.177 658.508 350.044C644.733 353.961 630.3 354.302 616.083 354.752C602.033 354.444 587.808 353.944 574.125 350.427C571.175 349.502 567.758 348.744 565.808 346.127C564.691 344.594 566.358 343.11 567.541 342.285C570.441 340.385 573.916 339.677 577.224 338.802C587.599 336.56 598.241 335.877 608.824 335.46Z" fill="white" stroke="white" stroke-width="0.4167"/>
</g>
<g id="eye nine">
<path id="Vector_14" d="M913.491 337.385C918.324 336.793 923.183 335.685 928.066 335.977C934.983 337.044 942.141 337.002 949.058 335.994C966.041 336.627 982.841 341.027 998.525 347.519C1037.95 363.961 1069.81 397.486 1084.19 437.719C1088.59 450.352 1091.98 463.594 1092.57 476.986C1091.71 480.436 1091.8 483.994 1092.06 487.519C1092.48 492.977 1091.16 498.527 1092.57 503.911C1092.74 509.336 1091.42 514.719 1090.58 520.061C1088.89 528.661 1086.6 537.153 1083.55 545.369C1073.83 570.469 1057.81 593.136 1036.98 610.227C1015.17 628.285 988.309 640.185 960.259 644.102C929.542 648.452 897.526 643.527 869.717 629.694C842.517 616.319 819.45 594.752 804.225 568.552C799.275 560.169 795.325 551.244 791.9 542.144C784.267 519.902 781.517 495.969 784.258 472.594C787.216 446.202 797.233 420.661 812.891 399.227C836.583 366.477 873.516 343.602 913.491 337.385ZM899.216 387.935L899.658 388.243C893.258 389.101 887.075 391.176 881.091 393.543C857.616 402.968 837.783 421.151 826.533 443.818C814.608 467.435 812.35 495.66 820.05 520.943C824.683 536.276 832.967 550.476 843.95 562.143C863.408 582.943 891.692 595.235 920.217 594.868C948.075 595.043 975.7 583.21 994.942 563.085C1016.99 540.627 1027.76 507.785 1023.35 476.635C1019.53 446.127 1001.18 417.985 975.058 401.852C964.541 395.469 953.008 390.327 940.808 388.335L941.291 388.093C927.474 385.135 913.066 385.227 899.216 387.935Z" fill="#58595B" stroke="#58595B" stroke-width="0.4167"/>
</g>
<g id="spot twentynine">
<path id="Vector_15" d="M928.066 335.977C935.024 335.244 942.099 335.277 949.058 335.994C942.141 337.002 934.983 337.043 928.066 335.977Z" fill="#40434A" stroke="#40434A" stroke-width="0.4167"/>
</g>
<g id="eye eight">
<path id="Vector_16" d="M306.941 370.91C324.241 364.877 343.316 363.935 361.074 368.543C367.682 370.293 374.166 372.535 380.441 375.251L380.583 375.534C380.683 375.726 380.875 376.117 380.975 376.309C402.95 387.592 419.842 408.109 426.808 431.792C435.633 460.909 429.116 494.259 409.408 517.542C391.425 539.6 362.808 552.442 334.366 551.092C303.366 550.225 273.549 532.392 258.041 505.542C242.833 480.209 241.041 447.467 253.216 420.575C259.616 406.375 269.524 393.717 282.008 384.375C284.9 382.25 288.025 380.442 290.808 378.158L289.391 378.441C294.724 374.893 300.949 373.035 306.941 370.91ZM326.341 401.293C311.699 403.835 298.133 412.118 289.258 424.051C281.125 434.734 276.858 448.259 277.416 461.676C277.758 476.901 284.516 491.734 295.424 502.293C305.557 512.235 319.449 518.168 333.599 518.901C348.716 519.726 364.074 514.426 375.457 504.459C382.982 497.992 388.732 489.559 392.24 480.292C397.348 466.309 397.082 450.392 391.248 436.667C385.206 422.084 373.04 410.2 358.315 404.517C348.241 400.418 337.033 399.602 326.341 401.293Z" fill="#414042" stroke="#414042" stroke-width="0.4167"/>
</g>
<g id="eye seven">
<path id="Vector_17" d="M380.974 376.31C380.874 376.118 380.682 375.727 380.582 375.535C406.107 386.727 426.557 408.827 436.015 435.018C446.323 463.026 443.857 495.451 429.207 521.476C415.615 546.134 391.649 564.826 364.365 571.801C335.365 579.484 303.123 573.926 278.548 556.659C254.531 540.176 237.99 513.226 234.448 484.284C230.481 455.084 239.69 424.434 259.148 402.309C267.648 392.609 277.881 384.267 289.39 378.442L290.807 378.159C288.024 380.442 284.899 382.251 282.007 384.376C269.524 393.718 259.615 406.376 253.215 420.576C241.04 447.468 242.832 480.209 258.04 505.543C273.548 532.393 303.365 550.226 334.365 551.093C362.807 552.443 391.423 539.601 409.407 517.543C429.115 494.26 435.632 460.91 426.807 431.793C419.841 408.11 402.949 387.593 380.974 376.31Z" fill="#231F20" stroke="#231F20" stroke-width="0.4167"/>
</g>
<g id="spot twentyeight">
<path id="Vector_18" d="M1177.38 375.835C1177.63 375.993 1178.12 376.293 1178.36 376.452C1181.41 387.902 1183.13 399.627 1184.43 411.385C1184.6 423.177 1185.08 434.993 1184.13 446.777C1181.65 481.394 1175.28 515.577 1171.68 550.077C1170.33 562.027 1169.32 574.019 1168.23 585.994C1167.91 589.744 1167.07 593.652 1168.52 597.286C1167.97 604.336 1167.46 611.394 1167 618.453C1167.27 615.011 1167.29 611.536 1166.58 608.161C1165.92 612.261 1165.97 616.461 1166.84 620.536C1165.59 648.128 1165.67 675.778 1167.31 703.353C1167.56 711.703 1168.57 720.036 1168.1 728.395C1167.19 758.245 1160.74 787.712 1151.39 816.003C1141.45 845.603 1128.11 874.145 1110.95 900.253C1116.5 886.711 1120.81 872.336 1120.54 857.561C1120.46 842.711 1115.42 828.044 1106.71 816.061C1099.44 806.003 1090.15 797.519 1080.02 790.428C1058.75 775.57 1034.64 765.403 1010.28 756.82C995.432 751.587 980.315 747.145 965.182 742.795C969.032 740.67 973.415 740.087 977.615 739.02C992.523 735.178 1007.07 729.928 1020.96 723.278C1043.56 712.286 1064.21 697.045 1080.6 677.928C1098.97 656.803 1111.81 631.27 1119.76 604.528C1141.76 534.52 1152.88 461.778 1164.23 389.47C1168.81 385.118 1173.13 380.51 1177.38 375.835Z" fill="#F2DBAA" stroke="#F2DBAA" stroke-width="0.4167"/>
</g>
<g id="eye six">
<path id="Vector_19" d="M899.216 387.935C913.066 385.227 927.474 385.135 941.291 388.093L940.808 388.335C940.666 388.41 940.366 388.552 940.216 388.627C952.874 391.644 965.133 396.794 975.491 404.76C987.524 413.685 997.224 425.643 1003.66 439.168C1016.55 465.718 1015.5 498.476 1000.97 524.176C986.125 551.301 956.942 569.893 926.042 571.618C898.425 573.66 870.3 562.351 851.667 541.901C840.067 529.326 832.009 513.476 828.834 496.659C824.234 473.784 828.917 449.234 841.434 429.551C854.501 408.768 876.059 393.443 900.209 388.609C900.076 388.517 899.792 388.334 899.659 388.242L899.216 387.935ZM903.216 430.485C883.749 435.885 867.874 452.202 862.716 471.702C857.599 490.36 862.158 511.469 875.033 526.01C885.6 538.368 901.441 546.152 917.741 546.477C934.033 547.285 950.524 540.785 961.891 529.094C972.866 518.269 979.258 502.927 979.149 487.502C979.366 472.027 973.024 456.627 962.107 445.685C952.224 435.568 938.59 429.302 924.532 428.152L925.44 429.119C921.673 428.702 917.865 428.719 914.107 429.161L915.057 428.219C910.991 428.227 907.116 429.527 903.216 430.485Z" fill="#414042" stroke="#414042" stroke-width="0.4167"/>
</g>
<g id="eye five">
<path id="Vector_20" d="M881.091 393.543C887.074 391.176 893.258 389.101 899.658 388.243C899.791 388.335 900.075 388.518 900.208 388.61C876.058 393.443 854.5 408.768 841.433 429.552C828.916 449.235 824.233 473.785 828.833 496.66C832.008 513.477 840.066 529.327 851.666 541.902C870.299 562.352 898.424 573.66 926.041 571.619C956.941 569.894 986.124 551.302 1000.97 524.177C1015.5 498.477 1016.55 465.719 1003.66 439.169C997.224 425.644 987.524 413.686 975.49 404.761C965.132 396.794 952.873 391.644 940.215 388.628C940.365 388.553 940.665 388.411 940.807 388.336C953.007 390.328 964.54 395.469 975.057 401.853C1001.18 417.986 1019.53 446.128 1023.35 476.636C1027.76 507.786 1016.99 540.628 994.941 563.086C975.699 583.211 948.074 595.044 920.216 594.869C891.691 595.236 863.408 582.944 843.949 562.144C832.966 550.477 824.682 536.277 820.049 520.944C812.349 495.661 814.607 467.436 826.532 443.819C837.783 421.152 857.616 402.968 881.091 393.543Z" fill="#231F20" stroke="#231F20" stroke-width="0.4167"/>
</g>
<g id="eye four">
<path id="Vector_21" d="M326.341 401.293C337.033 399.601 348.241 400.418 358.316 404.518C373.041 410.201 385.208 422.085 391.249 436.668C397.082 450.393 397.349 466.31 392.241 480.293C388.733 489.56 382.983 497.993 375.458 504.46C364.075 514.427 348.716 519.727 333.6 518.902C319.45 518.169 305.558 512.235 295.425 502.294C284.517 491.736 277.758 476.902 277.417 461.677C276.859 448.26 281.125 434.735 289.259 424.052C298.133 412.118 311.699 403.835 326.341 401.293ZM303.083 413.568C295.1 418.835 289.925 428.018 289.541 437.568C289.116 446.151 292.508 454.835 298.683 460.81C304.325 466.41 312.208 469.61 320.158 469.543C319.45 475.06 321.466 480.926 326.041 484.251C331.116 488.226 338.716 488.451 343.983 484.709C348.966 481.426 351.533 475.067 350.375 469.234C349.742 464.926 346.867 461.309 343.358 458.892C348.108 453.2 350.875 445.85 350.616 438.4C350.608 428.25 344.958 418.45 336.391 413.108C326.466 406.677 312.824 406.885 303.083 413.568Z" fill="#231F20" stroke="#231F20" stroke-width="0.4167"/>
</g>
<g id="spot twentyseven">
<path id="Vector_22" d="M123.516 407.943C129.358 413.085 133.083 420.01 138.183 425.793C135.291 425.035 132.75 423.368 130.816 421.11C127.508 417.318 124.316 413.043 123.516 407.943Z" fill="#F2DA9F" stroke="#F2DA9F" stroke-width="0.4167"/>
</g>
<g id="eye three">
<path id="Vector_23" d="M303.083 413.568C312.825 406.885 326.466 406.676 336.391 413.11C344.958 418.452 350.608 428.252 350.616 438.402C350.874 445.852 348.108 453.202 343.358 458.894C346.866 461.311 349.741 464.927 350.375 469.236C351.533 475.069 348.967 481.428 343.983 484.711C338.716 488.453 331.116 488.228 326.041 484.253C321.466 480.928 319.449 475.061 320.158 469.545C312.208 469.612 304.325 466.412 298.683 460.812C292.508 454.837 289.116 446.154 289.541 437.57C289.924 428.018 295.099 418.835 303.083 413.568Z" fill="white" stroke="white" stroke-width="0.4167"/>
</g>
<g id="spot twentysix">
<path id="Vector_24" d="M1184.43 411.385C1190.24 432.918 1190.28 455.627 1187.18 477.593C1184.56 496.376 1180.53 514.918 1177.22 533.585C1173.38 554.677 1170.4 575.927 1168.52 597.285C1167.07 593.652 1167.91 589.743 1168.23 585.993C1169.32 574.018 1170.33 562.026 1171.68 550.076C1175.28 515.576 1181.65 481.393 1184.13 446.776C1185.08 434.993 1184.6 423.177 1184.43 411.385Z" fill="#FFF4D2" stroke="#FFF4D2" stroke-width="0.4167"/>
</g>
<g id="eye two">
<path id="Vector_25" d="M903.216 430.485C907.116 429.527 910.991 428.227 915.058 428.218L914.108 429.16C907.175 430.477 900.65 433.91 895.841 439.102C888.324 446.944 885.158 458.652 887.708 469.21C889.716 478.385 895.991 486.285 904.116 490.877C903.333 494.402 902.958 498.185 904.216 501.652C906.308 508.06 912.641 512.81 919.416 512.86C926.866 513.252 934.066 507.877 935.899 500.668C936.816 497.451 936.391 494.085 935.716 490.876C942.166 487.126 947.599 481.451 950.424 474.476C954.624 464.534 953.541 452.559 947.532 443.576C942.59 435.951 934.374 430.676 925.44 429.118L924.532 428.151C938.59 429.301 952.224 435.568 962.107 445.684C973.024 456.626 979.365 472.026 979.149 487.501C979.257 502.926 972.866 518.268 961.891 529.093C950.524 540.785 934.033 547.285 917.741 546.476C901.441 546.151 885.599 538.368 875.033 526.009C862.158 511.467 857.6 490.359 862.716 471.701C867.874 452.202 883.749 435.885 903.216 430.485Z" fill="#231F20" stroke="#231F20" stroke-width="0.4167"/>
</g>
<g id="eye one">
<path id="Vector_26" d="M895.841 439.102C900.649 433.91 907.174 430.477 914.108 429.16C917.866 428.718 921.675 428.702 925.441 429.118C934.374 430.676 942.591 435.951 947.533 443.576C953.541 452.559 954.625 464.534 950.425 474.476C947.6 481.451 942.167 487.126 935.717 490.876C936.392 494.084 936.817 497.451 935.9 500.668C934.067 507.876 926.867 513.251 919.417 512.86C912.642 512.81 906.309 508.06 904.217 501.652C902.959 498.185 903.334 494.402 904.117 490.877C895.992 486.285 889.717 478.385 887.709 469.21C885.158 458.652 888.324 446.943 895.841 439.102Z" fill="white" stroke="white" stroke-width="0.4167"/>
</g>
<g id="spot twentyfive">
<path id="Vector_27" d="M1092.06 487.518C1091.8 483.993 1091.71 480.435 1092.57 476.985C1093.67 485.902 1093.69 495.002 1092.57 503.91C1091.16 498.527 1092.47 492.977 1092.06 487.518Z" fill="#46484E" stroke="#46484E" stroke-width="0.4167"/>
</g>
<g id="spot twentyfour">
<path id="Vector_28" d="M110.474 489.935C112.007 491.293 113.282 492.96 113.682 495.018C115.565 502.635 116.074 510.535 116.207 518.36C116.249 527.452 115.974 536.618 113.982 545.518C113.49 547.343 113.007 549.285 111.699 550.718C110.707 551.276 109.899 551.101 109.266 550.201C107.524 547.101 106.933 543.509 106.374 540.051C104.874 528.159 104.741 516.076 106.049 504.159C106.774 499.26 107.049 493.835 110.474 489.935Z" fill="white" stroke="white" stroke-width="0.4167"/>
</g>
<g id="moth four">
<path id="Vector_29" d="M538.024 538.702C568.291 525.802 601.291 520.485 633.999 519.269C639.599 520.519 645.349 519.927 651.032 520.027C656.174 519.96 661.39 520.502 666.449 519.277C680.249 519.727 694.007 521.51 707.507 524.419C733.107 529.969 758.149 541.261 776.59 560.269C795.173 579.077 805.882 604.311 810.957 629.961C815.182 651.253 816.324 673.086 815.649 694.753C827.932 704.478 843.166 709.27 857.832 714.128C893.257 724.995 929.507 732.853 965.182 742.795C980.315 747.145 995.432 751.587 1010.28 756.82C1034.64 765.403 1058.75 775.57 1080.02 790.428C1066.56 815.478 1050.42 839.178 1031.27 860.228C1009.78 883.861 984.007 903.87 954.957 917.328C921.565 933.086 884.282 939.961 847.465 938.895C849.307 936.47 851.098 933.145 849.257 930.195C847.074 925.845 840.057 925.845 837.999 930.312C836.366 933.12 837.949 936.187 839.474 938.645C802.874 936.862 766.891 928.262 732.441 916.062C711.491 908.612 691.133 899.629 671.091 890.029C664.008 886.596 657.016 882.879 649.474 880.529C649.374 880.162 649.166 879.437 649.066 879.079C650.491 860.821 650.524 842.487 650.633 824.187C650.541 803.062 650.275 781.912 648.4 760.862C647.958 755.512 647.2 750.179 645.775 745.004C661.35 745.021 677.4 742.762 691.258 735.262C700.891 730.112 708.775 722.012 714.083 712.504C716.733 708.129 718.6 703.312 720.05 698.421C723.308 687.596 724.7 676.304 725.033 665.038C725.291 654.03 725.808 642.921 724.016 632.005C722.283 621.055 717.791 610.047 709.191 602.705C700.674 595.28 689.458 591.997 678.491 590.372C667.758 588.814 656.874 588.747 646.066 589.055C637.183 589.563 628.291 588.58 619.416 589.205C604.608 590.163 589.549 593.047 576.516 600.422C566.908 605.855 558.791 614.305 554.883 624.739C551.6 633.231 550.791 642.514 551.541 651.539C553.324 667.389 555.716 683.322 561.149 698.389C562.899 703.656 565.149 708.772 568.182 713.439C574.232 723.664 583.382 732.064 594.307 736.822C609.924 743.747 627.332 744.855 644.199 745.022C641.932 752.33 641.541 760.014 640.949 767.589C639.491 787.547 639.241 807.564 639.182 827.564C639.307 846.472 639.69 865.381 641.074 884.247C629.041 891.38 617.982 900.014 606.482 907.947C578.749 927.614 549.882 945.822 519.332 960.805C490.34 975.038 459.94 986.497 428.54 994.155C392.09 1003.15 354.348 1006.98 316.848 1004.88C283.298 1002.83 250.048 995.18 219.156 981.872C195.289 971.555 172.831 957.947 152.673 941.522C151.798 919.097 155.473 896.414 164.29 875.73C174.732 851.247 191.44 829.472 212.273 812.922C229.248 799.322 248.465 788.855 268.073 779.614C296.765 766.139 326.698 755.589 355.823 743.147C376.215 734.272 396.656 724.614 413.898 710.322C424.79 701.23 434.115 689.814 438.99 676.355C441.932 668.73 442.69 660.53 444.673 652.655C450.131 629.48 459.556 607.013 473.94 587.93C490.258 566.01 512.974 549.327 538.024 538.702ZM618.524 561.935C601.724 563.593 584.891 567.485 569.941 575.527C557.466 582.135 546.416 591.435 537.908 602.71C521.908 623.577 514.366 649.368 508.958 674.727C503.691 699.402 498.233 725.202 482.616 745.719C467.358 766.502 444.683 780.286 421.391 790.427C404.841 797.369 388.416 804.669 372.758 813.485C336.558 833.568 303 858.452 273.316 887.327C272.099 888.577 270.583 889.794 270.308 891.635C271.708 891.993 272.75 891.035 273.666 890.143C283.099 880.668 293.274 871.968 303.683 863.585C337.7 836.385 375.366 813.602 415.725 797.152C423.875 793.852 431.883 790.235 439.692 786.185C458.109 776.452 475.475 763.735 487.609 746.56C497.684 732.61 503.959 716.293 508.151 699.702C514.051 676.352 517.543 652.135 527.643 630.069C532.835 618.236 539.851 607.136 548.751 597.736C557.693 588.461 568.593 581.111 580.509 576.211C598.292 568.836 617.734 566.294 636.867 566.403C653.459 566.161 670.134 567.22 686.425 570.486C697.033 572.503 707.508 575.594 717.167 580.503C727.575 585.528 736.859 592.97 743.75 602.278C753.9 616.32 757.983 633.828 758.475 650.928C758.917 662.595 757.333 674.228 757.783 685.895C758.091 704.787 761.708 724.345 772.5 740.212C780.075 751.595 791.383 759.879 803.383 766.12C819.866 774.203 837.566 779.395 855.258 784.103C872.858 789.086 890.958 791.97 908.658 796.536C936.808 803.603 961.866 819.136 985.15 835.986C987.292 837.411 989.317 839.619 992.142 839.361C989.459 835.436 984.942 833.478 981.375 830.519C962.558 817.152 942.867 804.386 920.85 796.969C902.433 790.611 883.1 787.611 864.308 782.611C846.025 777.719 827.641 772.728 810.383 764.844C797.133 758.836 784.675 750.202 776.366 738.077C772.249 731.735 768.991 724.81 766.883 717.552C762.058 700.769 761.95 683.077 763.033 665.785C764.233 646.002 762.425 625.235 752.825 607.535C747.042 596.377 738 587.068 727.392 580.41C709.809 569.26 688.967 564.843 668.542 562.577C651.933 560.877 635.158 560.585 618.524 561.935ZM550.466 759.543C546.149 761.21 545.241 767.618 548.966 770.393C552.641 773.626 559.174 770.818 559.283 765.901C559.858 761.352 554.616 757.568 550.466 759.543ZM704.691 760.368C700.258 761.218 698.408 767.126 701.224 770.518C703.974 774.435 710.991 773.26 712.232 768.585C713.974 764.102 709.291 759.027 704.691 760.368ZM714.099 799.06C716.591 801.577 719.824 803.102 722.799 804.952C735.691 812.669 749.099 819.735 763.474 824.269C770.482 826.327 777.932 828.002 785.249 826.677C789.507 826.002 793.407 824.002 797.632 823.127C808.215 820.81 819.157 820.11 829.94 821.202C846.907 822.727 863.957 826.469 879.09 834.51C882.765 836.385 885.923 839.085 889.557 841.043C888.415 839.551 887.09 838.218 885.532 837.201C881.365 834.351 877.057 831.643 872.415 829.643C854.998 822.043 835.848 818.535 816.873 819.076C807.456 819.168 798.006 820.609 789.173 823.943C780.598 827.16 771.248 825.143 762.781 822.635C748.973 818.177 735.964 811.585 723.531 804.193C720.416 802.418 717.524 800.202 714.099 799.06ZM498.858 800.41C494.516 801.593 492.875 807.61 496.066 810.81C499.099 814.393 505.674 812.935 506.841 808.36C508.508 803.718 503.474 798.743 498.858 800.41ZM755.474 801.977C751.282 803.91 750.907 810.494 754.824 812.91C758.524 815.66 764.482 812.977 764.724 808.318C765.524 803.435 759.716 799.627 755.474 801.977ZM575.299 806.918C570.499 808.543 570.074 816.035 574.557 818.285C578.29 820.685 583.957 817.777 583.99 813.277C584.624 808.718 579.424 805.018 575.299 806.918ZM679.583 807.86C674.891 809.027 673.516 815.793 677.308 818.743C680.941 822.326 687.975 819.285 687.758 814.16C688.116 809.943 683.566 806.46 679.583 807.86ZM515.358 825.277C511.1 826.994 510.308 833.469 514.083 836.127C517.75 839.227 523.991 836.535 524.325 831.769C525.008 827.085 519.599 823.152 515.358 825.277ZM738.908 826.26C734.441 827.793 733.433 834.402 737.208 837.202C740.95 840.494 747.633 837.51 747.525 832.494C747.858 828.093 742.983 824.543 738.908 826.26ZM477.091 831.202C472.441 832.152 470.749 838.677 474.199 841.852C477.391 845.319 483.974 843.602 484.841 838.894C486.191 834.427 481.516 829.885 477.091 831.202ZM777.874 832.727C773.541 834.402 772.766 841.027 776.649 843.619C780.241 846.527 786.441 844.019 786.741 839.327C787.624 834.577 782.158 830.568 777.874 832.727ZM412.916 837.802C408.433 839.66 408.008 846.144 411.774 848.977C415.032 847.085 418.399 845.36 421.974 844.169C422.166 839.535 417.274 835.768 412.916 837.802ZM556.374 837.91C552.174 839.835 551.682 846.318 555.574 848.835C559.232 851.752 565.432 848.902 565.524 844.202C566.191 839.427 560.591 835.668 556.374 837.91ZM697.999 838.727C693.432 839.927 692.066 846.56 695.682 849.552C699.065 852.835 705.732 850.644 706.165 845.827C707.166 841.31 702.299 837.193 697.999 838.727ZM842.066 838.635C837.599 839.552 835.849 845.518 838.774 848.893C841.657 852.626 848.307 851.426 849.682 846.885C851.491 842.335 846.758 837.177 842.066 838.635ZM561.091 853.51C539.616 859.168 518.416 865.952 497.866 874.377C468.174 886.744 442.324 906.31 417.041 925.835C420.874 924.443 423.724 921.377 427.141 919.26C448.499 903.452 470.324 887.86 494.549 876.693C494.424 879.385 494.099 882.643 496.474 884.56C499.891 887.885 506.507 885.677 507.016 880.86C507.808 877.502 505.049 875.102 502.824 873.135C525.266 864.118 548.407 856.91 571.866 851.052C568.141 851.21 564.683 852.693 561.091 853.51ZM704.408 851.76C705.916 853.235 707.616 854.502 709.408 855.643C723.1 864.951 738.216 873.21 754.891 875.26C752.599 877.477 751.033 880.977 752.799 883.993C754.832 888.193 761.482 888.443 763.799 884.393C765.732 881.46 764.382 877.876 762.291 875.476C772.449 875.009 782.499 876.809 792.616 877.334C794.341 878.901 796.033 880.967 798.574 881.084C801.132 881.401 803.416 879.242 805.991 879.942C814.183 881.567 822.224 883.942 830.033 886.917C834.125 888.5 837.783 891.009 841.941 892.459C831.158 884.492 817.816 881.042 804.949 878.051C805.399 875.709 806.024 872.968 804.332 870.951C802.182 867.768 797.157 867.468 794.607 870.301C793.024 871.768 792.899 874.026 792.64 876.034C788.232 875.517 783.79 875.309 779.398 874.701C773.565 874.334 767.715 874.543 761.873 874.509C744.215 874.276 727.59 866.817 713.081 857.234C710.233 855.343 707.474 853.277 704.408 851.76ZM457.183 867.81C453.041 869.61 452.358 875.885 456 878.543C459.6 881.66 466.133 879.035 466.275 874.176C466.983 869.418 461.399 865.602 457.183 867.81ZM557.174 873.777C552.782 875.119 551.366 881.452 554.866 884.485C558.241 887.927 565.033 885.727 565.483 880.827C566.491 876.252 561.474 872.202 557.174 873.777ZM697.074 875.285C692.541 877.268 692.449 884.552 696.966 886.618C700.966 888.926 706.574 885.576 706.233 880.918C706.458 876.36 701.033 873.168 697.074 875.285ZM381.991 880.227C377.449 881.852 376.633 888.535 380.608 891.227C384.15 894.044 390.033 891.744 390.666 887.235C391.824 882.552 386.316 878.177 381.991 880.227ZM872.883 881.168C868.25 882.376 866.8 889.143 870.625 892.076C874.008 895.284 880.35 893.118 881 888.493C882.058 883.968 877.274 879.627 872.883 881.168ZM522.074 898.66C517.957 900.01 516.416 905.927 519.599 908.977C522.799 912.76 529.874 910.819 530.466 905.819C531.574 901.16 526.491 896.844 522.074 898.66ZM733.083 899.66C728.783 900.835 726.966 906.81 730.158 910.043C733.183 913.718 739.966 912.201 741.025 907.518C742.516 902.927 737.658 898.102 733.083 899.66ZM457.891 911.185C453.858 912.41 452.191 917.902 454.958 921.127C457.758 925.144 464.775 923.869 466.008 919.144C467.774 914.393 462.574 909.36 457.891 911.185ZM798.066 912.093C793.583 912.71 791.241 918.551 794.058 922.085C796.775 926.327 804.325 925.052 805.316 920.052C806.708 915.727 802.466 911.093 798.066 912.093ZM409.191 931.293C411.749 929.76 414.133 927.951 416.591 926.26C413.116 924.768 409.691 927.952 409.191 931.293ZM408.783 932.327C409.55 936.46 413.841 939.927 418.041 937.935C423.274 935.993 422.899 927.793 417.683 926.035C414.858 928.327 411.799 930.294 408.783 932.327Z" fill="#58595B" stroke="#58595B" stroke-width="0.4167"/>
</g>
<g id="spot twentythree">
<path id="Vector_30" d="M633.999 519.268C644.807 518.743 655.641 518.693 666.449 519.276C661.391 520.501 656.174 519.959 651.032 520.026C645.349 519.927 639.599 520.518 633.999 519.268Z" fill="#46484E" stroke="#46484E" stroke-width="0.4167"/>
</g>
<g id="spot twentytwo">
<path id="Vector_31" d="M791.899 542.143C795.324 551.243 799.274 560.168 804.224 568.551C819.449 594.751 842.516 616.318 869.716 629.693C897.524 643.526 929.541 648.451 960.258 644.101C988.308 640.184 1015.17 628.284 1036.97 610.226C1057.81 593.134 1073.83 570.468 1083.55 545.368C1084.03 548.851 1082.4 552.093 1081.43 555.343C1071.5 583.585 1054.7 609.693 1031.76 629.101C1007.73 649.718 977.266 661.993 946.083 666.443C927.375 669.443 907.933 669.035 889.65 663.793C865.542 657.051 844.542 641.501 829.1 622.026C813.567 602.484 802.592 579.626 795.075 555.909C793.683 551.41 792.016 546.902 791.899 542.143Z" fill="#F4DC9F" stroke="#F4DC9F" stroke-width="0.4167"/>
</g>
<g id="spot twentyone">
<path id="Vector_32" d="M201.233 544.135C210.9 562.143 224.175 578.193 240.016 591.102C261.266 608.46 287.199 620.044 314.341 624.119C346.833 629.161 380.908 623.577 409.991 608.202C433.216 596.085 453.066 577.852 467.608 556.102C467.35 559.802 465.391 563.035 463.966 566.369C452.241 591.427 434.641 614.119 411.674 629.802C397.382 639.535 381.149 646.485 364.124 649.644C344.932 653.411 325.216 651.744 306.007 649.069C280.207 645.161 254.207 636.686 234.024 619.594C212.108 601.377 199.724 572.56 201.233 544.135Z" fill="#F4DC9F" stroke="#F4DC9F" stroke-width="0.4167"/>
</g>
<g id="spot twenty">
<path id="Vector_33" d="M618.524 561.935C635.157 560.585 651.932 560.877 668.541 562.577C688.966 564.844 709.808 569.26 727.391 580.41C737.999 587.068 747.041 596.377 752.824 607.535C762.424 625.235 764.232 646.002 763.032 665.785C761.949 683.077 762.057 700.768 766.882 717.552C768.99 724.81 772.249 731.735 776.365 738.077C784.673 750.202 797.132 758.835 810.382 764.844C827.64 772.727 846.024 777.719 864.307 782.611C883.099 787.611 902.432 790.611 920.849 796.969C942.866 804.386 962.557 817.152 981.374 830.519C984.941 833.477 989.457 835.436 992.141 839.361C989.316 839.619 987.291 837.411 985.149 835.986C961.866 819.136 936.807 803.603 908.657 796.536C890.957 791.969 872.857 789.086 855.257 784.103C837.565 779.395 819.865 774.203 803.382 766.12C791.382 759.878 780.074 751.595 772.499 740.212C761.707 724.345 758.091 704.787 757.782 685.895C757.332 674.228 758.915 662.595 758.474 650.928C757.982 633.828 753.899 616.32 743.749 602.278C736.857 592.97 727.574 585.528 717.166 580.503C707.508 575.595 697.033 572.503 686.424 570.486C670.132 567.219 653.457 566.161 636.866 566.403C617.733 566.295 598.291 568.836 580.508 576.211C568.591 581.111 557.691 588.461 548.75 597.736C539.85 607.136 532.833 618.236 527.642 630.069C517.542 652.136 514.05 676.352 508.15 699.702C503.958 716.294 497.683 732.61 487.608 746.56C475.475 763.735 458.108 776.452 439.691 786.185C431.883 790.235 423.874 793.852 415.724 797.152C375.366 813.602 337.699 836.385 303.682 863.585C293.274 871.968 283.099 880.668 273.665 890.143C272.748 891.035 271.707 891.993 270.307 891.635C270.582 889.793 272.099 888.577 273.315 887.327C302.998 858.452 336.557 833.569 372.757 813.485C388.415 804.668 404.84 797.368 421.39 790.427C444.682 780.285 467.357 766.502 482.615 745.719C498.232 725.202 503.69 699.402 508.957 674.727C514.365 649.369 521.907 623.577 537.907 602.71C546.415 591.435 557.465 582.135 569.94 575.527C584.891 567.485 601.724 563.593 618.524 561.935Z" fill="#414042" stroke="#414042" stroke-width="0.4167"/>
</g>
<g id="spot nineteen">
<path id="Vector_34" d="M123.716 580.993C124.041 581.193 124.699 581.601 125.024 581.801C126.966 589.943 126.924 598.384 127.466 606.701C128.399 649.234 130.924 691.734 134.958 734.084C136.825 751.984 138.925 769.876 142.083 787.592C144.766 800.817 147 814.509 153.758 826.4C158.816 835.967 163.758 846.433 162.891 857.55C162.558 861.917 160.274 867.492 155.241 867.817C152.616 868.2 151.108 865.642 149.741 863.867C143.391 854.55 139.116 844.034 135.008 833.592C123.2 802.025 117.216 768.567 114.491 735.067C113.224 717.042 112.599 698.95 113.308 680.892C113.916 657.75 116.308 634.709 118.616 611.692C119.941 601.418 120.458 590.902 123.716 580.993Z" fill="white" stroke="white" stroke-width="0.4167"/>
</g>
<g id="mouth three">
<path id="Vector_35" d="M576.516 600.418C589.549 593.043 604.608 590.16 619.416 589.201C628.291 588.576 637.183 589.559 646.066 589.051C656.874 588.743 667.758 588.809 678.491 590.368C689.458 591.993 700.674 595.276 709.191 602.701C717.791 610.043 722.283 621.051 724.016 632.001C725.808 642.918 725.291 654.026 725.033 665.034C724.7 676.301 723.308 687.592 720.05 698.417C713.142 698.242 706.15 698.2 699.392 696.634C697.05 696.001 694.384 695.267 693 693.092C692.975 689.984 694.317 687.084 695.025 684.109C696.292 678.967 697.542 673.667 697.058 668.351C696.883 666.293 695.916 663.701 693.558 663.459C690.158 662.817 687.216 665.367 685.908 668.284C682.991 674.284 682.408 681.042 680.841 687.459C679.799 693.526 678.308 700.167 680.891 706.051C682.783 710.301 687.691 711.826 691.974 712.151C699.332 712.534 706.716 711.909 714.082 712.501C708.774 722.009 700.89 730.109 691.257 735.259C677.399 742.759 661.349 745.017 645.774 745.001C647.199 750.176 647.957 755.509 648.399 760.859C650.274 781.909 650.541 803.059 650.632 824.184C650.524 842.484 650.49 860.817 649.065 879.076C648.998 879.493 648.865 880.326 648.798 880.743C646.156 881.751 643.54 882.851 641.073 884.243C639.69 865.376 639.306 846.468 639.181 827.56C639.239 807.56 639.489 787.543 640.948 767.585C641.54 760.01 641.931 752.327 644.198 745.018C627.331 744.851 609.923 743.743 594.306 736.818C583.381 732.06 574.231 723.66 568.181 713.435L568.431 712.427C576.206 711.927 583.998 712.577 591.764 712.152C595.714 711.852 600.097 710.669 602.414 707.177C604.981 703.119 604.614 698.027 604.097 693.469C603.172 687.477 601.822 681.561 600.564 675.644C599.489 671.652 598.439 667.094 594.897 664.536C592.497 662.661 588.064 662.969 587.314 666.403C585.706 673.578 588.081 680.903 589.989 687.803C590.364 689.786 591.831 692.361 590.114 694.095C587.372 696.403 583.656 696.945 580.231 697.47C573.906 698.303 567.514 698.345 561.148 698.387C555.715 683.32 553.323 667.387 551.54 651.537C550.79 642.512 551.598 633.229 554.882 624.737C558.791 614.302 566.908 605.852 576.516 600.418ZM630.116 600.977C626.349 601.702 622.016 601.935 619.266 604.977C622.533 608.06 627.258 608.26 631.441 609.019C644.308 610.494 657.383 610.519 670.249 608.944C674.241 608.194 678.816 608.019 681.866 604.961C679.291 602.011 675.108 601.769 671.533 601.044C657.816 599.218 643.841 599.202 630.116 600.977Z" fill="#231F20" stroke="#231F20" stroke-width="0.4167"/>
</g>
<g id="spot eighteen">
<path id="Vector_36" d="M630.116 600.977C643.841 599.202 657.816 599.219 671.533 601.044C675.108 601.769 679.291 602.011 681.866 604.961C678.816 608.019 674.241 608.194 670.249 608.944C657.382 610.519 644.307 610.494 631.441 609.019C627.258 608.261 622.533 608.061 619.266 604.977C622.016 601.935 626.349 601.702 630.116 600.977Z" fill="white" stroke="white" stroke-width="0.4167"/>
</g>
<g id="spot seventeen">
<path id="Vector_37" d="M1166.58 608.16C1167.29 611.535 1167.27 615.01 1167 618.452C1166.96 618.969 1166.88 620.01 1166.84 620.535C1165.97 616.46 1165.92 612.26 1166.58 608.16Z" fill="#FEEEC1" stroke="#FEEEC1" stroke-width="0.4167"/>
</g>
<g id="spot sisteen">
<path id="Vector_38" d="M587.316 666.402C588.066 662.969 592.499 662.66 594.899 664.535C598.441 667.093 599.491 671.652 600.566 675.643C601.824 681.56 603.174 687.476 604.099 693.468C604.616 698.026 604.982 703.118 602.416 707.176C600.099 710.668 595.716 711.851 591.766 712.151C583.999 712.576 576.208 711.926 568.433 712.426L568.183 713.434C565.15 708.767 562.9 703.651 561.15 698.384C567.517 698.342 573.908 698.301 580.233 697.467C583.658 696.942 587.375 696.4 590.116 694.092C591.833 692.359 590.366 689.784 589.991 687.8C588.083 680.902 585.708 673.577 587.316 666.402Z" fill="#414042" stroke="#414042" stroke-width="0.4167"/>
</g>
<g id="spot fifteen">
<path id="Vector_39" d="M685.908 668.285C687.216 665.368 690.158 662.818 693.558 663.46C695.916 663.702 696.883 666.293 697.058 668.352C697.541 673.669 696.291 678.969 695.025 684.11C694.317 687.085 692.975 689.985 693 693.093C694.383 695.268 697.05 696.001 699.392 696.635C706.15 698.202 713.142 698.243 720.05 698.418C718.6 703.31 716.733 708.126 714.083 712.501C706.716 711.909 699.333 712.534 691.975 712.151C687.692 711.826 682.783 710.301 680.892 706.051C678.309 700.168 679.8 693.526 680.842 687.459C682.408 681.043 682.991 674.285 685.908 668.285Z" fill="#414042" stroke="#414042" stroke-width="0.4167"/>
</g>
<g id="round twentyeight">
<path id="Vector_40" d="M550.466 759.543C554.616 757.568 559.858 761.351 559.283 765.901C559.175 770.818 552.641 773.626 548.966 770.393C545.241 767.618 546.149 761.21 550.466 759.543Z" fill="#231F20" stroke="#231F20" stroke-width="0.4167"/>
</g>
<g id="round twentyseven">
<path id="Vector_41" d="M704.691 760.368C709.291 759.026 713.974 764.101 712.233 768.585C710.991 773.26 703.975 774.435 701.225 770.518C698.408 767.127 700.258 761.218 704.691 760.368Z" fill="#231F20" stroke="#231F20" stroke-width="0.4167"/>
</g>
<g id="mouth two">
<path id="Vector_42" d="M1031.27 860.227C1050.42 839.177 1066.56 815.477 1080.02 790.427C1090.15 797.519 1099.44 806.002 1106.71 816.06C1115.42 828.043 1120.46 842.71 1120.54 857.56C1120.81 872.335 1116.5 886.71 1110.95 900.252C1106.06 910.194 1101.36 920.41 1094.22 928.985C1070.26 959.627 1044.12 988.735 1014.72 1014.27C988.891 1036.57 960.332 1056.9 927.557 1067.5C917.015 1070.38 906.149 1072.57 895.165 1072.17C879.965 1071.58 865.023 1067.99 850.715 1062.98C828.682 1055.13 808.007 1043.86 788.448 1031.12C763.098 1014.78 739.59 995.726 717.198 975.576C706.656 966.093 696.415 956.293 686.473 946.184C673.173 932.976 660.298 919.334 648.156 905.059C614.864 946.942 576.131 984.717 532.323 1015.53C526.84 1019.55 520.831 1022.8 515.515 1027.03C522.765 1025.33 529.59 1022.26 536.573 1019.75C566.948 1007.85 596.465 993.043 622.423 973.126C630.44 967.059 637.765 960.159 644.99 953.193C662.315 972.068 682.373 988.41 704.207 1001.79C727.857 1016.13 754.082 1026.59 781.574 1030.38C770.407 1047.09 755.841 1061.38 739.624 1073.19C714.816 1090.76 685.391 1101.79 655.074 1104.44C644.482 1105.46 633.807 1105.23 623.199 1104.54C594.024 1101.63 565.541 1091.54 541.399 1074.84C528.199 1065.79 516.316 1054.84 506.066 1042.55C504.133 1040.3 502.533 1037.75 500.374 1035.71C464.924 1055.39 425.691 1070.07 384.816 1071.66C378.724 1070.44 372.358 1070.41 366.274 1071.69C348.999 1070.88 331.966 1067.49 315.016 1064.2C307.491 1062.64 300.016 1060.85 292.583 1058.89C264.725 1051.44 237.6 1040.35 213.733 1024C190.908 1008.38 170.716 988.586 155.983 965.078C154.375 962.345 154.375 959.078 153.841 956.045C153.341 951.212 152.799 946.378 152.674 941.52C172.832 957.945 195.291 971.553 219.157 981.87C250.049 995.178 283.299 1002.83 316.849 1004.88C354.349 1006.98 392.091 1003.15 428.541 994.153C459.941 986.495 490.341 975.036 519.333 960.803C549.883 945.82 578.75 927.611 606.483 907.945C617.983 900.012 629.041 891.378 641.075 884.245C643.542 882.853 646.158 881.753 648.8 880.745C648.867 880.328 649 879.495 649.067 879.078C649.167 879.436 649.375 880.161 649.475 880.528C657.017 882.878 664.008 886.595 671.092 890.028C691.134 899.628 711.492 908.611 732.442 916.061C766.892 928.261 802.875 936.861 839.475 938.644C842.133 938.777 844.8 938.836 847.467 938.894C884.284 939.961 921.567 933.086 954.959 917.327C984.008 903.868 1009.78 883.86 1031.27 860.227Z" fill="#414042" stroke="#414042" stroke-width="0.4167"/>
</g>
<g id="spot fourteen">
<path id="Vector_43" d="M714.099 799.06C717.524 800.202 720.416 802.418 723.532 804.193C735.965 811.585 748.974 818.176 762.782 822.635C771.249 825.143 780.599 827.16 789.174 823.943C798.007 820.61 807.457 819.168 816.874 819.076C835.849 818.534 854.999 822.043 872.416 829.643C877.058 831.643 881.366 834.351 885.533 837.201C887.091 838.218 888.416 839.551 889.558 841.043C885.925 839.085 882.766 836.385 879.091 834.51C863.958 826.468 846.908 822.727 829.941 821.202C819.158 820.11 808.216 820.81 797.633 823.127C793.408 824.002 789.508 826.002 785.25 826.677C777.933 828.002 770.483 826.327 763.475 824.269C749.1 819.736 735.692 812.669 722.8 804.952C719.824 803.102 716.591 801.577 714.099 799.06Z" fill="#444446" stroke="#444446" stroke-width="0.4167"/>
</g>
<g id="round twentysix">
<path id="Vector_44" d="M498.858 800.41C503.475 798.743 508.508 803.718 506.841 808.36C505.674 812.935 499.099 814.393 496.066 810.81C492.874 807.61 494.516 801.593 498.858 800.41Z" fill="#231F20" stroke="#231F20" stroke-width="0.4167"/>
</g>
<g id="round twentyfive">
<path id="Vector_45" d="M755.474 801.977C759.716 799.627 765.524 803.435 764.724 808.319C764.482 812.977 758.524 815.661 754.824 812.911C750.908 810.493 751.283 803.91 755.474 801.977Z" fill="#231F20" stroke="#231F20" stroke-width="0.4167"/>
</g>
<g id="round twentyfour">
<path id="Vector_46" d="M575.299 806.918C579.424 805.018 584.624 808.718 583.991 813.276C583.958 817.776 578.291 820.684 574.558 818.284C570.074 816.035 570.499 808.543 575.299 806.918Z" fill="#231F20" stroke="#231F20" stroke-width="0.4167"/>
</g>
<g id="round twentythree">
<path id="Vector_47" d="M679.583 807.86C683.566 806.46 688.116 809.943 687.758 814.16C687.975 819.285 680.941 822.327 677.308 818.743C673.516 815.793 674.891 809.027 679.583 807.86Z" fill="#231F20" stroke="#231F20" stroke-width="0.4167"/>
</g>
<g id="round twentytwo">
<path id="Vector_48" d="M515.358 825.277C519.6 823.152 525.008 827.085 524.325 831.769C523.992 836.536 517.75 839.227 514.083 836.127C510.308 833.468 511.099 826.993 515.358 825.277Z" fill="#231F20" stroke="#231F20" stroke-width="0.4167"/>
</g>
<g id="round twentyone">
<path id="Vector_49" d="M738.908 826.26C742.983 824.543 747.858 828.093 747.525 832.493C747.633 837.51 740.95 840.493 737.208 837.201C733.433 834.402 734.441 827.793 738.908 826.26Z" fill="#231F20" stroke="#231F20" stroke-width="0.4167"/>
</g>
<g id="round twenty">
<path id="Vector_50" d="M477.091 831.202C481.516 829.885 486.191 834.427 484.841 838.894C483.974 843.602 477.391 845.319 474.199 841.852C470.749 838.677 472.441 832.152 477.091 831.202Z" fill="#231F20" stroke="#231F20" stroke-width="0.4167"/>
</g>
<g id="round nineteen">
<path id="Vector_51" d="M777.874 832.727C782.157 830.569 787.624 834.577 786.741 839.327C786.441 844.019 780.241 846.527 776.649 843.619C772.766 841.027 773.541 834.402 777.874 832.727Z" fill="#231F20" stroke="#231F20" stroke-width="0.4167"/>
</g>
<g id="round eighteen">
<path id="Vector_52" d="M412.916 837.802C417.274 835.769 422.166 839.535 421.974 844.169C418.399 845.361 415.032 847.086 411.774 848.977C408.008 846.143 408.433 839.66 412.916 837.802Z" fill="#231F20" stroke="#231F20" stroke-width="0.4167"/>
</g>
<g id="round seventeen">
<path id="Vector_53" d="M556.374 837.91C560.591 835.668 566.191 839.427 565.524 844.202C565.432 848.902 559.232 851.752 555.574 848.835C551.683 846.318 552.174 839.835 556.374 837.91Z" fill="#231F20" stroke="#231F20" stroke-width="0.4167"/>
</g>
<g id="round sixteen">
<path id="Vector_54" d="M697.999 838.727C702.299 837.194 707.166 841.31 706.166 845.827C705.733 850.644 699.066 852.835 695.683 849.552C692.066 846.56 693.433 839.927 697.999 838.727Z" fill="#231F20" stroke="#231F20" stroke-width="0.4167"/>
</g>
<g id="round fifteen">
<path id="Vector_55" d="M842.066 838.635C846.758 837.177 851.491 842.335 849.683 846.885C848.308 851.427 841.658 852.627 838.775 848.893C835.849 845.518 837.599 839.552 842.066 838.635Z" fill="#231F20" stroke="#231F20" stroke-width="0.4167"/>
</g>
<g id="spot thirteen">
<path id="Vector_56" d="M561.091 853.51C564.683 852.693 568.141 851.21 571.866 851.052C548.408 856.91 525.266 864.119 502.824 873.135C505.049 875.102 507.807 877.502 507.016 880.86C506.508 885.677 499.891 887.885 496.474 884.56C494.099 882.643 494.424 879.385 494.549 876.693C470.324 887.86 448.499 903.451 427.141 919.26C423.724 921.377 420.874 924.443 417.041 925.835C442.324 906.31 468.174 886.743 497.866 874.377C518.416 865.952 539.616 859.168 561.091 853.51Z" fill="#231F20" stroke="#231F20" stroke-width="0.4167"/>
</g>
<g id="spot tweleve">
<path id="Vector_57" d="M704.408 851.76C707.475 853.277 710.233 855.343 713.083 857.235C727.591 866.818 744.216 874.277 761.875 874.51C767.717 874.543 773.567 874.335 779.4 874.702C783.792 875.31 788.233 875.519 792.642 876.035C796.784 876.435 800.909 877.043 804.95 878.052C817.817 881.044 831.158 884.494 841.942 892.46C837.784 891.01 834.125 888.502 830.034 886.918C822.226 883.943 814.184 881.568 805.992 879.943C803.417 879.243 801.134 881.401 798.575 881.085C796.033 880.968 794.342 878.902 792.617 877.335C782.5 876.81 772.45 875.01 762.292 875.477C759.817 875.477 757.342 875.477 754.892 875.26C738.217 873.21 723.1 864.952 709.409 855.643C707.616 854.502 705.916 853.235 704.408 851.76Z" fill="#393738" stroke="#393738" stroke-width="0.4167"/>
</g>
<g id="round fouteen">
<path id="Vector_58" d="M457.183 867.81C461.4 865.602 466.983 869.418 466.275 874.177C466.133 879.035 459.6 881.66 456 878.544C452.358 875.885 453.041 869.61 457.183 867.81Z" fill="#231F20" stroke="#231F20" stroke-width="0.4167"/>
</g>
<g id="round thirteen">
<path id="Vector_59" d="M794.608 870.302C797.158 867.469 802.183 867.769 804.333 870.952C806.025 872.969 805.4 875.71 804.95 878.052C800.908 877.044 796.783 876.435 792.642 876.035C792.899 874.027 793.024 871.768 794.608 870.302Z" fill="#231F20" stroke="#231F20" stroke-width="0.4167"/>
</g>
<g id="round tweleve">
<path id="Vector_60" d="M557.174 873.777C561.474 872.202 566.491 876.252 565.482 880.827C565.032 885.727 558.24 887.927 554.865 884.485C551.366 881.452 552.783 875.118 557.174 873.777Z" fill="#231F20" stroke="#231F20" stroke-width="0.4167"/>
</g>
<g id="round eleven">
<path id="Vector_61" d="M697.074 875.285C701.032 873.168 706.457 876.36 706.232 880.918C706.574 885.576 700.965 888.926 696.965 886.618C692.449 884.552 692.541 877.268 697.074 875.285Z" fill="#231F20" stroke="#231F20" stroke-width="0.4167"/>
</g>
<g id="round ten">
<path id="Vector_62" d="M754.891 875.26C757.341 875.477 759.816 875.477 762.291 875.477C764.383 877.877 765.733 881.46 763.799 884.394C761.482 888.444 754.832 888.194 752.799 883.994C751.033 880.977 752.599 877.477 754.891 875.26Z" fill="#231F20" stroke="#231F20" stroke-width="0.4167"/>
</g>
<g id="round nine">
<path id="Vector_63" d="M381.991 880.227C386.316 878.177 391.824 882.552 390.666 887.235C390.033 891.743 384.149 894.043 380.608 891.227C376.633 888.535 377.449 881.852 381.991 880.227Z" fill="#231F20" stroke="#231F20" stroke-width="0.4167"/>
</g>
<g id="round eight">
<path id="Vector_64" d="M872.883 881.168C877.275 879.626 882.058 883.968 881 888.493C880.35 893.118 874.008 895.285 870.625 892.076C866.799 889.143 868.249 882.377 872.883 881.168Z" fill="#231F20" stroke="#231F20" stroke-width="0.4167"/>
</g>
<g id="round seven">
<path id="Vector_65" d="M522.074 898.66C526.491 896.843 531.574 901.16 530.466 905.818C529.874 910.818 522.799 912.76 519.599 908.976C516.416 905.927 517.958 900.01 522.074 898.66Z" fill="#231F20" stroke="#231F20" stroke-width="0.4167"/>
</g>
<g id="round six">
<path id="Vector_66" d="M733.083 899.66C737.658 898.102 742.516 902.927 741.025 907.518C739.967 912.201 733.183 913.718 730.158 910.043C726.966 906.81 728.783 900.835 733.083 899.66Z" fill="#231F20" stroke="#231F20" stroke-width="0.4167"/>
</g>
<g id="mouth">
<path id="Vector_67" d="M532.324 1015.54C576.132 984.718 614.866 946.943 648.157 905.06C660.299 919.335 673.174 932.977 686.474 946.185C696.416 956.293 706.657 966.093 717.199 975.577C739.591 995.727 763.099 1014.78 788.449 1031.12C786.157 1030.79 783.857 1030.62 781.574 1030.38C754.082 1026.59 727.857 1016.13 704.207 1001.79C682.374 988.41 662.315 972.068 644.99 953.193C637.765 960.16 630.44 967.06 622.423 973.126C596.465 993.043 566.948 1007.85 536.573 1019.75C529.59 1022.26 522.765 1025.33 515.515 1027.03C520.833 1022.8 526.841 1019.55 532.324 1015.54Z" fill="#231F20" stroke="#231F20" stroke-width="0.4167"/>
</g>
<g id="round five">
<path id="Vector_68" d="M457.891 911.185C462.574 909.36 467.774 914.393 466.008 919.143C464.775 923.868 457.758 925.143 454.958 921.126C452.191 917.902 453.858 912.41 457.891 911.185Z" fill="#231F20" stroke="#231F20" stroke-width="0.4167"/>
</g>
<g id="round four">
<g id="round four_2">
<path id="Vector_69" d="M798.066 912.093C802.466 911.093 806.708 915.726 805.316 920.051C804.324 925.051 796.774 926.326 794.058 922.084C791.241 918.552 793.583 912.71 798.066 912.093Z" fill="#231F20" stroke="#231F20" stroke-width="0.4167"/>
</g>
</g>
<g id="round three">
<path id="Vector_70" d="M409.191 931.293C409.691 927.951 413.116 924.768 416.591 926.26C414.133 927.952 411.749 929.76 409.191 931.293Z" fill="#231F20" stroke="#231F20" stroke-width="0.4167"/>
</g>
<g id="round two">
<path id="Vector_71" d="M408.783 932.327C411.8 930.294 414.858 928.327 417.683 926.035C422.9 927.793 423.275 935.993 418.041 937.935C413.841 939.927 409.549 936.46 408.783 932.327Z" fill="#231F20" stroke="#231F20" stroke-width="0.4167"/>
</g>
<g id="round one">
<path id="Vector_72" d="M837.999 930.31C840.057 925.843 847.074 925.843 849.257 930.193C851.099 933.143 849.307 936.468 847.465 938.893C844.798 938.835 842.132 938.776 839.473 938.643C837.949 936.185 836.366 933.118 837.999 930.31Z" fill="#231F20" stroke="#231F20" stroke-width="0.4167"/>
</g>
<g id="body one">
<path id="Vector_73" d="M927.558 1067.5C960.333 1056.9 988.891 1036.57 1014.72 1014.27C1025.14 1077.85 1028.88 1142.36 1029.39 1206.73C1029.65 1215.6 1029.62 1224.5 1029.29 1233.39C1029.37 1244.61 1029.02 1255.84 1028.75 1267.07C1026.77 1270.23 1026.17 1273.97 1025.23 1277.54C1021.51 1291.03 1017.24 1304.41 1011.57 1317.22C1007.86 1325.28 1003.78 1333.42 997.449 1339.77C994.082 1343.12 989.316 1345.79 984.432 1344.78C979.44 1343.62 975.865 1339.52 973.207 1335.39C963.824 1320.33 960.515 1302.59 956.24 1285.64C956.248 1288.8 956.523 1291.97 957.04 1295.11C962.748 1338.78 968.007 1382.54 975.257 1426C976.174 1431.02 976.999 1436.09 978.349 1441.02C979.232 1444.42 981.999 1446.79 984.232 1449.35C989.807 1455.39 995.265 1462.02 997.432 1470.12C995.007 1475.05 990.94 1478.9 987.399 1483.03C982.024 1488.75 976.366 1494.35 969.691 1498.58C962.058 1503.36 953.066 1505.02 944.374 1506.77C937.632 1508.22 930.591 1509.71 924.991 1513.98C921.866 1516.34 918.424 1518.53 914.458 1519.03C906.033 1520.28 897.616 1516.78 891.175 1511.54C887.133 1508.38 884.3 1503.93 880.092 1500.98C874.3 1496.74 867.225 1495.05 860.492 1492.99C857.384 1492.09 854.759 1490.13 851.8 1488.9C848.267 1489.27 846.825 1493.16 844.925 1495.66C843.617 1493.35 842.65 1490.88 842.058 1488.32C840.925 1480.4 843.308 1472.54 846.283 1465.29C849.175 1457.88 853.475 1451.13 856.258 1443.69C862.033 1429.14 864.816 1413.6 866.508 1398.11C870.508 1358.83 866.891 1319.37 865 1280.08C863.908 1260.07 863.15 1240.02 863.717 1219.98C863.834 1212.88 866.792 1206.34 868.642 1199.6C864.409 1202.76 862.975 1208.09 861.434 1212.89C856.976 1228.6 854.376 1244.77 851.892 1260.89C845.917 1301.03 841.55 1341.39 836.542 1381.65C833.825 1402.46 831.325 1423.33 827.384 1443.96C826.059 1449.9 825.267 1456.09 822.659 1461.66C818.867 1468.08 811.717 1471.4 804.951 1473.78C796.109 1476.68 786.884 1478.33 777.643 1479.34C791.701 1449.48 799.935 1417.03 802.785 1384.19C806.235 1343.64 802.102 1302.27 789.21 1263.6C780.327 1237.22 767.543 1211.96 749.918 1190.32C733.301 1169.59 711.935 1152.22 687.16 1142.29C668.652 1134.93 648.318 1131.93 628.51 1134.4C599.293 1137.79 572.068 1152.28 551.127 1172.65C528.527 1193.87 512.11 1220.91 500.577 1249.51C488.202 1280.94 481.685 1314.62 480.885 1348.38C479.885 1381.18 484.185 1414.16 493.86 1445.53C495.41 1450.42 497.202 1455.22 498.752 1460.12C498.044 1460.15 496.627 1460.22 495.919 1460.25C488.636 1459.22 481.219 1458.57 474.277 1455.99C462.377 1451.99 452.294 1443.61 445.135 1433.42C435.485 1419.54 430.385 1403.08 427.168 1386.63C418.793 1341.56 422.843 1295.53 425.068 1250.09C425.668 1238.59 425.993 1226.98 423.91 1215.59C422.202 1206.52 420.468 1197.32 416.91 1188.77C416.235 1196.65 416.86 1204.59 416.193 1212.49C414.451 1253.12 409.568 1293.56 408.418 1334.22C407.968 1352.55 408.293 1370.94 410.518 1389.15C412.46 1404.68 415.943 1420.17 422.468 1434.47C428.21 1446.23 434.06 1458.23 436.31 1471.23C436.352 1471.47 436.418 1471.94 436.452 1472.18C433.177 1473.99 431.735 1477.56 429.869 1480.59C425.827 1487.42 419.994 1493.45 412.677 1496.71C405.26 1499.79 397.185 1495.69 389.635 1497.89C386.068 1499.23 384.135 1503.03 380.552 1504.39C375.935 1506.09 371.002 1506.82 366.11 1507.18C357.11 1507.58 347.868 1507.34 339.268 1504.39C334.501 1502.88 332.401 1497.7 327.985 1495.64C322.393 1492.92 315.935 1494.14 310.177 1495.63C304.985 1496.87 299.952 1499.6 294.469 1498.9C290.502 1498.61 286.952 1496.67 283.769 1494.44C273.936 1484.29 268.561 1468.9 272.586 1455.04C275.428 1445.39 282.486 1437.81 289.703 1431.15C292.811 1428.12 296.72 1425.31 297.653 1420.8C300.17 1410.85 302.02 1400.75 303.686 1390.65C303.961 1390.52 304.519 1390.28 304.794 1390.15C308.527 1394.11 312.361 1397.97 316.336 1401.7C321.494 1396.55 323.194 1389.2 325.036 1382.42C329.528 1363.04 331.186 1343.15 332.878 1323.37C335.895 1282.33 336.978 1241.17 337.145 1200.03C336.845 1194.05 337.92 1187.99 336.628 1182.08C335.186 1199.48 333.811 1216.93 330.811 1234.15C328.194 1249.82 324.678 1265.44 318.661 1280.19C315.136 1288.25 310.761 1296.34 303.761 1301.93C298.753 1305.98 291.661 1307.7 285.494 1305.56C281.236 1304.06 278.319 1300.3 276.277 1296.45C272.685 1289.53 271.077 1281.79 270.01 1274.13C267.393 1254.05 268.06 1233.73 269.393 1213.59C276.618 1211.24 280.726 1204.46 283.985 1198.07C289.96 1185.79 293.718 1172.6 297.235 1159.45C305.235 1128.12 310.202 1096.15 315.018 1064.2C331.968 1067.5 349.001 1070.88 366.276 1071.69C382.493 1076.25 399.184 1079.12 415.984 1080.39C435.401 1081.57 455.267 1080.59 473.876 1074.54C476.226 1073.87 478.509 1072.55 480.984 1072.65C485.117 1074.4 488.717 1077.2 492.767 1079.16C529.275 1098.33 570.825 1109.2 612.209 1106.29C615.926 1106.11 619.617 1105.54 623.201 1104.54C633.809 1105.23 644.484 1105.46 655.076 1104.44C685.393 1101.79 714.818 1090.76 739.626 1073.19C746.068 1072.45 751.951 1069.49 758.226 1068.02C768.943 1065.24 780.268 1061.81 791.351 1064.68C806.018 1068.25 820.334 1073.17 835.159 1076.14C861.709 1081.89 890.101 1082.56 915.967 1073.33C919.974 1071.74 924.533 1070.83 927.558 1067.5Z" fill="#FFF4D2" stroke="#FFF4D2" stroke-width="0.4167"/>
</g>
<g id="spot eleven">
<path id="Vector_74" d="M781.574 1030.38C783.857 1030.62 786.157 1030.79 788.449 1031.12C808.007 1043.86 828.682 1055.13 850.716 1062.98C865.024 1067.99 879.966 1071.58 895.166 1072.17C906.149 1072.57 917.016 1070.38 927.558 1067.5C924.533 1070.83 919.975 1071.74 915.966 1073.33C890.099 1082.56 861.708 1081.89 835.158 1076.14C820.333 1073.17 806.016 1068.25 791.35 1064.68C780.267 1061.81 768.942 1065.24 758.225 1068.02C751.95 1069.49 746.067 1072.45 739.625 1073.19C755.841 1061.38 770.408 1047.09 781.574 1030.38Z" fill="#F4DC9F" stroke="#F4DC9F" stroke-width="0.4167"/>
</g>
<g id="spot ten">
<path id="Vector_75" d="M384.816 1071.66C425.691 1070.07 464.924 1055.39 500.374 1035.71C502.532 1037.75 504.132 1040.29 506.066 1042.55C516.316 1054.84 528.199 1065.78 541.399 1074.83C565.541 1091.54 594.024 1101.63 623.199 1104.54C619.616 1105.54 615.924 1106.11 612.207 1106.29C570.824 1109.2 529.274 1098.33 492.765 1079.16C488.715 1077.2 485.115 1074.4 480.982 1072.65C478.507 1072.55 476.224 1073.87 473.874 1074.54C455.266 1080.59 435.399 1081.57 415.982 1080.39C399.182 1079.12 382.49 1076.25 366.274 1071.69C372.449 1072.01 378.641 1071.97 384.816 1071.66Z" fill="#F4DC9F" stroke="#F4DC9F" stroke-width="0.4167"/>
</g>
<g id="spot nine">
<path id="Vector_76" d="M292.583 1058.89C300.016 1060.85 307.491 1062.64 315.016 1064.2C310.199 1096.14 305.233 1128.12 297.233 1159.45C293.716 1172.6 289.958 1185.79 283.983 1198.07C280.725 1204.46 276.616 1211.24 269.391 1213.59C271.883 1175.66 277.516 1138.01 283.991 1100.59C284.783 1094.99 286.241 1089.49 286.591 1083.84C288.499 1075.5 290.466 1067.18 292.583 1058.89Z" fill="white" stroke="white" stroke-width="0.4167"/>
</g>
<g id="spot eight">
<path id="Vector_77" d="M366.274 1071.69C372.357 1070.41 378.724 1070.44 384.816 1071.66C378.641 1071.97 372.449 1072.01 366.274 1071.69Z" fill="#2B2D37" stroke="#2B2D37" stroke-width="0.4167"/>
</g>
<g id="spot seven">
<path id="Vector_78" d="M263.883 1192.4C270.358 1155.99 278.025 1119.81 286.591 1083.84C286.241 1089.49 284.783 1094.99 283.991 1100.59C277.516 1138.01 271.883 1175.66 269.391 1213.59C268.058 1233.73 267.391 1254.05 270.008 1274.13C271.075 1281.79 272.683 1289.53 276.275 1296.45C278.317 1300.3 281.233 1304.06 285.492 1305.56C291.659 1307.7 298.75 1305.98 303.759 1301.93C310.759 1296.34 315.134 1288.25 318.659 1280.19C324.676 1265.44 328.192 1249.82 330.809 1234.15C333.809 1216.93 335.184 1199.48 336.626 1182.08C337.918 1187.99 336.843 1194.04 337.143 1200.03C336.976 1241.17 335.893 1282.33 332.876 1323.37C331.184 1343.14 329.526 1363.04 325.034 1382.42C323.192 1389.2 321.492 1396.55 316.334 1401.69C312.359 1397.97 308.526 1394.11 304.792 1390.15C304.517 1390.28 303.959 1390.52 303.684 1390.65C303.701 1390.33 303.742 1389.7 303.767 1389.39C295.692 1380.49 288.025 1371.21 281.45 1361.15C266.742 1338.96 256.375 1313.35 254.592 1286.61C254.284 1276.66 254.384 1266.69 255.2 1256.76C256.999 1235.18 260.216 1213.73 263.883 1192.4Z" fill="#F4DC9F" stroke="#F4DC9F" stroke-width="0.4167"/>
</g>
<g id="spot six">
<path id="Vector_79" d="M628.508 1134.4C648.316 1131.93 668.65 1134.93 687.158 1142.29C711.933 1152.23 733.3 1169.59 749.916 1190.32C767.541 1211.96 780.324 1237.23 789.208 1263.6C802.1 1302.28 806.233 1343.64 802.783 1384.19C799.933 1417.04 791.7 1449.49 777.641 1479.34C774.133 1486.76 770.141 1493.93 766.008 1501.01C723.691 1505.54 681.058 1506.94 638.525 1505.86C596.375 1504.57 554.208 1500.64 512.833 1492.29C512.225 1488.93 510.425 1486.03 508.85 1483.08C505.308 1475.89 502.192 1468.5 499.258 1461.05C498.133 1460.75 497.033 1460.48 495.916 1460.25C496.624 1460.22 498.041 1460.15 498.749 1460.13C497.199 1455.23 495.407 1450.42 493.857 1445.54C484.182 1414.16 479.882 1381.19 480.882 1348.38C481.682 1314.63 488.199 1280.94 500.574 1249.51C512.107 1220.91 528.524 1193.87 551.124 1172.65C572.066 1152.28 599.291 1137.79 628.508 1134.4ZM737.991 1213.73C734.699 1215.15 732.174 1217.92 730.299 1220.91C726.124 1227.87 724.891 1236.2 725.182 1244.2C725.515 1251.73 727.499 1259.45 732.199 1265.48C734.924 1269.02 739.516 1271.62 744.082 1270.48C749.215 1269.01 752.749 1264.48 754.882 1259.82C758.332 1252.09 759.065 1243.35 758.007 1235.03C756.924 1227.9 754.49 1220.43 748.79 1215.65C745.908 1213.06 741.583 1212.32 737.991 1213.73ZM763.891 1277.89C760.616 1279.13 758.833 1282.43 757.316 1285.37C754.266 1291.75 752.249 1298.74 752.108 1305.85C752.333 1327.72 752.558 1349.61 751.483 1371.46C750.425 1390.99 749.033 1410.62 744.816 1429.78C743.124 1437.11 741.033 1444.55 736.908 1450.93C733.516 1455.41 728.925 1459.34 727.608 1465.06C726.366 1468.89 728.775 1473.1 732.475 1474.46C739.783 1477.51 750.167 1475.44 753.725 1467.76C757.258 1459.78 759.275 1451.24 761.367 1442.8C767.717 1415.62 771.625 1387.91 773.959 1360.12C775.251 1341.34 775.717 1322.44 774.001 1303.67C773.193 1296.44 772.376 1289.05 769.551 1282.29C768.566 1280.08 766.633 1277.38 763.891 1277.89Z" fill="#F7E7BA" stroke="#F7E7BA" stroke-width="0.4167"/>
</g>
<g id="spot five">
<path id="Vector_80" d="M416.908 1188.77C420.466 1197.33 422.2 1206.52 423.908 1215.59C425.991 1226.98 425.666 1238.59 425.066 1250.09C422.841 1295.54 418.791 1341.56 427.166 1386.64C430.383 1403.08 435.483 1419.54 445.133 1433.42C452.291 1443.61 462.375 1451.99 474.275 1455.99C481.217 1458.58 488.633 1459.22 495.917 1460.25C497.034 1460.48 498.134 1460.74 499.259 1461.04C502.192 1468.5 505.309 1475.89 508.851 1483.08C510.426 1486.03 512.226 1488.93 512.834 1492.28C486.884 1487.08 461.126 1480.48 436.309 1471.23C434.059 1458.23 428.209 1446.23 422.467 1434.47C415.942 1420.17 412.459 1404.68 410.517 1389.15C408.292 1370.94 407.967 1352.55 408.417 1334.22C409.567 1293.56 414.45 1253.12 416.192 1212.49C416.858 1204.59 416.233 1196.65 416.908 1188.77Z" fill="#F4DC9F" stroke="#F4DC9F" stroke-width="0.4167"/>
</g>
<g id="spot four">
<path id="Vector_81" d="M861.433 1212.89C862.975 1208.09 864.408 1202.76 868.641 1199.6C866.791 1206.34 863.833 1212.88 863.716 1219.98C863.149 1240.02 863.908 1260.07 864.999 1280.08C866.891 1319.37 870.507 1358.83 866.507 1398.11C864.815 1413.6 862.032 1429.14 856.257 1443.69C853.474 1451.13 849.174 1457.88 846.282 1465.29C843.307 1472.54 840.924 1480.4 842.057 1488.32C817.049 1494.34 791.557 1498.17 766.007 1501.01C770.14 1493.93 774.132 1486.76 777.64 1479.34C786.882 1478.34 796.107 1476.69 804.948 1473.79C811.715 1471.4 818.865 1468.08 822.656 1461.66C825.264 1456.09 826.056 1449.9 827.381 1443.96C831.323 1423.33 833.823 1402.46 836.539 1381.65C841.547 1341.38 845.914 1301.03 851.889 1260.89C854.374 1244.77 856.974 1228.6 861.433 1212.89Z" fill="#F4DC9F" stroke="#F4DC9F" stroke-width="0.4167"/>
</g>
<g id="spot three">
<path id="Vector_82" d="M737.991 1213.73C741.583 1212.32 745.908 1213.06 748.791 1215.65C754.491 1220.43 756.924 1227.9 758.008 1235.03C759.066 1243.35 758.333 1252.09 754.883 1259.82C752.75 1264.49 749.216 1269.01 744.083 1270.49C739.516 1271.62 734.925 1269.02 732.2 1265.48C727.5 1259.45 725.517 1251.73 725.183 1244.2C724.891 1236.2 726.125 1227.87 730.3 1220.91C732.174 1217.92 734.699 1215.15 737.991 1213.73Z" fill="white" stroke="white" stroke-width="0.4167"/>
</g>
<g id="spot two">
<path id="Vector_83" d="M1025.23 1277.54C1026.17 1273.97 1026.77 1270.23 1028.75 1267.07C1028.63 1279.17 1027.84 1291.25 1027.32 1303.33C1025.89 1323.08 1025.34 1343.31 1018.39 1362.08C1018.22 1362.15 1017.87 1362.29 1017.71 1362.37C1017.28 1367.69 1014.42 1372.38 1012.39 1377.22C1003.56 1395.82 990.592 1412.32 975.259 1426C968.009 1382.54 962.751 1338.78 957.042 1295.11C956.525 1291.97 956.25 1288.8 956.242 1285.64C960.517 1302.59 963.825 1320.33 973.209 1335.39C975.867 1339.52 979.442 1343.62 984.434 1344.78C989.317 1345.79 994.084 1343.12 997.451 1339.77C1003.78 1333.42 1007.86 1325.28 1011.57 1317.22C1017.24 1304.41 1021.51 1291.03 1025.23 1277.54Z" fill="#F4DC9F" stroke="#F4DC9F" stroke-width="0.4167"/>
</g>
<g id="spot one">
<path id="Vector_84" d="M763.891 1277.89C766.633 1277.39 768.566 1280.08 769.549 1282.29C772.374 1289.05 773.191 1296.43 773.999 1303.67C775.716 1322.43 775.249 1341.34 773.957 1360.12C771.624 1387.91 767.715 1415.62 761.365 1442.8C759.273 1451.24 757.257 1459.78 753.723 1467.76C750.165 1475.44 739.781 1477.51 732.473 1474.46C728.773 1473.1 726.365 1468.88 727.606 1465.06C728.923 1459.34 733.514 1455.41 736.906 1450.93C741.031 1444.55 743.123 1437.11 744.814 1429.78C749.031 1410.62 750.422 1390.99 751.481 1371.46C752.556 1349.61 752.331 1327.72 752.106 1305.85C752.248 1298.74 754.264 1291.75 757.314 1285.37C758.833 1282.43 760.616 1279.13 763.891 1277.89Z" fill="white" stroke="white" stroke-width="0.4167"/>
</g>
<g id="sit">
<path id="Vector_85" d="M281.449 1361.14C288.024 1371.21 295.691 1380.49 303.766 1389.39C303.741 1389.7 303.699 1390.33 303.683 1390.64C302.016 1400.74 300.166 1410.85 297.65 1420.79C296.717 1425.31 292.808 1428.12 289.7 1431.15C282.483 1437.81 275.425 1445.39 272.583 1455.03C268.558 1468.9 273.933 1484.28 283.766 1494.43C280.608 1492.64 278.366 1489.75 275.833 1487.25C279.216 1494.67 285.166 1501.23 292.991 1503.98C301.799 1507.2 311.566 1505.88 320.174 1502.66C329.799 1511.17 342.407 1516.15 355.241 1516.58C366.416 1516.93 377.558 1514 387.466 1508.93C390.091 1507.5 392.874 1505.98 395.983 1506.42C404.716 1506.96 414.116 1507.22 421.925 1502.62C426.333 1499.95 429.933 1496.12 433.117 1492.12C437.434 1486.47 437.067 1478.88 436.45 1472.18C436.417 1471.94 436.35 1471.47 436.308 1471.23C461.125 1480.48 486.883 1487.08 512.833 1492.28C554.208 1500.64 596.375 1504.57 638.525 1505.86C681.058 1506.93 723.692 1505.54 766.008 1501.01C791.558 1498.17 817.05 1494.34 842.058 1488.32C842.65 1490.87 843.616 1493.35 844.925 1495.66C849.5 1502.33 857.425 1505.22 864.675 1507.97C869.725 1509.97 875.617 1511.72 878.392 1516.85C882.084 1523.16 888.3 1527.74 895.25 1529.87C905.783 1533.14 917.092 1532.14 927.742 1529.95C937.017 1528.12 945.9 1524.82 954.659 1521.37C970.259 1517.25 984.026 1506.98 992.801 1493.49C997.251 1486.68 999.551 1478.14 997.434 1470.12C995.267 1462.02 989.809 1455.38 984.234 1449.35C982.001 1446.79 979.234 1444.42 978.351 1441.02C977.001 1436.08 976.176 1431.02 975.259 1426C990.592 1412.32 1003.56 1395.82 1012.39 1377.22C1014.42 1372.38 1017.28 1367.69 1017.71 1362.37C1017.88 1362.29 1018.22 1362.15 1018.39 1362.07C1019.44 1362.87 1020.52 1363.65 1021.74 1364.22C1046.92 1374.7 1071.85 1387.1 1092.37 1405.36C1103.87 1415.76 1114.13 1428.74 1117.23 1444.28C1119.83 1456.58 1116.86 1469.56 1110.47 1480.25C1104.25 1490.85 1095.43 1499.67 1085.88 1507.31C1074.2 1516.63 1061.27 1524.26 1047.97 1531.03C1026.09 1542.04 1003.06 1550.6 979.7 1557.93C947.1 1568.06 913.75 1575.62 880.167 1581.64C805.042 1594.93 728.7 1600.45 652.459 1600.87H642.934C557.709 1600.36 472.276 1593.62 388.701 1576.52C351.518 1568.78 314.651 1559 279.243 1545.14C255.935 1535.87 233.026 1524.96 212.876 1509.87C200.284 1500.31 188.534 1488.8 181.901 1474.24C176.734 1463.04 175.784 1449.9 179.843 1438.22C185.093 1422.61 196.785 1410.2 209.351 1400.02C230.899 1382.98 256.016 1371.15 281.449 1361.14Z" fill="#58595B" stroke="#58595B" stroke-width="0.4167"/>
</g>
<g id="paw two">
<path id="Vector_86" d="M997.433 1470.12C999.55 1478.14 997.25 1486.69 992.8 1493.49C984.025 1506.99 970.258 1517.25 954.658 1521.37C945.9 1524.83 937.016 1528.13 927.741 1529.95C917.091 1532.14 905.783 1533.14 895.249 1529.87C888.299 1527.74 882.082 1523.16 878.391 1516.85C875.616 1511.73 869.724 1509.98 864.674 1507.98C857.424 1505.22 849.499 1502.33 844.924 1495.66C846.824 1493.16 848.266 1489.27 851.799 1488.9C854.757 1490.13 857.382 1492.09 860.491 1492.99C867.224 1495.05 874.299 1496.74 880.091 1500.98C884.299 1503.93 887.133 1508.38 891.174 1511.53C897.616 1516.78 906.032 1520.28 914.457 1519.03C918.424 1518.53 921.865 1516.33 924.99 1513.98C930.59 1509.71 937.632 1508.22 944.373 1506.77C953.065 1505.02 962.056 1503.36 969.69 1498.58C976.365 1494.35 982.023 1488.75 987.398 1483.03C990.941 1478.9 995.008 1475.05 997.433 1470.12Z" fill="#F7D589" stroke="#F7D589" stroke-width="0.4167"/>
</g>
<g id="paw one">
<path id="Vector_87" d="M429.866 1480.59C431.733 1477.56 433.174 1473.99 436.449 1472.18C437.066 1478.89 437.432 1486.47 433.116 1492.13C429.933 1496.13 426.333 1499.95 421.924 1502.62C414.116 1507.23 404.716 1506.96 395.982 1506.42C392.874 1505.98 390.09 1507.5 387.465 1508.94C377.557 1514 366.415 1516.94 355.24 1516.58C342.407 1516.15 329.798 1511.17 320.173 1502.66C311.565 1505.89 301.798 1507.2 292.99 1503.98C285.165 1501.23 279.215 1494.67 275.832 1487.25C278.365 1489.75 280.607 1492.65 283.765 1494.44C286.948 1496.67 290.498 1498.61 294.465 1498.89C299.948 1499.59 304.982 1496.87 310.173 1495.63C315.931 1494.13 322.39 1492.92 327.981 1495.64C332.398 1497.7 334.498 1502.88 339.264 1504.39C347.864 1507.33 357.106 1507.58 366.106 1507.18C370.998 1506.82 375.931 1506.09 380.548 1504.38C384.131 1503.03 386.065 1499.23 389.631 1497.89C397.181 1495.69 405.256 1499.79 412.673 1496.71C419.991 1493.45 425.824 1487.42 429.866 1480.59Z" fill="#F7D589" stroke="#F7D589" stroke-width="0.4167"/>
</g>
</g>
</svg>
