<svg width="217" height="616" viewBox="0 0 217 616" fill="none" xmlns="http://www.w3.org/2000/svg">
<g id="full body">
<g id="body">
<path id="Vector" d="M213.66 220.65C213.66 220.65 209.72 220.1 209.72 214.37C209.72 208.64 206.9 197.91 206.9 197.91C206.9 197.91 204.46 179.24 201.09 176.28C197.72 173.32 193.39 155.94 193.39 155.94C193.39 155.94 192.65 146.51 191.14 144.48C189.63 142.45 187.59 137.48 184.58 130.39C181.57 123.3 169.05 118.44 169.05 118.44C169.05 118.44 146.36 105.28 139.93 100.99C139.342 100.634 138.792 100.219 138.29 99.75C137.17 98.29 132.29 98.26 132.29 98.26C131.78 95.03 131.29 91.33 131.13 87.98C131.13 87.62 131.13 87.26 131.13 86.9C138.3 82.6618 143.7 75.9795 146.34 68.08C146.46 67.7 146.56 67.31 146.67 66.92C147.109 66.7846 147.514 66.5577 147.859 66.2543C148.203 65.951 148.48 65.578 148.67 65.16C149.24 63.87 149.26 62.37 149.98 61.16C150.82 59.74 152.42 58.98 153.68 57.92C156.86 55.21 157.68 50.66 157.53 46.53C157.43 43.17 156.89 39.79 157.1 36.46C157.1 36.18 157.1 35.9 157.16 35.62C157.22 35.13 157.29 34.62 157.38 34.14C157.87 31.66 158.94 29.32 159.54 26.86C160.14 24.4 160.2 21.63 158.8 19.51C156.75 16.4 152.48 15.78 148.73 15.51C144.48 15.15 140.73 15.61 137.96 12.08C136.689 10.2363 135.257 8.50949 133.68 6.92C133.12 6.4 127.68 3.07 127.68 2.86C122.357 0.385258 116.319 -0.0800773 110.68 1.54997C107.85 2.36997 105.2 3.70999 102.33 4.37999C96.17 5.83999 89.07 4.25999 83.83 7.78999C80.91 9.78999 79.16 12.98 77.52 16.07C76.1866 18.6167 74.8333 21.1667 73.46 23.72C71.24 27.91 69 32.17 68.07 36.81C67.8754 37.8235 67.7518 38.8493 67.7 39.88V39.88C67.7 40.25 67.7 40.62 67.7 40.99C67.7 41.15 67.7 41.31 67.7 41.47C67.7 41.81 67.7 42.15 67.76 42.47C67.82 42.79 67.76 42.88 67.83 43.09C67.9 43.3 67.92 43.77 67.98 44.09C68.04 44.41 68.16 44.98 68.28 45.41C68.28 45.6 68.4 45.78 68.46 45.97C68.52 46.16 68.68 46.64 68.81 46.97C68.94 47.3 68.95 47.32 69.03 47.49C69.18 47.84 69.36 48.18 69.54 48.49C69.62 48.62 69.68 48.75 69.76 48.88C70.0342 49.3481 70.3417 49.7959 70.68 50.22C72.81 52.89 75.97 54.59 78.3 57.09C78.3 57.19 78.3 57.29 78.3 57.39C78.3 57.66 78.3 57.93 78.3 58.21C78.4426 63.786 79.9457 69.2428 82.6785 74.1054C85.4113 78.9679 89.291 83.089 93.98 86.11C93.98 86.49 94.03 86.88 94.05 87.27C94.245 90.235 94.2082 93.2107 93.94 96.17C93.5319 95.6915 93.0219 95.3103 92.4475 95.0542C91.8731 94.7981 91.2487 94.6737 90.62 94.69C90.1903 94.6686 89.7597 94.7056 89.34 94.8L89.25 94.73V94.82C87.05 95.36 84.34 97.65 81.75 104.16C81.75 104.16 73.87 113.04 67.87 112.67C61.87 112.3 46.68 121.92 46.68 121.92C46.68 121.92 31.86 131.53 28.68 141.33C26.9023 146.888 24.7678 152.326 22.29 157.61L3.91998 195.33L0.549988 225.33C0.549988 225.33 2.41999 238.64 2.04999 240.68C1.67999 242.72 9.73999 261.02 9.73999 261.02C9.73999 261.02 36.37 307.8 47.25 310.2L48.03 309.66C48.4976 309.896 48.9909 310.077 49.5 310.2L51.74 308.63C51.8787 310.388 51.8183 312.156 51.56 313.9C50.07 318.53 52.13 348.67 54.75 354.58C57.37 360.49 56.44 437.99 56.44 437.99L56.07 444.82C56.07 444.82 56.07 445.04 56.16 445.42L56.07 447.04L56.34 447.18C56.6201 449.353 56.5289 451.558 56.07 453.7C55.13 456.7 54.75 465.17 54.75 465.17C54.75 465.17 47.25 513.05 50.81 522.67C54.37 532.29 57.38 542.83 57.38 542.83C57.38 542.83 61.13 554.83 57.56 556.83C53.99 558.83 43.88 562.38 45.94 567.37C47.84 571.99 55.05 584.37 56.12 586.18L56.03 587.18L54.56 603.11C54.798 605.213 55.3685 607.266 56.25 609.19C57.86 612.67 60.98 616.26 66.94 615.87C67.94 615.8 69.09 615.69 70.22 615.54C81.11 614.07 94.51 609.21 94.51 609.21C93.8152 608.77 93.18 608.242 92.62 607.64V607.64C92.0847 607.122 91.6606 606.499 91.3735 605.812C91.0864 605.124 90.9423 604.385 90.95 603.64C91.11 600.73 85.68 586.92 84.32 583.51L84.01 582.75C84.01 582.75 96.39 569.8 94.33 558.34C94.33 558.34 80.63 550.34 85.14 545.94C89.65 541.54 97.71 528.94 97.71 528.94C97.71 528.94 98.08 481.79 97.71 474.76C97.3243 469.87 97.5561 464.952 98.4 460.12C98.55 459.4 98.73 458.69 98.92 457.98C105.163 458.922 111.467 459.4 117.78 459.41C120.087 459.41 122.42 459.363 124.78 459.27C124.78 459.937 124.81 460.657 124.87 461.43C125.39 473.11 126.36 493.6 127.15 501.21C128.27 512.11 134.46 541.52 134.46 541.52C134.46 541.52 122.65 549.09 136.52 567.78C136.52 567.78 136.52 574.54 135.6 575.53C134.617 578.737 133.826 581.999 133.23 585.3C132.65 588.81 132.41 592.38 133.35 594.22C135.6 598.64 149.1 598.28 149.1 598.28C149.208 598.255 149.319 598.238 149.43 598.23C151.978 597.961 154.554 598.202 157.008 598.941C159.462 599.679 161.744 600.899 163.72 602.53C168.85 606.65 188.31 604.85 198.86 603.53C202.99 603 205.75 602.53 205.75 602.53C205.883 602.062 205.93 601.575 205.89 601.09V601.09C205.78 598.5 203.75 592.82 189.99 587.75C189.99 587.75 177.05 579.05 177.23 571.47H176.94H175.45C176.39 571.44 177.05 571.44 177.05 571.44C177.05 571.44 171.98 552.95 174.05 551.44C176.12 549.93 169.92 529.44 169.92 529.44C169.92 529.44 166.37 495.04 166.17 492.64C166.183 490.572 166.5 488.516 167.11 486.54L166.17 467.67C166.17 467.67 165.99 461.4 166.17 459.36C166.15 457.589 166.01 455.822 165.75 454.07C165.66 453.37 165.57 452.64 165.47 451.92C170.32 450.69 173.47 449.56 173.47 449.56L172.91 383.91C177.03 375.91 177.79 358.35 177.77 345.91C177.77 337.91 177.41 331.99 177.41 331.99L183.04 322.8C183.04 322.8 184.34 311.8 182.28 309.39C181.37 308.3 181.78 307.17 182.53 306.24C182.925 305.917 183.342 305.622 183.78 305.36C183.731 305.29 183.687 305.217 183.65 305.14C184.043 304.812 184.461 304.514 184.9 304.25C184.9 304.25 182.9 301.15 184.69 299.84C186.37 300.98 187.87 301.89 189.01 302.54C188.93 303.27 188.85 303.69 188.85 303.69L189.33 302.69C190.43 303.31 191.1 303.69 191.1 303.69C191.1 303.69 199.92 286.12 199.73 283.54C199.54 280.96 205.73 270.04 205.73 270.04C205.73 270.04 206.48 264.3 209.86 261.9C213.24 259.5 212.48 242.11 212.48 242.11C212.48 242.11 213.42 233.05 215.67 229.36C217.92 225.67 213.66 220.65 213.66 220.65ZM44.9 212.94L45.07 217.13C44.07 215.52 43.35 214.37 43.35 214.37L44.9 212.94Z" fill="url(#paint0_linear)"/>
</g>
<g id="hand four">
<path id="Vector_2" d="M191.62 296.09L189.46 305.29C189.46 305.29 172.16 296.44 169.05 285.24C165.94 274.04 174.26 269.77 174.26 269.77L190.39 276.59L191.62 296.09Z" fill="white"/>
</g>
<g id="hand three">
<path id="Vector_3" opacity="0.1" d="M191.62 296.09L189.46 305.29C189.46 305.29 172.16 296.44 169.05 285.24C165.94 274.04 174.26 269.77 174.26 269.77L190.39 276.59L191.62 296.09Z" fill="black"/>
</g>
<g id="shoe four">
<path id="Vector_4" d="M94.53 609.2C94.53 609.2 78.53 615.08 67.53 615.82C61.69 616.21 58.62 612.63 57.04 609.18C56.1814 607.277 55.6216 605.253 55.38 603.18L56.83 587.33L57.59 578.9L80.96 572.82L84.27 582.95L84.58 583.71C85.9 587.1 91.24 600.84 91.08 603.71C91.0671 604.452 91.2049 605.189 91.4851 605.877C91.7653 606.565 92.1819 607.188 92.71 607.71C93.251 608.282 93.8626 608.782 94.53 609.2V609.2Z" fill="white"/>
</g>
<g id="shoe three">
<path id="Vector_5" d="M203.77 601.14C203.811 601.625 203.764 602.113 203.63 602.58C203.63 602.58 169.41 608.28 162.41 602.58C160.442 600.915 158.149 599.679 155.676 598.95C153.204 598.222 150.606 598.017 148.05 598.35C148.05 598.35 134.81 598.71 132.6 594.35C131.68 592.52 131.92 588.97 132.49 585.48C133.072 582.197 133.847 578.952 134.81 575.76L135.34 575.34L138.49 572.81L175.37 571.72H175.65C175.47 579.26 188.16 587.91 188.16 587.91C201.67 592.91 203.66 598.56 203.77 601.14Z" fill="white"/>
</g>
<g id="shoe two">
<path id="Vector_6" opacity="0.1" d="M203.78 601.14C203.815 601.625 203.765 602.113 203.63 602.58C203.63 602.58 169.41 608.28 162.42 602.58C160.451 600.914 158.156 599.677 155.681 598.948C153.207 598.22 150.608 598.016 148.05 598.35C148.05 598.35 134.8 598.71 132.59 594.35C131.68 592.52 131.91 588.97 132.48 585.47C137.58 585.98 145.63 587.25 148.79 590.29C153.57 594.89 161.67 599.49 166.63 599.86C170.55 600.1 193.86 600.84 203.78 601.14Z" fill="black"/>
</g>
<g id="shoe one">
<path id="Vector_7" opacity="0.1" d="M94.53 609.2C94.53 609.2 78.53 615.08 67.53 615.82C61.69 616.21 58.62 612.63 57.04 609.18C61.12 610.55 66.77 611.98 69.74 610.67C73.26 609.1 85.74 608.1 92.74 607.67C93.2678 608.255 93.8695 608.77 94.53 609.2V609.2Z" fill="black"/>
</g>
<g id="lips two">
<path id="Vector_8" d="M118.27 135.31C105.07 130.18 88.09 113.23 92.33 105.31C93.2671 103.31 93.8264 101.154 93.98 98.95C94.2528 95.9576 94.293 92.9486 94.1 89.95C93.8023 85.0358 93.2113 80.1437 92.33 75.3C92.33 75.3 133.54 76.23 131.14 82.3C130.44 84.09 130.32 87.18 130.52 90.63C130.72 94.08 131.21 98.01 131.73 101.32C132.44 105.85 133.17 109.32 133.17 109.32C133.17 109.32 130.64 112.85 129.17 113.04C127.7 113.23 137.21 142.66 118.27 135.31Z" fill="#CF6F80"/>
</g>
<g id="leg four">
<path id="Vector_9" opacity="0.1" d="M84.54 583.66L84.23 584C71.91 569.1 57.01 587.68 57.01 587.68L56.79 587.28L57.55 578.85L80.92 572.77L84.23 582.9L84.54 583.66Z" fill="black"/>
</g>
<g id="leg three">
<path id="Vector_10" opacity="0.1" d="M175.67 572.77C175.67 572.77 166.67 572.59 161.87 576.83C157.07 581.07 133.87 577.74 134.87 576.83C135.162 576.368 135.34 575.844 135.39 575.3L138.54 572.77L175.42 571.68C175.56 572.38 175.67 572.77 175.67 572.77Z" fill="black"/>
</g>
<g id="leg two">
<path id="Vector_11" d="M99.87 455.76C99.201 457.418 98.692 459.135 98.35 460.89C97.5161 465.696 97.2843 470.587 97.66 475.45C98.03 482.45 97.66 529.36 97.66 529.36C97.66 529.36 89.75 541.87 85.33 546.28C80.91 550.69 94.33 558.61 94.33 558.61C96.33 570.02 84.21 582.9 84.21 582.9C71.89 568 56.99 586.57 56.99 586.57C56.99 586.57 48.89 572.57 46.87 567.57C44.85 562.57 54.78 559.12 58.27 557.08C61.76 555.04 58.09 543.08 58.09 543.08C58.09 543.08 55.15 532.59 51.65 523.02C48.15 513.45 55.51 465.82 55.51 465.82C55.51 465.82 55.89 457.35 56.8 454.4C57.2541 452.271 57.3454 450.08 57.07 447.92C57.01 447.19 56.94 446.59 56.89 446.17C56.84 445.75 56.8 445.57 56.8 445.57L56.94 445.33L61.94 436.01C61.94 436.01 102.27 449.89 99.87 455.76Z" fill="#6C63FF"/>
</g>
<g id="leg one">
<path id="Vector_12" d="M175.67 571.67C175.67 571.67 166.67 571.48 161.87 575.67C157.07 579.86 133.87 576.59 134.87 575.67C135.87 574.75 135.78 567.95 135.78 567.95C122.17 549.36 133.78 541.82 133.78 541.82C133.78 541.82 127.71 512.57 126.61 501.72C125.84 494.15 124.89 473.72 124.38 462.15C124.16 457.15 124.03 453.7 124.03 453.7L135.05 451.51L136.48 451.23L163.3 445.84C163.3 445.84 164.04 450.84 164.54 454.93C164.793 456.676 164.93 458.436 164.95 460.2C164.78 462.2 164.95 468.47 164.95 468.47L165.87 487.23C165.276 489.199 164.967 491.243 164.95 493.3C165.14 495.7 168.63 529.91 168.63 529.91C168.63 529.91 174.7 550.33 172.63 551.8C170.56 553.27 175.67 571.67 175.67 571.67Z" fill="#6C63FF"/>
</g>
<g id="lips">
<path id="Vector_13" opacity="0.1" d="M131.14 82.33C130.44 84.12 130.32 87.21 130.52 90.66C125 93.984 118.654 95.6835 112.212 95.5632C105.77 95.4429 99.492 93.5077 94.1 89.98C93.8023 85.0658 93.2113 80.1737 92.33 75.33C92.33 75.33 133.54 76.26 131.14 82.33Z" fill="black"/>
</g>
<g id="face two">
<path id="Vector_14" d="M147.05 60.25C147.159 69.3231 143.659 78.0677 137.32 84.5602C130.981 91.0527 122.323 94.7613 113.25 94.87C104.177 94.9787 95.4323 91.4788 88.9398 85.14C82.4472 78.8013 78.7387 70.1431 78.63 61.07C78.63 60.79 78.63 60.53 78.63 60.25C78.63 51.1743 82.2353 42.4703 88.6528 36.0528C95.0703 29.6353 103.774 26.03 112.85 26.03C121.926 26.03 130.63 29.6353 137.047 36.0528C143.465 42.4703 147.07 51.1743 147.07 60.25H147.05Z" fill="#CF6F80"/>
</g>
<g id="colar five">
<path id="Vector_15" opacity="0.1" d="M118.27 135.31C105.07 130.18 88.09 113.23 92.33 105.31C93.2671 103.31 93.8264 101.154 93.98 98.95L112.05 113.81L123.23 122.98L131.73 101.35C132.44 105.88 133.17 109.35 133.17 109.35C133.17 109.35 130.64 112.88 129.17 113.07C127.7 113.26 137.21 142.66 118.27 135.31Z" fill="black"/>
</g>
<g id="apron eight">
<path id="Vector_16" d="M165 200.98L149.91 454.48L130.23 455.77L79.26 308.78L87.62 134.27L89.39 97.4L112.05 116.01L123.23 125.18L131.98 102.91L148.25 117.09L165 200.98Z" fill="#6C63FF"/>
</g>
<g id="apron seven">
<path id="Vector_17" opacity="0.1" d="M99.87 455.76C99.201 457.418 98.692 459.135 98.35 460.89C84.0162 458.683 70.0946 454.338 57.05 448L56.78 447.86L56.87 446.25V445.41L61.87 436.09C61.87 436.09 102.27 449.89 99.87 455.76Z" fill="black"/>
</g>
<g id="apron six">
<path id="Vector_18" opacity="0.1" d="M135.38 460.93C131.719 461.556 128.027 461.98 124.32 462.2C124.1 457.2 123.97 453.75 123.97 453.75L135.05 451.51L135.38 460.93Z" fill="black"/>
</g>
<g id="apron five">
<path id="Vector_19" opacity="0.1" d="M164.58 454.93C157.47 456.78 146.48 458.86 136.66 457.56L136.52 451.23L163.34 445.84C163.34 445.84 164.05 450.8 164.58 454.93Z" fill="black"/>
</g>
<g id="apron four">
<path id="Vector_20" opacity="0.1" d="M136.48 458.72C95.48 465.72 57.93 445.65 57.93 445.65L58.29 438.85C58.29 438.85 59.22 361.76 56.64 355.85C54.06 349.94 52.05 320.01 53.51 315.44C54.97 310.87 48.18 241.87 48.18 241.87L47.08 213.87L6.78998 197.5L24.79 159.97C27.2206 154.709 29.3116 149.298 31.05 143.77C34.18 134.02 48.71 124.45 48.71 124.45C48.71 124.45 63.61 114.89 69.5 115.25C75.39 115.61 83.11 106.79 83.11 106.79C88.81 92.26 93.97 98.79 93.97 98.79C93.97 99.49 93.97 98.79 93.69 100.94C91.69 116.89 126.03 167.29 126.52 168.19L129.83 247.85L133.14 348.66L136.48 458.72Z" fill="black"/>
</g>
<g id="apron three">
<path id="Vector_21" d="M135.38 458.72C94.38 465.72 56.82 445.65 56.82 445.65L57.19 438.85C57.19 438.85 58.11 361.76 55.53 355.85C52.95 349.94 50.94 319.98 52.41 315.37C53.88 310.76 47.05 241.83 47.05 241.83L45.94 213.83L5.65997 197.46L23.66 159.93C26.085 154.67 28.1758 149.263 29.92 143.74C33.05 134.02 47.63 124.44 47.63 124.44C47.63 124.44 62.53 114.88 68.41 115.24C74.29 115.6 82.05 106.79 82.05 106.79C87.76 92.26 94.05 98.79 94.05 98.79C94.05 99.49 93.45 99.79 93.77 100.94C98.17 116.41 125.01 167.29 125.5 168.19L128.81 247.85L132.05 348.71L135.38 458.72Z" fill="white"/>
</g>
<g id="colar four">
<path id="Vector_22" opacity="0.1" d="M124.33 170.44C119.92 168.6 96.56 141.93 96.56 141.93V135.86C95.71 133.86 90.65 135.08 86.56 136.48L88.32 99.61L90.32 101.27C94.69 116.73 123.85 169.55 124.33 170.44Z" fill="black"/>
</g>
<g id="colar three">
<path id="Vector_23" d="M125.44 168.24C121.02 166.39 97.66 139.73 97.66 139.73V133.65C96.81 131.65 91.76 132.87 87.66 134.27L89.39 97.44L91.39 99.09C95.8 114.53 124.95 167.34 125.44 168.24Z" fill="white"/>
</g>
<g id="pocket four">
<path id="Vector_24" opacity="0.1" d="M57.93 301.24C58.48 301.24 86.44 298.3 86.44 298.3C86.44 298.3 103.37 331.6 102.26 339.69C101.15 347.78 99.14 354.96 92.33 353.69C85.52 352.42 55.68 354.69 55.68 354.69L57.93 301.24Z" fill="black"/>
</g>
<g id="pocket three">
<path id="Vector_25" d="M56.82 299.03C57.38 299.03 85.34 296.09 85.34 296.09C85.34 296.09 102.26 329.44 101.16 337.44C100.06 345.44 98.03 352.71 91.23 351.44C84.43 350.17 54.57 352.44 54.57 352.44L56.82 299.03Z" fill="white"/>
</g>
<g id="hand two">
<path id="Vector_26" d="M77.89 283.44C77.89 283.44 103.55 297.24 104.1 301.44C104.65 305.64 91.04 299.6 88.1 298.86C86.1637 298.4 84.1943 298.093 82.21 297.94L62.6 298.47L77.89 283.44Z" fill="#CF6F80"/>
</g>
<g id="button six">
<path id="Vector_27" opacity="0.1" d="M117.16 172.16C118.651 172.16 119.86 170.951 119.86 169.46C119.86 167.969 118.651 166.76 117.16 166.76C115.669 166.76 114.46 167.969 114.46 169.46C114.46 170.951 115.669 172.16 117.16 172.16Z" fill="black"/>
</g>
<g id="button five">
<path id="Vector_28" d="M117.16 171.06C118.651 171.06 119.86 169.851 119.86 168.36C119.86 166.869 118.651 165.66 117.16 165.66C115.669 165.66 114.46 166.869 114.46 168.36C114.46 169.851 115.669 171.06 117.16 171.06Z" fill="#3F3D56"/>
</g>
<g id="button four">
<path id="Vector_29" opacity="0.1" d="M122.13 289.04C123.621 289.04 124.83 287.831 124.83 286.34C124.83 284.849 123.621 283.64 122.13 283.64C120.639 283.64 119.43 284.849 119.43 286.34C119.43 287.831 120.639 289.04 122.13 289.04Z" fill="black"/>
</g>
<g id="button three">
<path id="Vector_30" d="M122.13 287.93C123.621 287.93 124.83 286.721 124.83 285.23C124.83 283.739 123.621 282.53 122.13 282.53C120.639 282.53 119.43 283.739 119.43 285.23C119.43 286.721 120.639 287.93 122.13 287.93Z" fill="#3F3D56"/>
</g>
<g id="button two">
<path id="Vector_31" opacity="0.1" d="M119.86 230.6C121.351 230.6 122.56 229.391 122.56 227.9C122.56 226.409 121.351 225.2 119.86 225.2C118.369 225.2 117.16 226.409 117.16 227.9C117.16 229.391 118.369 230.6 119.86 230.6Z" fill="black"/>
</g>
<g id="button one">
<path id="Vector_32" d="M119.86 229.5C121.351 229.5 122.56 228.291 122.56 226.8C122.56 225.309 121.351 224.1 119.86 224.1C118.369 224.1 117.16 225.309 117.16 226.8C117.16 228.291 118.369 229.5 119.86 229.5Z" fill="#3F3D56"/>
</g>
<g id="apron two">
<path id="Vector_33" d="M182.1 297.38C182.1 297.38 183.94 300.14 182.1 301.38C180.26 302.62 182.28 305.8 182.28 305.8C182.28 305.8 177.69 308.48 179.71 310.91C181.73 313.34 180.45 324.25 180.45 324.25L174.93 333.44C174.93 333.44 175.26 339.33 175.28 347.29C175.28 359.71 174.55 377.17 170.51 385.13L171.05 450.44C171.05 450.44 151.72 457.51 135.54 455.35L133.14 350.55C133.14 350.55 136.64 291.12 137.93 279.72C138.685 273.802 138.993 267.835 138.85 261.87C138.85 261.87 138.3 244.03 136.45 235.76C136.45 235.76 134.45 199.88 134.25 189.95C134.16 185.2 134.41 171.34 134.69 158.16C135 143.75 135.35 130.16 135.35 130.16L131.7 101.27C131.7 101.27 135.35 100.91 136.45 102.37C136.943 102.83 137.479 103.242 138.05 103.6C144.36 107.86 166.62 120.96 166.62 120.96C166.62 120.96 178.94 125.86 181.89 132.88C184.84 139.9 186.89 144.88 188.32 146.88C189.75 148.88 190.53 158.28 190.53 158.28C190.53 158.28 194.77 175.58 198.08 178.51C201.39 181.44 203.77 200.04 203.77 200.04L174.52 223.04C174.52 223.04 171.95 261.3 171.4 262.78C170.85 264.26 182.1 297.38 182.1 297.38Z" fill="white"/>
</g>
<g id="apron one">
<path id="Vector_34" d="M183.21 297.38C183.21 297.38 185.04 300.14 183.21 301.38C181.38 302.62 183.38 305.8 183.38 305.8C183.38 305.8 178.79 308.48 180.81 310.91C182.83 313.34 181.55 324.25 181.55 324.25L176.05 333.44C176.05 333.44 176.38 339.33 176.41 347.29C176.41 359.71 175.68 377.17 171.64 385.13L172.19 450.44C172.19 450.44 152.86 457.51 136.68 455.35L134.29 350.55C134.29 350.55 137.78 291.12 139.08 279.72C139.836 273.802 140.14 267.834 139.99 261.87C139.99 261.87 139.44 244.03 137.6 235.76C137.6 235.76 135.6 199.88 135.39 189.95C135.3 185.2 135.55 171.34 135.83 158.16C136.14 143.75 136.49 130.16 136.49 130.16L131.67 100.88C131.67 100.88 136.49 100.88 137.6 102.37C138.088 102.836 138.624 103.248 139.2 103.6V103.6C145.5 107.86 167.76 120.96 167.76 120.96C167.76 120.96 180.05 125.86 183.05 132.88C186.05 139.9 188.05 144.88 189.48 146.88C190.91 148.88 191.69 158.28 191.69 158.28C191.69 158.28 195.93 175.58 199.24 178.51C202.55 181.44 204.94 200.04 204.94 200.04L175.69 223.04C175.69 223.04 173.12 261.3 172.56 262.78C172 264.26 183.21 297.38 183.21 297.38Z" fill="white"/>
</g>
<g id="colar two">
<path id="Vector_35" opacity="0.1" d="M148.18 138.65L150.83 146.35L136.92 160.35C137.23 145.94 137.58 132.35 137.58 132.35L132.76 103.08C132.76 103.08 137.58 103.08 138.69 104.57C139.178 105.036 139.714 105.448 140.29 105.8V105.8L152.11 139.89L148.18 138.65Z" fill="black"/>
</g>
<g id="colar one">
<path id="Vector_36" d="M147.05 136.44L149.7 144.13L135.8 158.13C136.1 143.72 136.46 130.13 136.46 130.13L131.63 100.85C131.63 100.85 136.46 100.85 137.56 102.34C138.05 102.803 138.587 103.215 139.16 103.57V103.57L151.05 137.69L147.05 136.44Z" fill="white"/>
</g>
<g id="hair four">
<path id="Vector_37" opacity="0.1" d="M147.05 60.25C147.054 63.8532 146.487 67.4343 145.37 70.86C145.182 70.8915 144.989 70.8847 144.804 70.84C144.618 70.7953 144.443 70.7137 144.29 70.6C144.02 61.6 139.6 53.14 134.15 45.95C132.617 43.7814 130.763 41.8592 128.65 40.25C126.511 38.645 123.852 37.8929 121.19 38.14C118.19 38.55 115.54 40.59 112.51 40.85C108.51 41.18 104.93 38.41 100.96 38.28C99.3457 38.2934 97.753 38.6519 96.2887 39.3315C94.8244 40.011 93.5224 40.9959 92.47 42.22C90.3824 44.6822 88.8326 47.5536 87.92 50.65C86.3477 55.3484 85.4914 60.2567 85.38 65.21C85.33 68.01 85.06 71.52 82.46 72.54C82.6567 70.4822 82.4232 68.4061 81.7742 66.4435C81.1251 64.4808 80.0748 62.6747 78.69 61.14L78.63 61.07C78.63 60.79 78.63 60.53 78.63 60.25C78.63 51.1743 82.2353 42.4703 88.6528 36.0528C95.0703 29.6353 103.774 26.03 112.85 26.03C121.926 26.03 130.63 29.6353 137.047 36.0528C143.465 42.4703 147.07 51.1743 147.07 60.25H147.05Z" fill="black"/>
</g>
<g id="hair three">
<path id="Vector_38" d="M127.05 5.92002C121.854 3.47565 115.943 3.01333 110.43 4.62C107.66 5.44 105.05 6.77001 102.24 7.44001C96.24 8.89001 89.2399 7.32002 84.0899 10.83C81.2299 12.83 79.5099 15.99 77.9099 19.07L73.9099 26.68C71.7299 30.85 69.53 35.09 68.62 39.68C67.71 44.27 68.26 49.41 71.17 53.11C73.28 55.79 76.4199 57.48 78.7199 60.01C80.1017 61.5525 81.1492 63.3643 81.7963 65.3315C82.4434 67.2986 82.6762 69.3785 82.48 71.44C85.08 70.44 85.3399 66.91 85.3999 64.11C85.5123 59.1568 86.3686 54.2486 87.94 49.55C88.8526 46.4536 90.4024 43.5822 92.49 41.12C93.5418 39.8946 94.8435 38.9082 96.3078 38.2269C97.772 37.5457 99.365 37.1853 100.98 37.17C104.98 37.31 108.57 40.08 112.53 39.74C115.53 39.49 118.19 37.45 121.21 37.04C123.873 36.7881 126.534 37.5406 128.67 39.15C130.784 40.7542 132.636 42.6771 134.16 44.85C139.62 52.05 144.05 60.47 144.31 69.5C145.44 70.32 147.07 69.24 147.63 67.96C148.19 66.68 148.21 65.18 148.92 63.96C149.74 62.55 151.31 61.79 152.54 60.73C155.66 58.04 156.44 53.51 156.32 49.4C156.2 45.29 155.4 41.12 156.18 37.08C156.65 34.61 157.71 32.28 158.29 29.83C158.87 27.38 158.94 24.63 157.57 22.52C155.57 19.43 151.36 18.81 147.69 18.52C143.52 18.16 139.79 18.62 137.13 15.11C135.878 13.2807 134.473 11.5612 132.93 9.97001C132.38 9.44001 127.05 6.14002 127.05 5.92002Z" fill="#512E4E"/>
</g>
<g id="dress four">
<path id="Vector_39" opacity="0.1" d="M18.33 216.8L7.89001 197.49L4.58002 227.29C4.58002 227.29 6.41999 240.53 6.04999 242.56C5.67999 244.59 13.59 262.79 13.59 262.79C13.59 262.79 39.72 309.34 50.39 311.73L86.39 285.97L76.83 273.83C76.83 273.83 73.52 272.54 72.69 273.83C72.69 273.83 54.93 243.29 53.1 241.09C51.27 238.89 51.62 234.46 51.62 234.46C51.62 234.46 48.86 231.52 49.78 228.76C50.7 226 44.5 216.44 44.5 216.44L50.2 211.11L18.33 216.8Z" fill="black"/>
</g>
<g id="dress three">
<path id="Vector_40" d="M8.44 195.28L5.67999 197.49L2.37 227.29C2.37 227.29 4.20997 240.53 3.83997 242.56C3.46997 244.59 11.39 262.79 11.39 262.79C11.39 262.79 37.51 309.34 48.18 311.73L84.24 285.97L74.67 273.83C74.67 273.83 71.36 272.54 70.53 273.83C70.53 273.83 52.78 243.29 50.94 241.09C49.1 238.89 49.47 234.46 49.47 234.46C49.47 234.46 46.71 231.52 47.63 228.76C48.55 226 42.29 216.44 42.29 216.44L47.99 211.11L8.44 195.28Z" fill="white"/>
</g>
<g id="pocket two">
<path id="Vector_41" opacity="0.1" d="M179.71 312.06C181.71 314.49 180.45 325.41 180.45 325.41L174.93 334.54C174.93 334.54 175.26 340.44 175.28 348.4L166 351.3C165.16 351.562 164.27 351.619 163.403 351.467C162.536 351.315 161.719 350.958 161.018 350.425C160.317 349.893 159.754 349.201 159.375 348.407C158.996 347.613 158.813 346.739 158.84 345.86L160.45 294.26L182.1 302.53C180.26 303.81 182.28 306.95 182.28 306.95C182.28 306.95 177.69 309.63 179.71 312.06Z" fill="black"/>
</g>
<g id="pocket one">
<path id="Vector_42" d="M180.81 310.96C182.81 313.38 181.55 324.3 181.55 324.3L176.05 333.44C176.05 333.44 176.38 339.33 176.41 347.29L166.96 350.24C166.139 350.497 165.269 350.554 164.422 350.407C163.575 350.259 162.775 349.911 162.09 349.391C161.405 348.871 160.854 348.195 160.483 347.419C160.113 346.643 159.933 345.79 159.96 344.93L161.57 293.15L183.21 301.44C181.36 302.72 183.38 305.86 183.38 305.86C183.38 305.86 178.79 308.53 180.81 310.96Z" fill="white"/>
</g>
<g id="hand one">
<path id="Vector_43" d="M187.99 286.34C187.99 286.34 186.52 295.73 182.84 296.28C179.16 296.83 177.51 311.47 173.84 310.96C170.17 310.45 172.6 297.34 172.73 294.8C172.86 292.26 168.73 281.74 171.81 279.35C174.89 276.96 184.69 279.35 184.69 279.35L187.99 286.34Z" fill="#CF6F80"/>
</g>
<g id="dress two">
<path id="Vector_44" opacity="0.1" d="M195.77 214.04L202.7 200.04C202.7 200.04 205.47 210.71 205.47 216.41C205.47 222.11 209.33 222.67 209.33 222.67C209.33 222.67 213.56 227.67 211.33 231.32C209.1 234.97 208.21 244.01 208.21 244.01C208.21 244.01 208.94 261.3 205.63 263.69C202.32 266.08 201.58 271.79 201.58 271.79C201.58 271.79 195.51 282.64 195.7 285.22C195.89 287.8 187.24 305.27 187.24 305.27C187.24 305.27 191.47 283.56 166.82 274.18C166.82 274.18 166.63 266.82 168.47 264.8C170.31 262.78 173.18 261.8 171.38 251.64C169.58 241.48 170.86 229.23 170.86 226.78C170.86 224.33 176.38 209.06 176.38 209.06L195.77 214.04Z" fill="black"/>
</g>
<g id="dress one">
<path id="Vector_45" d="M198.85 198.04L204.91 200.04C204.91 200.04 207.68 210.71 207.68 216.41C207.68 222.11 211.54 222.67 211.54 222.67C211.54 222.67 215.77 227.67 213.54 231.32C211.31 234.97 210.41 244.01 210.41 244.01C210.41 244.01 211.15 261.3 207.84 263.69C204.53 266.08 203.84 271.79 203.84 271.79C203.84 271.79 197.77 282.64 197.96 285.22C198.15 287.8 189.49 305.27 189.49 305.27C189.49 305.27 193.72 283.56 169.07 274.18C169.07 274.18 168.89 266.82 170.73 264.8C172.57 262.78 175.44 261.8 173.64 251.64C171.84 241.48 173.12 229.23 173.12 226.78C173.12 224.33 178.64 209.06 178.64 209.06L198.85 198.04Z" fill="white"/>
</g>
<g id="pant two">
<path id="Vector_46" opacity="0.1" d="M64.97 560.91C64.97 560.91 74.63 554.84 80.97 559.25C87.31 563.66 64.97 560.91 64.97 560.91Z" fill="black"/>
</g>
<g id="pant one">
<path id="Vector_47" opacity="0.1" d="M140.05 542.14C140.05 542.14 148.6 541.04 155.78 548.77C162.96 556.5 140.05 542.14 140.05 542.14Z" fill="black"/>
</g>
<g id="face" opacity="0.1">
<path id="face three" opacity="0.1" d="M152.54 58.53C151.31 59.6 149.73 60.35 148.91 61.76C148.21 62.97 148.19 64.47 147.63 65.76C147.07 67.05 145.44 68.12 144.3 67.3C144.04 58.3 139.61 49.85 134.16 42.65C132.636 40.4802 130.784 38.5606 128.67 36.96C126.531 35.3473 123.867 34.5913 121.2 34.84C118.2 35.25 115.56 37.29 112.53 37.55C108.53 37.88 104.94 35.11 100.97 34.98C99.357 34.9923 97.7654 35.3503 96.3025 36.03C94.8396 36.7096 93.5396 37.6952 92.49 38.92C90.4024 41.3822 88.8526 44.2536 87.94 47.35C86.3686 52.0487 85.5123 56.9568 85.4 61.91C85.34 64.7 85.08 68.18 82.5 69.22C82.56 69.9621 82.56 70.7079 82.5 71.45C85.11 70.45 85.37 66.92 85.43 64.12C85.5423 59.1668 86.3985 54.2587 87.97 49.56C88.8826 46.4636 90.4324 43.5922 92.52 41.13C93.5703 39.9053 94.8704 38.9193 96.3329 38.2381C97.7954 37.5568 99.3867 37.1961 101 37.18C105 37.32 108.6 40.09 112.56 39.75C115.56 39.5 118.22 37.46 121.23 37.05C123.896 36.7984 126.56 37.5509 128.7 39.16C130.814 40.7642 132.666 42.6872 134.19 44.86C139.64 52.06 144.07 60.48 144.33 69.51C145.47 70.33 147.1 69.25 147.66 67.97C148.22 66.69 148.24 65.19 148.94 63.97C149.76 62.56 151.34 61.8 152.57 60.74C155.69 58.05 156.47 53.52 156.35 49.41C156.35 49.28 156.35 49.16 156.35 49.03C156.15 52.61 155.2 56.24 152.54 58.53Z" fill="black"/>
<path id="hair two" opacity="0.1" d="M78.71 57.83C76.42 55.3 73.28 53.6 71.17 50.92C69.3878 48.5543 68.3724 45.6998 68.26 42.74C67.9462 46.4408 68.9796 50.1305 71.17 53.13C73.28 55.81 76.42 57.5 78.71 60.03C80.9219 62.5034 82.2513 65.6404 82.49 68.95C82.6404 66.9375 82.3831 64.9154 81.7336 63.0047C81.0841 61.0939 80.0557 59.3339 78.71 57.83Z" fill="black"/>
<g id="hair one">
<path id="Vector_48" opacity="0.1" d="M158.29 27.63C157.7 30.08 156.65 32.41 156.17 34.88C155.882 36.5502 155.778 38.2471 155.86 39.94C155.893 38.9837 155.997 38.0311 156.17 37.09C156.65 34.62 157.7 32.29 158.29 29.84C158.629 28.4879 158.741 27.0888 158.62 25.7C158.556 26.3503 158.445 26.9952 158.29 27.63V27.63Z" fill="black"/>
</g>
</g>
</g>
<defs>
<linearGradient id="paint0_linear" x1="189525" y1="541106" x2="189525" y2="162484" gradientUnits="userSpaceOnUse">
<stop stop-color="#808080" stop-opacity="0.25"/>
<stop offset="0.54" stop-color="#808080" stop-opacity="0.12"/>
<stop offset="1" stop-color="#808080" stop-opacity="0.1"/>
</linearGradient>
</defs>
</svg>
