<svg width="376" height="376" viewBox="0 0 376 376" fill="none" xmlns="http://www.w3.org/2000/svg">
<g id="puppy">
<g id="pet">
<path id="pet 3" d="M63.4167 281.75V354.719C63.4167 354.719 63.4167 375.5 84.25 375.5C105.083 375.5 125.917 375.5 125.917 375.5C125.917 375.5 125.917 354.667 105.083 354.667V313L63.4167 281.75Z" fill="#B0BEC5"/>
<path id="pet 2" d="M167.583 250.5C146.75 281.75 105.083 313 105.083 313L63.4167 281.75C63.4167 281.75 94.6667 240.083 94.6667 188L167.583 250.5Z" fill="#B0BEC5"/>
<path id="pet 1" d="M240.5 250.5V354.719C240.5 354.719 240.5 375.5 261.333 375.5C282.167 375.5 303 375.5 303 375.5C303 375.5 303 354.667 282.167 354.667V219.25L240.5 250.5Z" fill="#B0BEC5"/>
</g>
<g id="full body">
<g id="Group">
<g id="leg three">
<path id="Vector" d="M209.25 250.5V354.719C209.25 354.719 209.25 375.5 230.083 375.5C250.917 375.5 271.75 375.5 271.75 375.5C271.75 375.5 271.75 354.667 250.917 354.667V250.5H209.25Z" fill="#CFD8DC"/>
</g>
<g id="leg two">
<path id="Vector_2" d="M209.25 271.333C178 271.333 146.75 250.5 146.75 250.5C146.75 250.5 115.5 229.667 94.6667 260.917C73.8333 292.167 42.5833 313 42.5833 313L0.916656 281.75C0.916656 281.75 32.1667 240.083 32.1667 188C32.1667 135.917 84.25 125.5 84.25 125.5H167.583L198.833 104.667L230.083 21.3333C230.083 21.3333 240.5 0.520813 261.333 0.520813C282.167 0.520813 282.167 0.520813 282.167 0.520813C282.167 0.520813 309.104 2.30206 323.833 31.7708C334.25 52.6041 375.917 63.0208 375.917 63.0208C375.917 63.0208 375.917 115.083 313.417 115.083C292.583 115.083 292.583 125.5 292.583 135.917C292.583 135.917 292.583 188 292.583 198.417C292.583 229.667 261.333 250.5 250.917 260.917" fill="#CFD8DC"/>
</g>
<g id="leg one">
<path id="Vector_3" d="M0.916656 281.75V354.719C0.916656 354.719 0.916656 375.5 21.75 375.5C42.5833 375.5 63.4167 375.5 63.4167 375.5C63.4167 375.5 63.4167 354.667 42.5833 354.667V313L0.916656 281.75Z" fill="#CFD8DC"/>
</g>
</g>
</g>
<g id="body">
<path id="Vector_4" d="M292.583 198.417C292.583 188 292.583 135.917 292.583 135.917C292.583 125.5 292.583 115.083 313.417 115.083C313.417 115.083 344.667 63 323.833 31.7708C309.104 2.30206 282.167 0.520813 282.167 0.520813C282.167 0.520813 282.167 0.520813 261.333 0.520813C240.5 0.520813 230.083 21.3333 230.083 21.3333L198.833 104.667L167.583 125.5H84.25C84.25 125.5 32.1667 135.917 32.1667 188C32.1667 240.083 0.916656 281.75 0.916656 281.75C0.916656 281.75 73.8333 292.167 94.6667 260.917C115.5 229.667 146.75 250.5 146.75 250.5C146.75 250.5 175.51 271.333 209.25 271.333C242.99 271.333 292.583 262.01 292.583 198.417Z" fill="#CC6C25"/>
</g>
<g id="ear">
<path id="Vector_5" d="M240.5 31.75L230.083 94.25C230.083 94.25 240.5 125.5 261.333 135.917C282.167 146.333 303 135.917 303 104.667C303 94.25 303 83.8333 303 83.8333L271.75 21.3333L240.5 31.75Z" fill="#894415"/>
</g>
<g id="eyes">
<path id="Vector_6" d="M320.781 45.2188C324.854 49.2917 324.854 55.875 320.781 59.9479C316.708 64.0208 303 63 303 63C303 63 301.979 49.2917 306.052 45.2188C310.125 41.1458 316.708 41.1458 320.781 45.2188Z" fill="#3E2723"/>
</g>
<g id="nose">
<path id="Vector_7" d="M375.917 63.0208C375.917 63.0208 369.052 61.2708 360.229 57.8542L358.135 59.9479C354.062 64.0208 354.062 70.6042 358.135 74.6771L369.635 86.1771C375.833 74.1875 375.917 63.0208 375.917 63.0208Z" fill="#5D4037"/>
</g>
<g id="tail">
<g id="tail3">
<path id="Vector_8" d="M219.667 49.1042L198.833 104.667L167.583 125.5H84.25C84.25 125.5 61.6875 128.562 46.2708 148.083C54.5833 161.646 84.4687 213.417 115.24 244.896C131.521 240.396 146.75 250.5 146.75 250.5C146.75 250.5 159.302 258.854 176.437 264.979C201.896 253.604 219.667 228.115 219.667 198.417V49.1042Z" fill="#6D350F"/>
</g>
<g id="tail 2">
<path id="Vector_9" d="M63.4062 156.75C61.9896 156.75 60.5625 156.469 59.1875 155.854C57.4167 155.062 15.5625 136.042 3.46873 94.3437C-4.46877 67 2.27082 36.9792 23.5 5.13541C26.6979 0.34374 33.1562 -0.958343 37.9479 2.24999C42.7292 5.44791 44.0208 11.9062 40.8333 16.6979C23.2083 43.125 17.3542 67.2604 23.4271 88.3958C32.7187 120.75 83.8958 125.344 84.25 125.5C89.4792 127.865 75.2604 145.333 72.9167 150.583C71.1771 154.448 67.3854 156.75 63.4062 156.75Z" fill="#6D350F"/>
</g>
</g>
</g>
</svg>
