<svg width="1163" height="1024" viewBox="0 0 1163 1024" fill="none" xmlns="http://www.w3.org/2000/svg">
<g id="shiba">
<g id="body">
<path id="Vector" d="M992.004 -402.402C1049.77 -420.979 1090.7 -265.428 1082.92 -187.943C1080.18 -165.432 1072.02 -144.809 1069.36 -134.903C1097.68 -110.104 1097.12 -66.833 1102.47 -33.272C1103.03 -30.414 1103.08 -27.062 1105.62 -25.13C1121.43 -10.428 1111.7 8.06598 1108.19 21.268C1102.58 43.516 1096.45 90.186 1093.3 112.151C1092.99 115.251 1091.23 117.992 1090.92 121.084C1093.1 128.6 1100.21 129.142 1105.43 161.407C1107.85 199.773 1116.82 191.07 1133.33 261.007C1140.59 292.184 1138.56 317.223 1151.62 346.713C1167.33 383.737 1163.36 421.446 1154.03 460.719C1138.45 522.117 1137.38 510.086 1136.05 555.178C1132.31 677.334 1122.45 585.626 1109.52 672.913C1101.34 744.838 1081.01 832.611 1090.69 902.874C1097.1 946.458 1099.12 989.674 1109.67 1016.88C1114.24 1031.12 1132.42 1090.92 1132.71 1092.4C1130.04 1117.43 1120.8 1119.11 1112.48 1120.56C1088.33 1150.39 1066.53 1156.65 1040.17 1129.05C1004.36 1141.98 992.131 1128.73 982.333 1106.36C977.675 1097.61 976.213 1104.18 959.669 1087.71C951.221 1078.6 954.119 1079.99 958.087 1053.14C961.33 1032.67 957.246 1023.7 956.982 1017.09C954.463 944.92 926.79 895.017 923.012 883.741C920.154 883.139 917.243 882.645 914.762 881.018C898.156 901.369 881.171 889.517 877.764 922.258C876.452 919.688 875.616 916.578 873.082 914.934C869.501 913.463 864.745 930.675 861.246 937.814C847.739 939.649 844.084 954.742 833.261 960.308C828.57 962.68 824.84 966.428 821.399 970.319C825.832 989.337 823.185 1005.24 831.878 1044.08C833.478 1051.5 839.562 1056.51 844.064 1062.2C856.76 1079.19 887.372 1082.78 889.007 1097.95C889.897 1109.32 890.391 1120.83 888.737 1132.17C887.893 1137.29 893.258 1154.95 880.128 1168.98C874.642 1174.77 866.733 1179.66 859 1176.54C856.79 1197.18 850.633 1189.24 837.953 1188.6C833.666 1187.77 829.586 1189.54 825.434 1190.09C817.337 1189.03 809.105 1189.13 801.071 1190.71C791.824 1192.14 782.846 1195.89 773.383 1195.49C768.935 1195.47 765.942 1191.95 763.066 1189.09C730.925 1158.04 688.209 1092.01 672.893 1033.1C677.595 1067.17 695.503 1082.6 669.936 1103.55C658.092 1103.95 646.759 1108.21 634.924 1108.67C630.314 1108.9 626.054 1106.95 621.696 1105.82C558.263 1088 507.707 1121.45 437.1 1117.55C419.702 1112.56 403.076 1104.5 384.977 1102.06C380.286 1101.36 375.514 1101.66 370.823 1101.03C366.024 1100.3 362.133 1096.93 357.325 1096.24C348.904 1094.65 340.628 1098.41 332.189 1097.51C323.147 1096.71 325.152 1093.73 308.698 1092.76C209.821 1087.45 235.055 1122.26 154.692 1079.52C131.569 1066.92 132.625 1053.42 106.712 1025.88C55.195 973.329 27.453 891.241 26.461 822.948C26.542 817.978 23.666 813.575 23.765 808.623C23.612 795.125 24.268 781.636 24.34 768.147C24.025 738.641 16.166 751.439 3.751 700.585C1.666 690.789 -0.562997 680.491 1.756 670.551C2.071 667.792 4.883 667.154 6.932 666.067C9.626 640.712 24.714 608.916 37.613 592.421C39.824 589.536 42.637 587.173 44.757 584.216C47.201 580.747 47.228 576.254 49.205 572.578C50.068 570.879 52.332 570.646 53.501 572.156C64.159 581.269 61.508 597.732 71.295 607.447C73.101 609.155 74.791 611.671 77.505 611.77C80.408 609.407 81.378 605.443 84.29 603.125C99.877 597.457 87.385 626.346 112.625 654.367C113.311 653.367 217.978 480.467 254.157 440.402C268.261 424.572 279.738 417.327 287.731 404.779C290.625 400.367 292.476 395.37 295.469 391.02C309.542 369.344 325.08 348.666 339.845 327.457C365.683 291.663 348.508 275.956 373.617 261.306C373.015 255.042 370.049 249.372 368.728 243.279C367.223 239.49 388.548 226.447 397.261 215.914C391.752 214.395 385.974 213.757 380.707 211.421C402.341 192.828 419.886 166.666 416.456 146.303C409.546 113.744 401.082 119.058 404.441 39.307C404.306 32.612 405.241 25.279 401.709 19.249C315.954 -145.945 346.729 -179.353 350.97 -229.279C354.666 -260.701 362.678 -274.904 379.054 -292.896C384.575 -298.519 412.698 -295.997 433.001 -288.052C452.331 -280.737 469.577 -269.153 487.371 -258.845C516.011 -241.975 507.108 -251.504 538.658 -225.873C602.973 -279.498 552.84 -248.11 625.65 -284.359C622.693 -281.699 622.019 -277.736 623.071 -274.006C707.746 -282.274 769.88 -322.085 841.637 -285.105C873.416 -269.639 885.545 -310.349 940.725 -366.57C955.455 -381.409 972.071 -395.258 992.004 -402.402ZM988.391 -360.299C977.647 -353.963 965.337 -356.475 942.002 -328.504C933.916 -318.723 905.943 -277.896 905.3 -275.383C902.047 -265.165 904.347 -254.408 904.59 -243.965C918.925 -233.606 937.314 -235.439 954.421 -239.912C957.773 -248.647 960.909 -257.454 964.199 -266.216C965.969 -257.786 967.677 -249.348 969.456 -240.918C973.743 -251.666 977.975 -262.432 982.262 -273.18C983.619 -263.753 984.805 -254.299 986.261 -244.881C991.365 -259.52 996.173 -274.25 1001.21 -288.916C999.112 -269.595 996.937 -250.291 994.843 -230.979C1003.11 -237.899 1011.34 -244.872 1019.62 -251.801C1012.54 -239.831 1005.4 -227.887 998.302 -215.926C1006.46 -218.119 1014.64 -220.222 1022.77 -222.531C1013.67 -214.829 1009.85 -202.536 1010.39 -190.898C1022.01 -177.623 1033.57 -156.448 1041.08 -155.652C1068.18 -177.091 1055.29 -309.107 1024.77 -352.264C1008.28 -373.265 1001.3 -366.937 988.391 -360.299ZM387.466 -253.07C384.168 -249.396 376.568 -212.758 375.954 -209.493C373.501 -196.453 374.04 -183.126 373.833 -169.924C371.953 -120.145 394.493 -70.106 425.39 -29.165C433.766 -36.894 438.78 -47.462 442.276 -58.129C443.79 -62.266 440.06 -95.761 439.868 -97.194C437.774 -103.88 435.024 -110.351 432.715 -116.956C436.561 -117.998 440.408 -119.059 444.236 -120.2C438.952 -123.938 433.731 -127.758 428.473 -131.514C435.24 -131.199 442.007 -130.858 448.783 -130.543C443.894 -141.345 438.978 -152.129 434.117 -162.931C445.117 -153.306 456.072 -143.618 467.053 -133.967C467.502 -141.102 467.952 -148.247 468.41 -155.382C473.55 -146.629 478.628 -137.849 483.759 -129.096C486.527 -136.69 489.259 -144.293 492.036 -151.877C494.346 -142.863 496.565 -133.832 498.893 -124.818C499.603 -129.024 500.277 -133.239 501.095 -137.417C501.634 -137.435 502.704 -137.453 503.243 -137.471C506.64 -132.825 510.127 -128.242 513.524 -123.587C510.519 -139.582 507.172 -167.893 521.181 -176.007C523.284 -177.526 525.944 -176.771 528.343 -176.888C526.874 -185.357 433.057 -261.543 387.466 -253.07ZM851.083 -84.676C849.097 -86.024 847.111 -87.372 845.134 -88.702C832.034 -69.077 817.221 -36.886 822.083 -14.481C825.616 3.43698 827.888 3.92897 832.939 5.89197C836.192 10.421 840.254 14.744 845.736 16.442C870.289 24.205 883.925 -13.731 898.578 -46.025C898.61 -67.709 896.959 -65.548 887.237 -89.943C883.606 -89.44 879.976 -88.927 876.345 -88.424C875.257 -91.524 874.17 -94.616 873.092 -97.707C869.65 -95.406 866.19 -93.151 862.766 -90.859C862.092 -93.205 861.328 -95.523 860.483 -97.797C857.293 -93.465 854.219 -89.053 851.083 -84.676ZM646.725 -56.764C645.503 -54.796 644.281 -52.819 643.067 -50.842C639.266 -52.001 635.473 -53.17 631.681 -54.329C631.546 -52.675 631.411 -51.022 631.295 -49.368C628.123 -49.413 624.95 -49.467 621.787 -49.512C621.392 -45.944 621.005 -42.377 620.61 -38.809C618.372 -39.357 616.126 -39.905 613.897 -40.436C612.634 -34.776 606.14 -7.38502 609.485 -3.56302C617.133 7.37398 625.436 18.49 637.029 25.518C640.609 27.844 693.303 51.235 703.854 28.106C709.946 14.032 709.979 -8.98605 706.092 -24.709C702.826 -39.344 684.918 -49.702 667.539 -54.275C663.944 -55.416 660.547 -53.08 657.195 -52.127C653.698 -53.672 650.203 -55.218 646.725 -56.764ZM1045.04 -16.934C1037.56 -4.35302 1030.63 9.23496 1029.56 24.081C1026.01 20.109 1023.28 15.526 1020.61 10.951C1023.24 28.042 1023.08 82.406 1038.68 106.336C1034.66 107.093 1030.64 106.596 1031.48 113.067C1032.32 119.654 1036.3 125.181 1038.9 131.139C1027.82 133.997 1016.91 128.74 1006.02 127.32C1002.36 126.774 964.929 127.737 948.508 124.426C939.908 122.898 932.377 117.668 923.525 117.219C928.904 128.015 964.329 159.159 968.54 185.428C971.202 202.446 973.863 223.785 964.262 230.263C961.386 231.539 960.604 227.603 959.939 225.689C975.69 201.611 944.38 128.32 899.97 116.698C892.646 114.874 886.912 109.563 879.93 106.929C872.947 104.296 865.992 101.609 859.117 98.7329C868.533 119.997 869.407 120.708 869.398 124.687C869.919 137.017 877.72 147.558 878.502 159.834C880.042 180.005 873.084 191.481 851.623 189.23C846.483 188.736 841.711 185.572 839.886 180.639C837.594 187.577 831.232 192.106 825.004 195.278C817.293 196.716 809.322 195.386 801.549 196.356C797.379 200.786 793.767 206.52 787.745 208.65C784.402 207.778 781.418 205.963 778.354 204.435C768.641 210.519 750.168 224.159 740.942 217.358C737.177 214.788 736.512 209.522 732.414 207.32C729.988 202.935 727.912 198.369 725.647 193.894C734.224 158.327 730.498 140.868 725.458 114.793C681.308 170.675 649.102 224.624 554.045 227.954C549.588 228.313 544.708 226.184 543.261 221.681C537.096 203.792 547.518 202.994 538.642 155.233C537.635 150.524 537.806 145.312 534.805 141.277C523.059 123.16 501.68 112.528 480.39 111.504C456.566 110.44 454.141 106.36 457.411 142.005C454.535 139.444 451.615 136.945 448.649 134.492C453.598 147.166 449.383 153.195 460.413 169.792C463.091 173.656 465.023 178.204 468.789 181.196C488.783 197.972 478.733 193.644 483.716 200.311C489.593 208.983 497.574 215.903 504.332 223.847C503.281 219.866 502.247 215.759 503.02 211.625C509.789 215.347 514.718 235.332 517.111 245.235C519.798 259.86 559.086 287.656 568.982 296.72C574.59 300.656 581.554 301.878 588.151 303.181C589.696 303.376 589.254 302.77 607.949 322.458C612.206 326.751 617.586 325.016 625.302 328.542C643.976 336.576 662.732 344.467 681.559 352.123C695.883 362.004 717.831 382.966 742.813 381.608C844.053 385.157 840.358 378.946 860.935 375.686C918.151 365.115 903.027 370.973 988.106 293.646C992.662 289.647 994.774 283.689 999.097 279.456C1004.8 272.887 1013.84 268.564 1016.07 259.505C1018.11 250.116 1050.05 196.35 1050.69 195.349C1059.46 180.305 1059.79 162.368 1065.48 146.228C1073 122.368 1065.94 123.432 1065.98 114.828C1065.32 105.751 1071.71 98.4629 1073.99 90.0789C1076.86 81.8199 1075.67 72.986 1076.48 64.44C1077.46 54.069 1082.04 44.579 1085.6 34.937C1091.35 19.588 1089.03 11.855 1079.94 -13.546C1077.68 -19.723 1070.23 -40.842 1063.69 -40.353C1056.05 -33.847 1050.39 -25.346 1045.04 -16.934ZM893.195 -3.49902C888.099 0.0329766 885.215 5.65797 882.186 10.88C879.697 15.409 875.958 19.103 873.613 23.731C871.582 27.64 869.668 31.612 867.385 35.387C870.423 36.888 874.467 37.697 875.581 41.399C878.933 49.298 886.455 54.286 894.013 57.683C883.066 50.956 878.037 43.137 881.719 26.005C887.736 0.015974 905.003 -7.96802 929.286 -6.78802C921.466 -8.34702 907.749 -13.726 893.195 -3.49902ZM943.619 -2.96002C981.749 16.536 972.415 66.4519 913.981 63.8289C942.823 69.3919 973.775 57.152 976.007 16.02C976.717 13 978.595 10.457 980.087 7.78796C978.874 5.63096 978.092 3.27698 978.442 0.777985C974.901 2.17998 971.369 4.11196 967.559 4.48096C959.607 1.93796 951.671 -0.722022 943.619 -2.96002ZM909.56 15.696C906.927 17.044 905.929 20.046 904.707 22.535C902.496 26.354 904.788 30.857 907.178 33.984C911.806 37.381 917.917 37.093 923.381 37.435C932.744 26.735 930.929 24.73 923.264 17.988C919.652 14.627 914.035 13.459 909.56 15.696ZM640.524 41.947C653.752 44.445 666.657 49.649 677.235 58.096C687.867 65.985 677.358 98.644 670.693 110.668C687.562 95.089 683.949 77.3999 689.296 70.3449C691.435 67.7389 694.418 66.0399 696.98 63.9019C688.961 49.9059 683.978 52.177 678.701 50.287C672.752 48.238 667.063 45.488 661.006 43.79C654.381 41.848 647.381 41.102 640.524 41.947ZM592.993 72.987C590.45 77.606 586.352 80.877 582.523 84.364C582.999 89.289 588.913 90.43 592.768 91.805C594.335 109.166 619.277 122.029 636.704 123.735C642.518 124.427 648.027 122.225 653.491 120.626C637.405 122.405 620.474 117.103 608.468 106.229C599.753 91.613 597.41 70.243 611.209 53.558C604.379 59.273 598.825 66.301 592.993 72.987ZM641.512 68.529C632.947 71.549 628.385 75.478 634.224 87.653C635.976 90.969 638.924 94.483 642.986 94.537C648.389 91.705 659.246 87.247 652.395 74.029C650.4 70.21 646.024 66.624 641.512 68.529ZM1016.3 358.819C1009.87 360.824 995.718 398.652 995.212 399.655C993.019 403.897 988.759 406.431 986.01 410.25C980.375 417.628 975.666 425.653 970.463 433.337C956.19 454.072 957.93 445.034 951.573 448.561C937.812 455.358 936.002 460.636 928.989 474.569C924.415 484.543 921.356 484.197 910.719 517.481C908.25 525.93 905.926 533.065 914.404 536.272C918.906 536.128 921.764 532.264 924.074 528.885C927.956 523.313 936.17 526.018 940.61 521.228C953.776 508.566 966.132 495.086 978.363 481.534C999.979 458.82 1044.04 350.114 1016.3 358.819ZM567.785 390.093C565.453 394.772 608.209 465.053 653.635 496.109C673.908 509.381 671.257 504.713 679.031 498.688C686.742 503.73 693.356 510.29 701.273 515.035C705.425 517.776 710.7 517.515 714.969 520.041C716.883 521.335 719.103 520.742 721.143 520.131C739.726 527.954 760.12 522.026 776.339 536.136C778.963 538.284 782.126 541.249 785.802 539.704C788.732 538.509 792.21 537.26 793.809 534.348C794.049 532.211 786.1 507.976 779.817 500.27C758.047 473.508 765.952 487.783 757.125 474.316C745.431 456.173 742.524 460.799 731.926 458.949C723.856 458.59 717.206 453.485 709.612 451.481C703.807 450.465 697.875 450.879 692.016 450.564C688.889 446.529 687.118 441.703 684.359 437.452C682.499 434.477 677.951 432.725 675.094 435.34C672.829 436.724 671.14 439.824 668.21 439.564C664.265 436.527 662 431.494 657.327 429.382C653.436 428.151 650.371 431.629 647.549 433.705C644.946 430.154 635.267 411.409 627.913 419.641C625.576 422.103 626.25 425.734 626.161 428.816C623.052 426.974 619.798 425.329 617.102 422.912C612.178 418.402 601.654 400.774 589.531 396.392C585.801 394.909 572.051 383.573 567.785 390.093ZM1085.31 481.515C1083.76 483.762 1081.63 485.577 1078.96 486.323C1072.31 483.744 1068.86 495.648 1065.94 502.724C1063.17 511.073 1055.7 516.384 1049.64 522.27C1043.64 527.096 1038.07 533.701 1029.98 534.681C1030.01 531.545 1030.6 528.471 1031.28 525.434C1010 534.012 988.42 555.388 969.617 568.552C969.572 566.449 969.455 564.328 969.285 562.252C932.7 596.51 897.27 612.675 882.051 608.614C883.615 605.873 885.52 603.357 887.362 600.805C880.909 602.234 874.772 605.065 869.442 608.965C868.561 613.252 865.326 616.595 861.183 617.871C860.078 612.874 859.467 607.797 859.197 602.701C857.472 609.594 856.465 618.643 848.862 621.609C838.923 616.936 829.19 611.777 820.069 605.631C794.565 588.701 810.78 597.681 778.982 586.336C788.408 594.804 792.167 612.399 785.048 612.982C778.432 613.676 770.136 598.528 760.73 592.052C737.164 576.76 731.565 568.385 692.961 560.715C696.006 567.32 704.15 571.422 702.469 574.941C694.836 581.623 675.345 568.405 669.542 566.79C669.048 569.845 669.039 572.946 669.209 576.046C663.916 571.139 660.312 564.228 653.797 560.796C653.77 563.932 654.345 567.015 654.965 570.088C652.422 566.799 650.049 563.339 646.841 560.652C645.583 564.436 643.956 569.324 639.418 570.079C633.783 567.213 616.208 551.531 610.714 543.308C611.28 547.289 611.685 551.297 612.152 555.305C589.352 544.88 565.375 527.047 554.637 522.494C554.26 526.781 555.401 530.978 555.904 535.21C541.383 529.324 517.644 514.234 502.936 510.865C512.842 529.157 546.588 554.078 541.094 562.53C545.021 564.318 549.569 565.1 552.723 568.264C565.364 580.171 562.668 589.068 556.74 589.365C554.188 589.104 551.662 588.61 549.11 588.403C559.661 604.868 576.752 602.36 587.331 611.751C584.5 615.31 580.357 617.305 576.772 619.956C581.876 622.706 588.347 621.016 592.912 624.962C622.712 643.843 649.403 640.416 686.796 683.034C746.108 751.245 702.833 712.288 759.085 753.517C756.497 753.454 753.927 753.706 751.446 754.407C757.395 759.098 765.07 760.949 772.376 762.36C776.582 763.402 779.709 760.05 783.268 758.577C788.453 757.346 794.142 761.884 794.025 767.24C794.025 772.77 783.449 780.987 776.24 791.792C771.099 799.403 760.068 835.967 758.851 846.341C757.308 859.411 760.205 937.442 736.177 943.137C709.08 949.565 663.578 942.689 648.853 910.578C645.798 904.206 642.176 898.122 638.33 892.209C649.66 915.86 652.205 933.072 626.099 935.651C645.066 970.958 678.138 996.984 685.079 1027.85C692.585 1061.21 703.668 1076.49 706.351 1083.3C717.677 1115.08 729.809 1136.64 752.336 1154.99C760.212 1185.92 789.751 1189.91 797.962 1183.22C786.739 1173.07 765.322 1153.48 773.293 1140.67C798.369 1161.59 800.952 1177.01 813.356 1181.99C823.377 1185.89 843.662 1183.47 846.58 1180.19C857.33 1168.62 819.642 1126.67 802.599 1127.3C804.989 1125.31 807.658 1123.22 810.939 1123.31C828.911 1123.31 859.607 1156.39 864.59 1169.37C890.659 1146.98 863.868 1112.99 835.15 1096.86C840.651 1092.06 862.051 1103.1 877.055 1122.27C887.528 1096.2 857.401 1070.01 833.91 1068C819.501 1061.19 816.887 1045.19 811.344 992.358C799.688 944.03 806.103 921.655 806.815 906.508C809.452 870.655 811.012 816.443 821.005 812.974C824.016 813.046 826.712 816.218 826.208 819.247C818.188 901.786 806.054 934.064 821.93 951.882C828.23 946.957 832.66 940.199 837.72 934.106C843.57 927.636 850.472 922.262 857.248 916.807C894.517 886.798 881.305 882.911 896.367 858.906C898.416 855.491 901.795 852.948 905.839 852.579C907.025 859.148 905.74 865.96 907.421 872.458C912.858 864.909 913.505 854.395 920.892 848.203C923.75 853.11 921.593 859.329 924.442 864.226C925.619 866.041 928.028 865.385 929.187 863.893C935.649 856.883 940.061 848.274 946.289 841.076C948.527 843.727 950.576 846.675 951.34 850.126C944.758 860.585 929.543 860.503 940.897 893.496C953.928 932.894 959.715 974.134 969.34 1014.39C970.523 1022.26 963.652 1049.51 963.13 1068.3C963.13 1073.99 963.445 1080.76 968.181 1084.72C972.737 1088.22 978.875 1087.12 984.097 1086.08C986.461 1076.17 993.254 1067.71 1001.49 1061.94C1006.74 1058.29 1014.11 1056.22 1019.94 1059.79C1026.33 1063.65 1028.95 1071.08 1031.31 1077.76C1029.33 1074.82 1027.03 1071.88 1023.67 1070.47C1007.73 1063.1 986.786 1079.85 997.442 1103.82C1002.07 1110.55 1008.63 1115.99 1015.95 1119.59C1020.39 1121.67 1026.33 1123.2 1030.45 1119.68C1034.41 1116.06 1034.54 1110.29 1034.99 1105.34C1035.91 1096.51 1036.37 1087.28 1040.46 1079.21C1042.98 1074.16 1047.96 1070.4 1053.61 1069.73C1060.36 1068.76 1068.08 1065.93 1074.27 1070.27C1075.85 1071.14 1077.46 1074.3 1074.89 1074.9C1070.2 1075.35 1065.3 1076.6 1062.13 1080.35C1055.83 1087.51 1055.74 1097.62 1052.04 1106.04C1065.02 1149.12 1099.28 1122.83 1091.61 1086.94C1092.47 1085.16 1093.33 1083.39 1094.22 1081.65C1096.02 1083.45 1098.4 1085.27 1098.3 1088.11C1098.34 1093.6 1096.91 1099.4 1099.09 1104.68C1100.59 1108.23 1105 1109.17 1108.46 1108.64C1111.6 1106.9 1112.83 1103.18 1114.29 1100.09C1115.42 1097.02 1117.2 1094.12 1117.75 1090.88C1117.21 1081.1 1115.18 1071.41 1112.19 1062.09C1107.18 1047.21 1100.19 1033.08 1095.28 1018.15C1095.56 1017.96 1096.12 1017.54 1096.41 1017.34C1093.51 970.333 1074.09 921.516 1073.54 877.817C1073.69 874.851 1071.66 872.506 1070.9 869.783C1068.75 862.908 1071.14 855.099 1067.58 848.619C1062.12 840.701 1041.67 844.025 1037.66 847.388C990.492 882.503 1006.98 829.977 1001.43 806.948C995.547 797.671 949.52 772.509 972.109 755.804C1004.46 732.123 991.643 701.52 999.195 683.991C1005.53 675.508 1019.44 662.263 1015.55 651.98C1020.62 638.016 1033.06 632.062 1047.62 620.023C1044.07 620.805 1040.52 621.623 1036.97 622.414C1052.42 605.546 1065.86 586.818 1076.44 566.508C1068.79 569.172 1065.55 572.494 1062.89 571.208C1059.66 564.267 1097.4 536.305 1099.72 534.461C1083.55 524.992 1110.74 495.043 1105.12 469.667C1096.85 469.589 1090.02 475.224 1085.31 481.515ZM447.013 718.045C491.746 774.534 481.274 776.311 484.038 798.638C510.468 825.919 520.635 864.705 509.192 891.022C507.149 886.013 508.408 885.819 500.412 887.67C501.157 899.65 503.024 930.52 501.122 942.094C489.237 941.271 457.828 923.081 472.805 943.577C463.459 939.65 453.295 938.032 443.212 937.718C440.498 940.342 437.802 943.002 435.178 945.734C412.422 942.266 414.167 937.932 398.89 956.356C375.499 986.005 377.703 986.677 380.422 1000.27C381.896 1007.75 384.511 1015.58 382.381 1023.19C379.973 1020.39 378.849 1016.14 375.192 1014.67C366.443 1018.78 375.797 1028.53 376.073 1036.06C372.442 1039.07 367.356 1040.26 364.606 1044.32C362.305 1047.72 360.49 1051.44 358.109 1054.81C354.018 1061.29 355.687 1056.62 353.023 1075.76C358.954 1075.76 364.894 1075.2 370.817 1075.55C377.908 1078.74 381.925 1086.43 389.294 1089.25C408.696 1097.5 430.354 1095.13 450.628 1099.51C486.221 1107.06 493.256 1105.49 518.738 1097.85C565.053 1084.01 542.809 1088.91 608.39 1090.18C607.162 1063.96 558.838 1055.5 551.72 1040.66C571.471 1027.83 613.894 1073.41 621.376 1090.19C640.809 1099.59 647.424 1075.79 644.58 1070.41C639.961 1060.56 632.187 1052.67 626.517 1043.47C624.677 1041.14 628.192 1033.36 638.82 1043.62C648.142 1053.19 659.537 1072.82 654.565 1085.22C679.461 1061.55 669.511 1041.21 639.917 1023.78C618.188 1010.93 580.235 998.245 570.162 996.427C530.537 988.36 542.186 988.193 521.786 990.001C509.528 991.232 497.405 993.677 485.102 994.459C518.564 985.509 544.087 984.711 557.526 968.55C566.254 958.006 576.759 933.992 576.946 898.525C577.086 872.253 568.238 859.19 562.181 843.472C558.919 835.609 552.79 829.462 548.62 822.128C546.266 818.075 546.346 813.213 544.585 808.953C535.032 783.537 508.62 760.316 485.246 736.313C479.836 730.885 474.336 725.304 467.479 721.727C461.167 718.495 453.905 718.522 447.013 718.045Z" fill="black"/>
</g>
<g id="spot">
<path id="Vector_2" d="M700.329 139.701C702.419 138.611 705.399 138.541 707.149 140.301C708.019 142.061 706.779 143.711 706.029 145.251C702.219 151.921 697.589 158.081 692.949 164.191C690.489 167.441 687.679 170.511 686.009 174.281C679.969 187.681 678.229 202.611 678.679 217.191C679.189 231.981 681.799 246.701 686.219 260.831C687.609 265.641 689.939 270.181 690.849 275.141C691.959 277.741 687.889 280.261 686.139 278.091C679.659 272.011 673.579 265.041 670.539 256.571C668.769 251.551 666.919 246.481 666.639 241.131C665.679 228.101 666.959 215.041 668.539 202.111C670.139 191.981 671.059 181.391 676.069 172.231C680.949 162.891 686.279 153.651 693.209 145.661C695.289 143.361 697.519 141.081 700.329 139.701Z" fill="black" stroke="black" stroke-width="0.0938"/>
</g>
<g id="mouth">
<path id="Vector_3" d="M818.989 198.221C845.539 187.181 875.369 181.011 903.829 187.651C913.319 190.291 920.509 199.381 921.079 209.181C921.639 217.821 921.289 226.501 921.659 235.161C921.969 243.011 921.259 251.781 915.519 257.761C910.519 262.431 906.679 268.581 900.229 271.471C893.819 275.141 886.309 275.961 879.669 278.961C877.169 280.151 878.699 282.951 879.389 284.801C880.929 288.091 880.649 291.801 880.859 295.351C895.479 302.231 910.579 308.831 926.739 310.911C937.939 312.351 949.539 310.731 959.819 306.021C965.369 303.751 970.079 299.681 976.029 298.351C982.479 296.601 985.509 290.301 989.059 285.301C990.239 283.281 992.539 284.201 994.369 284.551C999.619 280.581 1004.61 275.221 1011.57 274.671C1011.98 279.781 1008.91 284.211 1005.43 287.621C1002.14 290.721 999.689 294.581 996.449 297.731C992.569 301.581 987.979 304.581 983.689 307.941C979.489 311.401 974.099 312.711 969.109 314.591C952.189 320.561 934.139 324.301 916.129 322.501C902.479 321.241 889.179 317.741 875.799 314.921C869.669 319.151 863.579 323.441 857.529 327.771C840.349 339.381 819.539 344.831 798.949 345.381C786.339 345.671 773.609 344.391 761.499 340.771C755.779 338.871 749.609 338.631 744.089 336.071C737.519 333.151 730.499 330.171 725.699 324.631C723.659 322.851 725.619 320.301 727.889 320.391C736.309 320.541 744.679 322.781 752.019 326.931C768.369 332.371 785.669 335.541 802.939 334.891C813.499 334.441 824.189 332.041 833.279 326.461C841.639 321.321 850.359 316.511 857.709 309.921C861.259 307.091 860.459 302.191 860.569 298.201C860.359 293.901 860.909 289.321 858.729 285.421C853.689 290.851 845.809 290.591 838.999 290.441C830.779 289.951 822.489 288.991 814.629 286.481C812.429 285.861 811.439 283.641 810.159 282.001C805.109 274.521 798.099 268.721 792.239 261.931C786.689 255.621 783.799 247.521 781.379 239.601C780.249 234.961 778.759 229.341 782.039 225.221C785.599 220.521 790.179 216.711 794.709 212.981C802.149 207.101 810.069 201.611 818.989 198.221ZM888.709 219.961C882.789 227.401 881.889 237.231 879.879 246.191C878.269 251.921 880.309 257.741 881.129 263.431C887.739 261.161 889.559 253.751 890.609 247.631C894.609 236.851 900.709 226.141 900.229 214.301C895.859 214.751 891.449 216.361 888.709 219.961ZM802.869 238.421C803.659 240.441 804.569 242.511 806.349 243.891C812.659 249.371 820.099 253.381 826.429 258.841C829.049 261.201 830.529 264.601 833.409 266.721C836.619 269.211 839.819 271.791 843.469 273.621C844.809 274.161 846.359 275.011 847.839 274.331C848.399 273.361 848.939 272.381 849.439 271.391C845.759 267.861 840.999 265.261 838.349 260.811C831.949 247.591 817.559 238.421 802.869 238.421Z" fill="black" stroke="black" stroke-width="0.0938"/>
</g>
</g>
</svg>
