<svg width="1440" height="1024" viewBox="0 0 1440 1024" fill="none" xmlns="http://www.w3.org/2000/svg">
<rect width="1440" height="1024" fill="#E5E5E5"/>
<g id="Desktop - 1" clip-path="url(#clip0)">
<rect width="1440" height="1024" fill="white"/>
<g id="up-arrow 13" clip-path="url(#clip1)">
<g id="Group">
<g id="Group_2">
<path id="Vector" d="M416.257 283.159H374L395.129 262L416.257 283.159Z" fill="black"/>
<g id="up-arrow 1" clip-path="url(#clip2)">
<g id="up-arrow 12" clip-path="url(#clip3)">
<g id="Group_3">
<g id="Group_4">
<path id="Vector_2" d="M452.257 283.159H410L431.129 262L452.257 283.159Z" fill="black"/>
<g id="up-arrow 1_2" clip-path="url(#clip4)">
<g id="up-arrow 11" clip-path="url(#clip5)">
<g id="Group_5">
<g id="Group_6">
<path id="Vector_3" d="M490.257 283.159H448L469.129 262L490.257 283.159Z" fill="black"/>
<g id="up-arrow 1_3" clip-path="url(#clip6)">
<g id="up-arrow 10" clip-path="url(#clip7)">
<g id="Group_7">
<g id="Group_8">
<path id="Vector_4" d="M531.257 283.159H489L510.129 262L531.257 283.159Z" fill="black"/>
<g id="up-arrow 1_4" clip-path="url(#clip8)">
<g id="up-arrow 9" clip-path="url(#clip9)">
<g id="Group_9">
<g id="Group_10">
<path id="Vector_5" d="M569.257 283.159H527L548.129 262L569.257 283.159Z" fill="black"/>
</g>
</g>
</g>
</g>
</g>
</g>
</g>
</g>
</g>
</g>
</g>
</g>
</g>
</g>
</g>
</g>
</g>
</g>
<g id="Group_11">
<g id="Group_12">
<path id="Vector_6" d="M416.257 283.159H374L395.129 262L416.257 283.159Z" fill="black"/>
<g id="up-arrow 1_5" clip-path="url(#clip10)">
<g id="up-arrow 12_2" clip-path="url(#clip11)">
<g id="Group_13">
<g id="Group_14">
<path id="Vector_7" d="M452.257 283.159H410L431.129 262L452.257 283.159Z" fill="black"/>
<g id="up-arrow 1_6" clip-path="url(#clip12)">
<g id="up-arrow 11_2" clip-path="url(#clip13)">
<g id="Group_15">
<g id="Group_16">
<path id="Vector_8" d="M490.257 283.159H448L469.129 262L490.257 283.159Z" fill="black"/>
<g id="up-arrow 1_7" clip-path="url(#clip14)">
<g id="up-arrow 10_2" clip-path="url(#clip15)">
<g id="Group_17">
<g id="Group_18">
<path id="Vector_9" d="M531.257 283.159H489L510.129 262L531.257 283.159Z" fill="black"/>
<g id="up-arrow 1_8" clip-path="url(#clip16)">
<g id="up-arrow 9_2" clip-path="url(#clip17)">
<g id="Group_19">
<g id="Group_20">
<path id="Vector_10" d="M569.257 283.159H527L548.129 262L569.257 283.159Z" fill="black"/>
</g>
</g>
</g>
</g>
</g>
</g>
</g>
</g>
</g>
</g>
</g>
</g>
</g>
</g>
</g>
</g>
</g>
</g>
<g id="Group_21">
<g id="Group_22">
<path id="Vector_11" d="M416.257 283.159H374L395.129 262L416.257 283.159Z" fill="black"/>
<g id="up-arrow 1_9" clip-path="url(#clip18)">
<g id="up-arrow 12_3" clip-path="url(#clip19)">
<g id="Group_23">
<g id="Group_24">
<path id="Vector_12" d="M452.257 283.159H410L431.129 262L452.257 283.159Z" fill="black"/>
<g id="up-arrow 1_10" clip-path="url(#clip20)">
<g id="up-arrow 11_3" clip-path="url(#clip21)">
<g id="Group_25">
<g id="Group_26">
<path id="Vector_13" d="M490.257 283.159H448L469.129 262L490.257 283.159Z" fill="black"/>
<g id="up-arrow 1_11" clip-path="url(#clip22)">
<g id="up-arrow 10_3" clip-path="url(#clip23)">
<g id="Group_27">
<g id="Group_28">
<path id="Vector_14" d="M531.257 283.159H489L510.129 262L531.257 283.159Z" fill="black"/>
<g id="up-arrow 1_12" clip-path="url(#clip24)">
<g id="up-arrow 9_3" clip-path="url(#clip25)">
<g id="Group_29">
<g id="Group_30">
<path id="Vector_15" d="M569.257 283.159H527L548.129 262L569.257 283.159Z" fill="black"/>
</g>
</g>
</g>
</g>
</g>
</g>
</g>
</g>
</g>
</g>
</g>
</g>
</g>
</g>
</g>
</g>
</g>
</g>
<g id="Group_31">
<g id="Group_32">
<path id="Vector_16" d="M416.257 283.159H374L395.129 262L416.257 283.159Z" fill="black"/>
<g id="up-arrow 1_13" clip-path="url(#clip26)">
<g id="up-arrow 12_4" clip-path="url(#clip27)">
<g id="Group_33">
<g id="Group_34">
<path id="Vector_17" d="M452.257 283.159H410L431.129 262L452.257 283.159Z" fill="black"/>
<g id="up-arrow 1_14" clip-path="url(#clip28)">
<g id="up-arrow 11_4" clip-path="url(#clip29)">
<g id="Group_35">
<g id="Group_36">
<path id="Vector_18" d="M490.257 283.159H448L469.129 262L490.257 283.159Z" fill="black"/>
<g id="up-arrow 1_15" clip-path="url(#clip30)">
<g id="up-arrow 10_4" clip-path="url(#clip31)">
<g id="Group_37">
<g id="Group_38">
<path id="Vector_19" d="M531.257 283.159H489L510.129 262L531.257 283.159Z" fill="black"/>
<g id="up-arrow 1_16" clip-path="url(#clip32)">
<g id="up-arrow 9_4" clip-path="url(#clip33)">
<g id="Group_39">
<g id="Group_40">
<path id="Vector_20" d="M569.257 283.159H527L548.129 262L569.257 283.159Z" fill="black"/>
</g>
</g>
</g>
</g>
</g>
</g>
</g>
</g>
</g>
</g>
</g>
</g>
</g>
</g>
</g>
</g>
</g>
</g>
</g>
<g id="up-arrow 3" clip-path="url(#clip34)">
<g id="Group_41">
<g id="Group_42">
<path id="Vector_21" d="M603.257 285.159H561L582.129 264L603.257 285.159Z" fill="black"/>
</g>
</g>
</g>
<g id="up-arrow 4" clip-path="url(#clip35)">
<g id="Group_43">
<g id="Group_44">
<path id="Vector_22" d="M603.257 285.159H561L582.129 264L603.257 285.159Z" fill="black"/>
</g>
</g>
</g>
<g id="up-arrow 5" clip-path="url(#clip36)">
<g id="Group_45">
<g id="Group_46">
<path id="Vector_23" d="M603.257 285.159H561L582.129 264L603.257 285.159Z" fill="black"/>
</g>
</g>
</g>
<g id="up-arrow 8" clip-path="url(#clip37)">
<g id="Group_47">
<g id="Group_48">
<path id="Vector_24" d="M645.257 285.159H603L624.129 264L645.257 285.159Z" fill="black"/>
<g id="up-arrow 1_17" clip-path="url(#clip38)">
<g id="Group_49">
<g id="Group_50">
<path id="Vector_25" d="M683.257 285.159H641L662.129 264L683.257 285.159Z" fill="black"/>
<g id="up-arrow 1_18" clip-path="url(#clip39)">
<g id="up-arrow 6" clip-path="url(#clip40)">
<g id="Group_51">
<g id="Group_52">
<path id="Vector_26" d="M719.257 285.159H677L698.129 264L719.257 285.159Z" fill="black"/>
<g id="up-arrow 1_19" clip-path="url(#clip41)">
<g id="Group_53">
<g id="Group_54">
<path id="Vector_27" d="M752.257 285.159H710L731.129 264L752.257 285.159Z" fill="black"/>
<g id="up-arrow 1_20" clip-path="url(#clip42)">
<g id="up-arrow 12_5" clip-path="url(#clip43)">
<g id="Group_55">
<g id="Group_56">
<path id="Vector_28" d="M788.257 285.159H746L767.129 264L788.257 285.159Z" fill="black"/>
<g id="up-arrow 1_21" clip-path="url(#clip44)">
<g id="up-arrow 11_5" clip-path="url(#clip45)">
<g id="Group_57">
<g id="Group_58">
<path id="Vector_29" d="M826.257 285.159H784L805.129 264L826.257 285.159Z" fill="black"/>
<g id="up-arrow 1_22" clip-path="url(#clip46)">
<g id="up-arrow 10_5" clip-path="url(#clip47)">
<g id="Group_59">
<g id="Group_60">
<path id="Vector_30" d="M867.257 285.159H825L846.129 264L867.257 285.159Z" fill="black"/>
<g id="up-arrow 1_23" clip-path="url(#clip48)">
<g id="up-arrow 9_5" clip-path="url(#clip49)">
<g id="Group_61">
<g id="Group_62">
<path id="Vector_31" d="M905.257 285.159H863L884.129 264L905.257 285.159Z" fill="black"/>
</g>
</g>
</g>
</g>
</g>
</g>
</g>
</g>
</g>
</g>
</g>
</g>
</g>
</g>
</g>
</g>
</g>
</g>
</g>
</g>
</g>
</g>
</g>
</g>
</g>
</g>
</g>
</g>
</g>
<g id="up-arrow 14" clip-path="url(#clip50)">
<g id="Group_63">
<g id="Group_64">
<path id="Vector_32" d="M645.257 285.159H603L624.129 264L645.257 285.159Z" fill="black"/>
<g id="up-arrow 1_24" clip-path="url(#clip51)">
<g id="Group_65">
<g id="Group_66">
<path id="Vector_33" d="M683.257 285.159H641L662.129 264L683.257 285.159Z" fill="black"/>
<g id="up-arrow 1_25" clip-path="url(#clip52)">
<g id="up-arrow 6_2" clip-path="url(#clip53)">
<g id="Group_67">
<g id="Group_68">
<path id="Vector_34" d="M719.257 285.159H677L698.129 264L719.257 285.159Z" fill="black"/>
<g id="up-arrow 1_26" clip-path="url(#clip54)">
<g id="Group_69">
<g id="Group_70">
<path id="Vector_35" d="M752.257 285.159H710L731.129 264L752.257 285.159Z" fill="black"/>
<g id="up-arrow 1_27" clip-path="url(#clip55)">
<g id="up-arrow 12_6" clip-path="url(#clip56)">
<g id="Group_71">
<g id="Group_72">
<path id="Vector_36" d="M788.257 285.159H746L767.129 264L788.257 285.159Z" fill="black"/>
<g id="up-arrow 1_28" clip-path="url(#clip57)">
<g id="up-arrow 11_6" clip-path="url(#clip58)">
<g id="Group_73">
<g id="Group_74">
<path id="Vector_37" d="M826.257 285.159H784L805.129 264L826.257 285.159Z" fill="black"/>
<g id="up-arrow 1_29" clip-path="url(#clip59)">
<g id="up-arrow 10_6" clip-path="url(#clip60)">
<g id="Group_75">
<g id="Group_76">
<path id="Vector_38" d="M867.257 285.159H825L846.129 264L867.257 285.159Z" fill="black"/>
<g id="up-arrow 1_30" clip-path="url(#clip61)">
<g id="up-arrow 9_6" clip-path="url(#clip62)">
<g id="Group_77">
<g id="Group_78">
<path id="Vector_39" d="M905.257 285.159H863L884.129 264L905.257 285.159Z" fill="black"/>
</g>
</g>
</g>
</g>
</g>
</g>
</g>
</g>
</g>
</g>
</g>
</g>
</g>
</g>
</g>
</g>
</g>
</g>
</g>
</g>
</g>
</g>
</g>
</g>
</g>
</g>
</g>
</g>
</g>
<g id="up-arrow 15" clip-path="url(#clip63)">
<g id="Group_79">
<g id="Group_80">
<path id="Vector_40" d="M645.257 285.159H603L624.129 264L645.257 285.159Z" fill="black"/>
<g id="up-arrow 1_31" clip-path="url(#clip64)">
<g id="Group_81">
<g id="Group_82">
<path id="Vector_41" d="M683.257 285.159H641L662.129 264L683.257 285.159Z" fill="black"/>
<g id="up-arrow 1_32" clip-path="url(#clip65)">
<g id="up-arrow 6_3" clip-path="url(#clip66)">
<g id="Group_83">
<g id="Group_84">
<path id="Vector_42" d="M719.257 285.159H677L698.129 264L719.257 285.159Z" fill="black"/>
<g id="up-arrow 1_33" clip-path="url(#clip67)">
<g id="Group_85">
<g id="Group_86">
<path id="Vector_43" d="M752.257 285.159H710L731.129 264L752.257 285.159Z" fill="black"/>
<g id="up-arrow 1_34" clip-path="url(#clip68)">
<g id="up-arrow 12_7" clip-path="url(#clip69)">
<g id="Group_87">
<g id="Group_88">
<path id="Vector_44" d="M788.257 285.159H746L767.129 264L788.257 285.159Z" fill="black"/>
<g id="up-arrow 1_35" clip-path="url(#clip70)">
<g id="up-arrow 11_7" clip-path="url(#clip71)">
<g id="Group_89">
<g id="Group_90">
<path id="Vector_45" d="M826.257 285.159H784L805.129 264L826.257 285.159Z" fill="black"/>
<g id="up-arrow 1_36" clip-path="url(#clip72)">
<g id="up-arrow 10_7" clip-path="url(#clip73)">
<g id="Group_91">
<g id="Group_92">
<path id="Vector_46" d="M867.257 285.159H825L846.129 264L867.257 285.159Z" fill="black"/>
<g id="up-arrow 1_37" clip-path="url(#clip74)">
<g id="up-arrow 9_7" clip-path="url(#clip75)">
<g id="Group_93">
<g id="Group_94">
<path id="Vector_47" d="M905.257 285.159H863L884.129 264L905.257 285.159Z" fill="black"/>
</g>
</g>
</g>
</g>
</g>
</g>
</g>
</g>
</g>
</g>
</g>
</g>
</g>
</g>
</g>
</g>
</g>
</g>
</g>
</g>
</g>
</g>
</g>
</g>
</g>
</g>
</g>
</g>
</g>
<g id="up-arrow 16" clip-path="url(#clip76)">
<g id="Group_95">
<g id="Group_96">
<path id="Vector_48" d="M645.257 285.159H603L624.129 264L645.257 285.159Z" fill="black"/>
<g id="up-arrow 1_38" clip-path="url(#clip77)">
<g id="Group_97">
<g id="Group_98">
<path id="Vector_49" d="M683.257 285.159H641L662.129 264L683.257 285.159Z" fill="black"/>
<g id="up-arrow 1_39" clip-path="url(#clip78)">
<g id="up-arrow 6_4" clip-path="url(#clip79)">
<g id="Group_99">
<g id="Group_100">
<path id="Vector_50" d="M719.257 285.159H677L698.129 264L719.257 285.159Z" fill="black"/>
<g id="up-arrow 1_40" clip-path="url(#clip80)">
<g id="Group_101">
<g id="Group_102">
<path id="Vector_51" d="M752.257 285.159H710L731.129 264L752.257 285.159Z" fill="black"/>
<g id="up-arrow 1_41" clip-path="url(#clip81)">
<g id="up-arrow 12_8" clip-path="url(#clip82)">
<g id="Group_103">
<g id="Group_104">
<path id="Vector_52" d="M788.257 285.159H746L767.129 264L788.257 285.159Z" fill="black"/>
<g id="up-arrow 1_42" clip-path="url(#clip83)">
<g id="up-arrow 11_8" clip-path="url(#clip84)">
<g id="Group_105">
<g id="Group_106">
<path id="Vector_53" d="M826.257 285.159H784L805.129 264L826.257 285.159Z" fill="black"/>
<g id="up-arrow 1_43" clip-path="url(#clip85)">
<g id="up-arrow 10_8" clip-path="url(#clip86)">
<g id="Group_107">
<g id="Group_108">
<path id="Vector_54" d="M867.257 285.159H825L846.129 264L867.257 285.159Z" fill="black"/>
<g id="up-arrow 1_44" clip-path="url(#clip87)">
<g id="up-arrow 9_8" clip-path="url(#clip88)">
<g id="Group_109">
<g id="Group_110">
<path id="Vector_55" d="M905.257 285.159H863L884.129 264L905.257 285.159Z" fill="black"/>
</g>
</g>
</g>
</g>
</g>
</g>
</g>
</g>
</g>
</g>
</g>
</g>
</g>
</g>
</g>
</g>
</g>
</g>
</g>
</g>
</g>
</g>
</g>
</g>
</g>
</g>
</g>
</g>
</g>
<g id="Group 1">
<g id="up-arrow 17" clip-path="url(#clip89)">
<g id="Group_111">
<g id="Group_112">
<path id="Vector_56" d="M949.257 285.159H907L928.129 264L949.257 285.159Z" fill="black"/>
<g id="up-arrow 1_45" clip-path="url(#clip90)">
<g id="Group_113">
<g id="Group_114">
<path id="Vector_57" d="M987.257 285.159H945L966.129 264L987.257 285.159Z" fill="black"/>
<g id="up-arrow 1_46" clip-path="url(#clip91)">
<g id="up-arrow 6_5" clip-path="url(#clip92)">
<g id="Group_115">
<g id="Group_116">
<path id="Vector_58" d="M1023.26 285.159H981L1002.13 264L1023.26 285.159Z" fill="black"/>
<g id="up-arrow 1_47" clip-path="url(#clip93)">
<g id="Group_117">
<g id="Group_118">
<path id="Vector_59" d="M1056.26 285.159H1014L1035.13 264L1056.26 285.159Z" fill="black"/>
<g id="up-arrow 1_48" clip-path="url(#clip94)">
<g id="up-arrow 12_9" clip-path="url(#clip95)">
<g id="Group_119">
<g id="Group_120">
<path id="Vector_60" d="M1092.26 285.159H1050L1071.13 264L1092.26 285.159Z" fill="black"/>
<g id="up-arrow 1_49" clip-path="url(#clip96)">
<g id="up-arrow 11_9" clip-path="url(#clip97)">
<g id="Group_121">
<g id="Group_122">
<path id="Vector_61" d="M1130.26 285.159H1088L1109.13 264L1130.26 285.159Z" fill="black"/>
<g id="up-arrow 1_50" clip-path="url(#clip98)">
<g id="up-arrow 10_9" clip-path="url(#clip99)">
<g id="Group_123">
<g id="Group_124">
<path id="Vector_62" d="M1171.26 285.159H1129L1150.13 264L1171.26 285.159Z" fill="black"/>
<g id="up-arrow 1_51" clip-path="url(#clip100)">
<g id="up-arrow 9_9" clip-path="url(#clip101)">
<g id="Group_125">
<g id="Group_126">
<path id="Vector_63" d="M1209.26 285.159H1167L1188.13 264L1209.26 285.159Z" fill="black"/>
</g>
</g>
</g>
</g>
</g>
</g>
</g>
</g>
</g>
</g>
</g>
</g>
</g>
</g>
</g>
</g>
</g>
</g>
</g>
</g>
</g>
</g>
</g>
</g>
</g>
</g>
</g>
</g>
<g id="up-arrow 18" clip-path="url(#clip102)">
<g id="Group_127">
<g id="Group_128">
<path id="Vector_64" d="M1251.26 285.159H1209L1230.13 264L1251.26 285.159Z" fill="black"/>
<g id="up-arrow 1_52" clip-path="url(#clip103)">
<g id="Group_129">
<g id="Group_130">
<path id="Vector_65" d="M1289.26 285.159H1247L1268.13 264L1289.26 285.159Z" fill="black"/>
<g id="up-arrow 1_53" clip-path="url(#clip104)">
<g id="up-arrow 6_6" clip-path="url(#clip105)">
<g id="Group_131">
<g id="Group_132">
<path id="Vector_66" d="M1325.26 285.159H1283L1304.13 264L1325.26 285.159Z" fill="black"/>
<g id="up-arrow 1_54" clip-path="url(#clip106)">
<g id="Group_133">
<g id="Group_134">
<path id="Vector_67" d="M1358.26 285.159H1316L1337.13 264L1358.26 285.159Z" fill="black"/>
<g id="up-arrow 1_55" clip-path="url(#clip107)">
<g id="up-arrow 12_10" clip-path="url(#clip108)">
<g id="Group_135">
<g id="Group_136">
<path id="Vector_68" d="M1394.26 285.159H1352L1373.13 264L1394.26 285.159Z" fill="black"/>
<g id="up-arrow 1_56" clip-path="url(#clip109)">
<g id="up-arrow 11_10" clip-path="url(#clip110)">
<g id="Group_137">
<g id="Group_138">
<path id="Vector_69" d="M1432.26 285.159H1390L1411.13 264L1432.26 285.159Z" fill="black"/>
</g>
</g>
</g>
</g>
</g>
</g>
</g>
</g>
</g>
</g>
</g>
</g>
</g>
</g>
</g>
</g>
</g>
</g>
</g>
</g>
</g>
</g>
</g>
<g id="up-arrow 2" clip-path="url(#clip111)">
<g id="Group_139">
<g id="Group_140">
<g id="up-arrow 1_57" clip-path="url(#clip112)">
<path id="Vector_70" d="M49.2571 287.159H7L28.1293 266L49.2571 287.159Z" fill="black"/>
<path id="Vector_71" d="M91.2571 287.159H49L70.1293 266L91.2571 287.159Z" fill="black"/>
<g id="up-arrow 4_2" clip-path="url(#clip113)">
<g id="Group_141">
<g id="Group_142">
<path id="Vector_72" d="M133.257 285.159H91L112.129 264L133.257 285.159Z" fill="black"/>
<g id="up-arrow 1_58" clip-path="url(#clip114)">
<g id="up-arrow 4_3" clip-path="url(#clip115)">
<g id="Group_143">
<g id="Group_144">
<path id="Vector_73" d="M176.257 285.159H134L155.129 264L176.257 285.159Z" fill="black"/>
<g id="up-arrow 1_59" clip-path="url(#clip116)">
<g id="up-arrow 18_2" clip-path="url(#clip117)">
<g id="Group_145">
<g id="Group_146">
<path id="Vector_74" d="M218.257 285.159H176L197.129 264L218.257 285.159Z" fill="black"/>
</g>
</g>
</g>
</g>
</g>
</g>
</g>
</g>
</g>
</g>
</g>
</g>
</g>
</g>
<g id="up-arrow 17_2" clip-path="url(#clip118)">
<g id="Group_147">
<g id="Group_148">
<path id="Vector_75" d="M260.257 285.159H218L239.129 264L260.257 285.159Z" fill="black"/>
<g id="up-arrow 1_60" clip-path="url(#clip119)">
<g id="up-arrow 16_2" clip-path="url(#clip120)">
<g id="Group_149">
<g id="Group_150">
<path id="Vector_76" d="M300.257 285.159H258L279.129 264L300.257 285.159Z" fill="black"/>
<g id="up-arrow 1_61" clip-path="url(#clip121)">
<g id="up-arrow 15_2" clip-path="url(#clip122)">
<g id="Group_151">
<g id="Group_152">
<path id="Vector_77" d="M338.257 283.159H296L317.129 262L338.257 283.159Z" fill="black"/>
<g id="up-arrow 1_62" clip-path="url(#clip123)">
<g id="up-arrow 14_2" clip-path="url(#clip124)">
<g id="Group_153">
<g id="Group_154">
<path id="Vector_78" d="M374.257 281.159H332L353.129 260L374.257 281.159Z" fill="black"/>
</g>
</g>
</g>
</g>
</g>
</g>
</g>
</g>
</g>
</g>
</g>
</g>
</g>
</g>
</g>
</g>
</g>
<defs>
<clipPath id="clip0">
<rect width="1440" height="1024" fill="white"/>
</clipPath>
<clipPath id="clip1">
<rect width="493" height="324" fill="white" transform="translate(374 217)"/>
</clipPath>
<clipPath id="clip2">
<rect width="493" height="324" fill="white" transform="translate(227 138)"/>
</clipPath>
<clipPath id="clip3">
<rect width="493" height="324" fill="white" transform="translate(410 219)"/>
</clipPath>
<clipPath id="clip4">
<rect width="493" height="324" fill="white" transform="translate(263 138)"/>
</clipPath>
<clipPath id="clip5">
<rect width="493" height="324" fill="white" transform="translate(448 219)"/>
</clipPath>
<clipPath id="clip6">
<rect width="493" height="324" fill="white" transform="translate(301 138)"/>
</clipPath>
<clipPath id="clip7">
<rect width="493" height="324" fill="white" transform="translate(489 219)"/>
</clipPath>
<clipPath id="clip8">
<rect width="493" height="324" fill="white" transform="translate(342 138)"/>
</clipPath>
<clipPath id="clip9">
<rect width="493" height="324" fill="white" transform="translate(527 219)"/>
</clipPath>
<clipPath id="clip10">
<rect width="493" height="324" fill="white" transform="translate(227 138)"/>
</clipPath>
<clipPath id="clip11">
<rect width="493" height="324" fill="white" transform="translate(410 219)"/>
</clipPath>
<clipPath id="clip12">
<rect width="493" height="324" fill="white" transform="translate(263 138)"/>
</clipPath>
<clipPath id="clip13">
<rect width="493" height="324" fill="white" transform="translate(448 219)"/>
</clipPath>
<clipPath id="clip14">
<rect width="493" height="324" fill="white" transform="translate(301 138)"/>
</clipPath>
<clipPath id="clip15">
<rect width="493" height="324" fill="white" transform="translate(489 219)"/>
</clipPath>
<clipPath id="clip16">
<rect width="493" height="324" fill="white" transform="translate(342 138)"/>
</clipPath>
<clipPath id="clip17">
<rect width="493" height="324" fill="white" transform="translate(527 219)"/>
</clipPath>
<clipPath id="clip18">
<rect width="493" height="324" fill="white" transform="translate(227 138)"/>
</clipPath>
<clipPath id="clip19">
<rect width="493" height="324" fill="white" transform="translate(410 219)"/>
</clipPath>
<clipPath id="clip20">
<rect width="493" height="324" fill="white" transform="translate(263 138)"/>
</clipPath>
<clipPath id="clip21">
<rect width="493" height="324" fill="white" transform="translate(448 219)"/>
</clipPath>
<clipPath id="clip22">
<rect width="493" height="324" fill="white" transform="translate(301 138)"/>
</clipPath>
<clipPath id="clip23">
<rect width="493" height="324" fill="white" transform="translate(489 219)"/>
</clipPath>
<clipPath id="clip24">
<rect width="493" height="324" fill="white" transform="translate(342 138)"/>
</clipPath>
<clipPath id="clip25">
<rect width="493" height="324" fill="white" transform="translate(527 219)"/>
</clipPath>
<clipPath id="clip26">
<rect width="493" height="324" fill="white" transform="translate(227 138)"/>
</clipPath>
<clipPath id="clip27">
<rect width="493" height="324" fill="white" transform="translate(410 219)"/>
</clipPath>
<clipPath id="clip28">
<rect width="493" height="324" fill="white" transform="translate(263 138)"/>
</clipPath>
<clipPath id="clip29">
<rect width="493" height="324" fill="white" transform="translate(448 219)"/>
</clipPath>
<clipPath id="clip30">
<rect width="493" height="324" fill="white" transform="translate(301 138)"/>
</clipPath>
<clipPath id="clip31">
<rect width="493" height="324" fill="white" transform="translate(489 219)"/>
</clipPath>
<clipPath id="clip32">
<rect width="493" height="324" fill="white" transform="translate(342 138)"/>
</clipPath>
<clipPath id="clip33">
<rect width="493" height="324" fill="white" transform="translate(527 219)"/>
</clipPath>
<clipPath id="clip34">
<rect width="493" height="324" fill="white" transform="translate(561 221)"/>
</clipPath>
<clipPath id="clip35">
<rect width="493" height="324" fill="white" transform="translate(561 221)"/>
</clipPath>
<clipPath id="clip36">
<rect width="493" height="324" fill="white" transform="translate(561 221)"/>
</clipPath>
<clipPath id="clip37">
<rect width="493" height="324" fill="white" transform="translate(603 221)"/>
</clipPath>
<clipPath id="clip38">
<rect width="493" height="324" fill="white" transform="translate(456 140)"/>
</clipPath>
<clipPath id="clip39">
<rect width="493" height="324" fill="white" transform="translate(494 140)"/>
</clipPath>
<clipPath id="clip40">
<rect width="493" height="324" fill="white" transform="translate(677 221)"/>
</clipPath>
<clipPath id="clip41">
<rect width="493" height="324" fill="white" transform="translate(530 140)"/>
</clipPath>
<clipPath id="clip42">
<rect width="493" height="324" fill="white" transform="translate(563 140)"/>
</clipPath>
<clipPath id="clip43">
<rect width="493" height="324" fill="white" transform="translate(746 221)"/>
</clipPath>
<clipPath id="clip44">
<rect width="493" height="324" fill="white" transform="translate(599 140)"/>
</clipPath>
<clipPath id="clip45">
<rect width="493" height="324" fill="white" transform="translate(784 221)"/>
</clipPath>
<clipPath id="clip46">
<rect width="493" height="324" fill="white" transform="translate(637 140)"/>
</clipPath>
<clipPath id="clip47">
<rect width="493" height="324" fill="white" transform="translate(825 221)"/>
</clipPath>
<clipPath id="clip48">
<rect width="493" height="324" fill="white" transform="translate(678 140)"/>
</clipPath>
<clipPath id="clip49">
<rect width="493" height="324" fill="white" transform="translate(863 221)"/>
</clipPath>
<clipPath id="clip50">
<rect width="493" height="324" fill="white" transform="translate(603 221)"/>
</clipPath>
<clipPath id="clip51">
<rect width="493" height="324" fill="white" transform="translate(456 140)"/>
</clipPath>
<clipPath id="clip52">
<rect width="493" height="324" fill="white" transform="translate(494 140)"/>
</clipPath>
<clipPath id="clip53">
<rect width="493" height="324" fill="white" transform="translate(677 221)"/>
</clipPath>
<clipPath id="clip54">
<rect width="493" height="324" fill="white" transform="translate(530 140)"/>
</clipPath>
<clipPath id="clip55">
<rect width="493" height="324" fill="white" transform="translate(563 140)"/>
</clipPath>
<clipPath id="clip56">
<rect width="493" height="324" fill="white" transform="translate(746 221)"/>
</clipPath>
<clipPath id="clip57">
<rect width="493" height="324" fill="white" transform="translate(599 140)"/>
</clipPath>
<clipPath id="clip58">
<rect width="493" height="324" fill="white" transform="translate(784 221)"/>
</clipPath>
<clipPath id="clip59">
<rect width="493" height="324" fill="white" transform="translate(637 140)"/>
</clipPath>
<clipPath id="clip60">
<rect width="493" height="324" fill="white" transform="translate(825 221)"/>
</clipPath>
<clipPath id="clip61">
<rect width="493" height="324" fill="white" transform="translate(678 140)"/>
</clipPath>
<clipPath id="clip62">
<rect width="493" height="324" fill="white" transform="translate(863 221)"/>
</clipPath>
<clipPath id="clip63">
<rect width="493" height="324" fill="white" transform="translate(603 221)"/>
</clipPath>
<clipPath id="clip64">
<rect width="493" height="324" fill="white" transform="translate(456 140)"/>
</clipPath>
<clipPath id="clip65">
<rect width="493" height="324" fill="white" transform="translate(494 140)"/>
</clipPath>
<clipPath id="clip66">
<rect width="493" height="324" fill="white" transform="translate(677 221)"/>
</clipPath>
<clipPath id="clip67">
<rect width="493" height="324" fill="white" transform="translate(530 140)"/>
</clipPath>
<clipPath id="clip68">
<rect width="493" height="324" fill="white" transform="translate(563 140)"/>
</clipPath>
<clipPath id="clip69">
<rect width="493" height="324" fill="white" transform="translate(746 221)"/>
</clipPath>
<clipPath id="clip70">
<rect width="493" height="324" fill="white" transform="translate(599 140)"/>
</clipPath>
<clipPath id="clip71">
<rect width="493" height="324" fill="white" transform="translate(784 221)"/>
</clipPath>
<clipPath id="clip72">
<rect width="493" height="324" fill="white" transform="translate(637 140)"/>
</clipPath>
<clipPath id="clip73">
<rect width="493" height="324" fill="white" transform="translate(825 221)"/>
</clipPath>
<clipPath id="clip74">
<rect width="493" height="324" fill="white" transform="translate(678 140)"/>
</clipPath>
<clipPath id="clip75">
<rect width="493" height="324" fill="white" transform="translate(863 221)"/>
</clipPath>
<clipPath id="clip76">
<rect width="493" height="324" fill="white" transform="translate(603 221)"/>
</clipPath>
<clipPath id="clip77">
<rect width="493" height="324" fill="white" transform="translate(456 140)"/>
</clipPath>
<clipPath id="clip78">
<rect width="493" height="324" fill="white" transform="translate(494 140)"/>
</clipPath>
<clipPath id="clip79">
<rect width="493" height="324" fill="white" transform="translate(677 221)"/>
</clipPath>
<clipPath id="clip80">
<rect width="493" height="324" fill="white" transform="translate(530 140)"/>
</clipPath>
<clipPath id="clip81">
<rect width="493" height="324" fill="white" transform="translate(563 140)"/>
</clipPath>
<clipPath id="clip82">
<rect width="493" height="324" fill="white" transform="translate(746 221)"/>
</clipPath>
<clipPath id="clip83">
<rect width="493" height="324" fill="white" transform="translate(599 140)"/>
</clipPath>
<clipPath id="clip84">
<rect width="493" height="324" fill="white" transform="translate(784 221)"/>
</clipPath>
<clipPath id="clip85">
<rect width="493" height="324" fill="white" transform="translate(637 140)"/>
</clipPath>
<clipPath id="clip86">
<rect width="493" height="324" fill="white" transform="translate(825 221)"/>
</clipPath>
<clipPath id="clip87">
<rect width="493" height="324" fill="white" transform="translate(678 140)"/>
</clipPath>
<clipPath id="clip88">
<rect width="493" height="324" fill="white" transform="translate(863 221)"/>
</clipPath>
<clipPath id="clip89">
<rect width="493" height="324" fill="white" transform="translate(907 221)"/>
</clipPath>
<clipPath id="clip90">
<rect width="493" height="324" fill="white" transform="translate(760 140)"/>
</clipPath>
<clipPath id="clip91">
<rect width="493" height="324" fill="white" transform="translate(798 140)"/>
</clipPath>
<clipPath id="clip92">
<rect width="493" height="324" fill="white" transform="translate(981 221)"/>
</clipPath>
<clipPath id="clip93">
<rect width="493" height="324" fill="white" transform="translate(834 140)"/>
</clipPath>
<clipPath id="clip94">
<rect width="493" height="324" fill="white" transform="translate(867 140)"/>
</clipPath>
<clipPath id="clip95">
<rect width="493" height="324" fill="white" transform="translate(1050 221)"/>
</clipPath>
<clipPath id="clip96">
<rect width="493" height="324" fill="white" transform="translate(903 140)"/>
</clipPath>
<clipPath id="clip97">
<rect width="493" height="324" fill="white" transform="translate(1088 221)"/>
</clipPath>
<clipPath id="clip98">
<rect width="493" height="324" fill="white" transform="translate(941 140)"/>
</clipPath>
<clipPath id="clip99">
<rect width="493" height="324" fill="white" transform="translate(1129 221)"/>
</clipPath>
<clipPath id="clip100">
<rect width="493" height="324" fill="white" transform="translate(982 140)"/>
</clipPath>
<clipPath id="clip101">
<rect width="493" height="324" fill="white" transform="translate(1167 221)"/>
</clipPath>
<clipPath id="clip102">
<rect width="493" height="324" fill="white" transform="translate(1209 221)"/>
</clipPath>
<clipPath id="clip103">
<rect width="493" height="324" fill="white" transform="translate(1062 140)"/>
</clipPath>
<clipPath id="clip104">
<rect width="493" height="324" fill="white" transform="translate(1100 140)"/>
</clipPath>
<clipPath id="clip105">
<rect width="493" height="324" fill="white" transform="translate(1283 221)"/>
</clipPath>
<clipPath id="clip106">
<rect width="493" height="324" fill="white" transform="translate(1136 140)"/>
</clipPath>
<clipPath id="clip107">
<rect width="493" height="324" fill="white" transform="translate(1169 140)"/>
</clipPath>
<clipPath id="clip108">
<rect width="493" height="324" fill="white" transform="translate(1352 221)"/>
</clipPath>
<clipPath id="clip109">
<rect width="493" height="324" fill="white" transform="translate(1205 140)"/>
</clipPath>
<clipPath id="clip110">
<rect width="493" height="324" fill="white" transform="translate(1390 221)"/>
</clipPath>
<clipPath id="clip111">
<rect width="493" height="324" fill="white" transform="translate(-113 206)"/>
</clipPath>
<clipPath id="clip112">
<rect width="493" height="324" fill="white" transform="translate(-260 125)"/>
</clipPath>
<clipPath id="clip113">
<rect width="493" height="324" fill="white" transform="translate(91 221)"/>
</clipPath>
<clipPath id="clip114">
<rect width="493" height="324" fill="white" transform="translate(-56 140)"/>
</clipPath>
<clipPath id="clip115">
<rect width="493" height="324" fill="white" transform="translate(134 221)"/>
</clipPath>
<clipPath id="clip116">
<rect width="493" height="324" fill="white" transform="translate(-13 140)"/>
</clipPath>
<clipPath id="clip117">
<rect width="493" height="324" fill="white" transform="translate(176 221)"/>
</clipPath>
<clipPath id="clip118">
<rect width="493" height="324" fill="white" transform="translate(218 221)"/>
</clipPath>
<clipPath id="clip119">
<rect width="493" height="324" fill="white" transform="translate(71 140)"/>
</clipPath>
<clipPath id="clip120">
<rect width="493" height="324" fill="white" transform="translate(258 221)"/>
</clipPath>
<clipPath id="clip121">
<rect width="493" height="324" fill="white" transform="translate(111 140)"/>
</clipPath>
<clipPath id="clip122">
<rect width="493" height="324" fill="white" transform="translate(296 219)"/>
</clipPath>
<clipPath id="clip123">
<rect width="493" height="324" fill="white" transform="translate(149 138)"/>
</clipPath>
<clipPath id="clip124">
<rect width="493" height="324" fill="white" transform="translate(332 217)"/>
</clipPath>
</defs>
</svg>
